<svg width="309" height="363" viewBox="0 0 309 363" fill="none" xmlns="http://www.w3.org/2000/svg">
<g filter="url(#filter0_d_330_341)">
<rect x="10" y="43" width="289" height="305" rx="30" fill="url(#paint0_linear_330_341)"/>
</g>
<path d="M152 182C202.258 182 243 141.258 243 91C243 40.7421 202.258 0 152 0C101.742 0 61 40.7421 61 91C61 141.258 101.742 182 152 182Z" fill="#1E959B"/>
<path d="M86.9285 226.064V229.832H94.0085V233H83.6165V216.2H93.8885V219.368H86.9285V222.944H93.2885V226.064H86.9285ZM104.194 233.336C101.682 233.336 99.5938 232.496 97.9298 230.816C96.2818 229.152 95.4578 227.08 95.4578 224.6C95.4578 222.104 96.2818 220.032 97.9298 218.384C99.5938 216.704 101.682 215.864 104.194 215.864C105.714 215.864 107.114 216.224 108.394 216.944C109.69 217.648 110.698 218.608 111.418 219.824L108.562 221.48C108.146 220.728 107.554 220.144 106.786 219.728C106.018 219.296 105.154 219.08 104.194 219.08C102.562 219.08 101.242 219.592 100.234 220.616C99.2418 221.656 98.7458 222.984 98.7458 224.6C98.7458 226.2 99.2418 227.52 100.234 228.56C101.242 229.584 102.562 230.096 104.194 230.096C105.154 230.096 106.018 229.888 106.786 229.472C107.57 229.04 108.162 228.456 108.562 227.72L111.418 229.376C110.698 230.592 109.69 231.56 108.394 232.28C107.114 232.984 105.714 233.336 104.194 233.336ZM127.424 230.816C125.728 232.496 123.664 233.336 121.232 233.336C118.8 233.336 116.736 232.496 115.04 230.816C113.36 229.104 112.52 227.032 112.52 224.6C112.52 222.152 113.36 220.088 115.04 218.408C116.736 216.712 118.8 215.864 121.232 215.864C123.664 215.864 125.728 216.712 127.424 218.408C129.12 220.088 129.968 222.152 129.968 224.6C129.968 227.048 129.12 229.12 127.424 230.816ZM117.368 228.56C118.392 229.584 119.68 230.096 121.232 230.096C122.784 230.096 124.072 229.584 125.096 228.56C126.136 227.52 126.656 226.2 126.656 224.6C126.656 223 126.136 221.68 125.096 220.64C124.056 219.6 122.768 219.08 121.232 219.08C119.696 219.08 118.408 219.6 117.368 220.64C116.328 221.68 115.808 223 115.808 224.6C115.808 226.2 116.328 227.52 117.368 228.56ZM145.328 216.2H148.736V233H145.448V222.104L140.72 229.904H140.336L135.608 222.128V233H132.296V216.2H135.704L140.528 224.144L145.328 216.2ZM164.898 216.2H168.306V233H165.018V222.104L160.29 229.904H159.906L155.178 222.128V233H151.866V216.2H155.274L160.098 224.144L164.898 216.2ZM174.749 226.064V229.832H181.829V233H171.437V216.2H181.709V219.368H174.749V222.944H181.109V226.064H174.749ZM196.955 233H193.379L189.995 227.168H187.475V233H184.163V216.2H190.883C192.435 216.2 193.755 216.744 194.843 217.832C195.931 218.92 196.475 220.232 196.475 221.768C196.475 222.808 196.179 223.776 195.587 224.672C194.995 225.552 194.211 226.216 193.235 226.664L196.955 233ZM190.883 219.296H187.475V224.264H190.883C191.507 224.264 192.043 224.024 192.491 223.544C192.939 223.048 193.163 222.456 193.163 221.768C193.163 221.08 192.939 220.496 192.491 220.016C192.043 219.536 191.507 219.296 190.883 219.296ZM206.686 233.336C204.174 233.336 202.086 232.496 200.422 230.816C198.774 229.152 197.95 227.08 197.95 224.6C197.95 222.104 198.774 220.032 200.422 218.384C202.086 216.704 204.174 215.864 206.686 215.864C208.206 215.864 209.606 216.224 210.886 216.944C212.182 217.648 213.19 218.608 213.91 219.824L211.054 221.48C210.638 220.728 210.046 220.144 209.278 219.728C208.51 219.296 207.646 219.08 206.686 219.08C205.054 219.08 203.734 219.592 202.726 220.616C201.734 221.656 201.238 222.984 201.238 224.6C201.238 226.2 201.734 227.52 202.726 228.56C203.734 229.584 205.054 230.096 206.686 230.096C207.646 230.096 208.51 229.888 209.278 229.472C210.062 229.04 210.654 228.456 211.054 227.72L213.91 229.376C213.19 230.592 212.182 231.56 210.886 232.28C209.606 232.984 208.206 233.336 206.686 233.336ZM219.257 226.064V229.832H226.337V233H215.945V216.2H226.217V219.368H219.257V222.944H225.617V226.064H219.257Z" fill="#1E959B"/>
<path d="M148.914 136.828H155.902C156.866 136.828 157.649 136.046 157.649 135.081C157.649 134.116 156.866 133.334 155.902 133.334H148.914C147.949 133.334 147.167 134.116 147.167 135.081C147.167 136.046 147.949 136.828 148.914 136.828Z" fill="#F8FFFF"/>
<path d="M122.71 65.2039C123.675 65.2039 124.457 64.4217 124.457 63.457V52.9754H180.358V66.9508C180.358 67.9156 181.141 68.6978 182.105 68.6978C183.07 68.6978 183.852 67.9156 183.852 66.9508V45.9877C183.852 42.8432 179.82 39 175.118 39H129.698C124.876 39.0057 120.969 42.9131 120.963 47.7346V63.457C120.963 64.4217 121.745 65.2039 122.71 65.2039ZM124.457 47.7346C124.457 44.8402 126.803 42.4939 129.698 42.4939H175.118C178.145 42.4939 180.358 44.9396 180.358 45.9877V49.4816H124.457V47.7346Z" fill="#F8FFFF"/>
<path d="M182.105 115.865C181.141 115.865 180.358 116.647 180.358 117.612V126.346H124.457V119.359C124.457 118.394 123.675 117.612 122.71 117.612C121.745 117.612 120.963 118.394 120.963 119.359V135.081C120.969 139.903 124.876 143.81 129.698 143.816H175.118C179.939 143.81 183.847 139.903 183.852 135.081V117.612C183.852 116.647 183.07 115.865 182.105 115.865ZM180.358 135.081C180.358 137.976 178.012 140.322 175.118 140.322H129.698C126.803 140.322 124.457 137.976 124.457 135.081V129.84H180.358V135.081Z" fill="#F8FFFF"/>
<path d="M148.914 44.2407H145.42C144.456 44.2407 143.673 45.0229 143.673 45.9876C143.673 46.9524 144.456 47.7346 145.42 47.7346H148.914C149.879 47.7346 150.661 46.9524 150.661 45.9876C150.661 45.0229 149.879 44.2407 148.914 44.2407Z" fill="#F8FFFF"/>
<path d="M159.396 44.2407H155.902C154.937 44.2407 154.155 45.0229 154.155 45.9876C154.155 46.9524 154.937 47.7346 155.902 47.7346H159.396C160.36 47.7346 161.143 46.9524 161.143 45.9876C161.143 45.0229 160.36 44.2407 159.396 44.2407Z" fill="#F8FFFF"/>
<path d="M204.414 72.8223C204.082 72.4225 203.589 72.1912 203.069 72.1916H157.216L156.325 66.184C155.931 63.6208 153.733 61.7238 151.14 61.7101H143.673V65.2039H151.14C152.006 65.2033 152.743 65.8383 152.869 66.6958L158.973 107.897C159.366 110.46 161.565 112.357 164.158 112.371H168.452C169.398 115.088 172.368 116.523 175.085 115.577C176.587 115.053 177.767 113.873 178.29 112.371H185.921C186.886 115.1 189.88 116.53 192.609 115.565C195.338 114.6 196.768 111.606 195.803 108.877C194.838 106.148 191.844 104.718 189.115 105.683C187.623 106.211 186.449 107.385 185.921 108.877H178.29C177.344 106.16 174.374 104.725 171.657 105.672C170.156 106.195 168.975 107.375 168.452 108.877H164.158C163.293 108.873 162.56 108.24 162.428 107.385L161.873 103.636H197.828C198.668 103.636 199.388 103.038 199.544 102.213L204.784 74.2618C204.881 73.7508 204.745 73.223 204.414 72.8223ZM190.84 108.877C191.805 108.877 192.587 109.659 192.587 110.624C192.587 111.589 191.805 112.371 190.84 112.371C189.876 112.371 189.093 111.589 189.093 110.624C189.093 109.659 189.876 108.877 190.84 108.877ZM173.371 108.877C174.336 108.877 175.118 109.659 175.118 110.624C175.118 111.589 174.336 112.371 173.371 112.371C172.406 112.371 171.624 111.589 171.624 110.624C171.624 109.659 172.406 108.877 173.371 108.877ZM196.378 100.142H161.356L157.734 75.6855H200.973L196.378 100.142Z" fill="#F8FFFF"/>
<path d="M145.42 91.4078C145.42 78.8653 135.253 68.6978 122.71 68.6978C110.168 68.6978 100 78.8653 100 91.4078C100 103.95 110.168 114.118 122.71 114.118C135.246 114.103 145.406 103.944 145.42 91.4078ZM103.494 91.4078C103.494 80.795 112.097 72.1916 122.71 72.1916C133.323 72.1916 141.926 80.795 141.926 91.4078C141.926 102.021 133.323 110.624 122.71 110.624C112.102 110.612 103.506 102.015 103.494 91.4078Z" fill="#F8FFFF"/>
<path d="M124.457 105.383V103.388C128.187 102.428 130.432 98.6263 129.472 94.8964C128.678 91.8118 125.895 89.6569 122.71 89.6608C120.78 89.6608 119.216 88.0967 119.216 86.167C119.216 84.2373 120.78 82.6731 122.71 82.6731C124.64 82.6731 126.204 84.2373 126.204 86.167C126.204 87.1317 126.986 87.9139 127.951 87.9139C128.915 87.9139 129.698 87.1317 129.698 86.167C129.686 82.9904 127.533 80.2215 124.457 79.4273V77.4324C124.457 76.4676 123.675 75.6854 122.71 75.6854C121.745 75.6854 120.963 76.4676 120.963 77.4324V79.4273C117.233 80.3873 114.988 84.1893 115.948 87.9192C116.741 91.0038 119.525 93.1586 122.71 93.1547C124.64 93.1547 126.204 94.7189 126.204 96.6486C126.204 98.5783 124.64 100.142 122.71 100.142C120.78 100.142 119.216 98.5783 119.216 96.6486C119.216 95.6838 118.434 94.9016 117.469 94.9016C116.504 94.9016 115.722 95.6838 115.722 96.6486C115.734 99.8251 117.887 102.594 120.963 103.388V105.383C120.963 106.348 121.745 107.13 122.71 107.13C123.675 107.13 124.457 106.348 124.457 105.383Z" fill="#F8FFFF"/>
<path d="M162.89 80.9262H187.346C188.311 80.9262 189.093 80.144 189.093 79.1793C189.093 78.2146 188.311 77.4324 187.346 77.4324H162.89C161.925 77.4324 161.143 78.2146 161.143 79.1793C161.143 80.144 161.925 80.9262 162.89 80.9262Z" fill="#F8FFFF"/>
<path d="M192.587 80.9262H196.081C197.046 80.9262 197.828 80.144 197.828 79.1793C197.828 78.2146 197.046 77.4324 196.081 77.4324H192.587C191.623 77.4324 190.84 78.2146 190.84 79.1793C190.84 80.144 191.623 80.9262 192.587 80.9262Z" fill="#F8FFFF"/>
<g filter="url(#filter1_d_330_341)">
<path d="M51 286C51 274.954 59.9543 266 71 266H237.582C248.628 266 257.582 274.954 257.582 286V308.063C257.582 319.109 248.627 328.063 237.582 328.063H71C59.9543 328.063 51 319.109 51 308.063V286Z" fill="#F05670"/>
</g>
<path d="M126.929 296.782C127.862 297.267 128.329 298.042 128.329 299.106C128.329 299.974 127.997 300.683 127.335 301.234C126.681 301.775 125.827 302.046 124.773 302.046C122.953 302.046 121.735 301.276 121.119 299.736L122.785 298.798C123.074 299.75 123.737 300.226 124.773 300.226C125.295 300.226 125.697 300.119 125.977 299.904C126.266 299.68 126.411 299.372 126.411 298.98C126.411 298.588 126.271 298.285 125.991 298.07C125.711 297.846 125.319 297.734 124.815 297.734H123.597V296.012H124.521C125.006 296.012 125.384 295.909 125.655 295.704C125.925 295.489 126.061 295.2 126.061 294.836C126.061 294.463 125.939 294.173 125.697 293.968C125.463 293.763 125.123 293.66 124.675 293.66C123.835 293.66 123.247 294.071 122.911 294.892L121.273 293.94C121.935 292.549 123.069 291.854 124.675 291.854C125.636 291.854 126.429 292.115 127.055 292.638C127.671 293.151 127.979 293.842 127.979 294.71C127.979 295.587 127.629 296.278 126.929 296.782ZM137.982 301.85H135.882L135.294 300.086H131.388L130.8 301.85H128.714L132.144 292.05H134.538L137.982 301.85ZM133.348 294.276L132.004 298.28H134.692L133.348 294.276ZM142.826 296.81L146.592 301.85H144.366L140.866 297.258V301.85H138.934V292.05H140.866V296.376L144.226 292.05H146.452L142.826 296.81ZM156.193 301.85H154.093L153.505 300.086H149.599L149.011 301.85H146.925L150.355 292.05H152.749L156.193 301.85ZM151.559 294.276L150.215 298.28H152.903L151.559 294.276ZM162.339 296.782C163.272 297.267 163.739 298.042 163.739 299.106C163.739 299.974 163.407 300.683 162.745 301.234C162.091 301.775 161.237 302.046 160.183 302.046C158.363 302.046 157.145 301.276 156.529 299.736L158.195 298.798C158.484 299.75 159.147 300.226 160.183 300.226C160.705 300.226 161.107 300.119 161.387 299.904C161.676 299.68 161.821 299.372 161.821 298.98C161.821 298.588 161.681 298.285 161.401 298.07C161.121 297.846 160.729 297.734 160.225 297.734H159.007V296.012H159.931C160.416 296.012 160.794 295.909 161.065 295.704C161.335 295.489 161.471 295.2 161.471 294.836C161.471 294.463 161.349 294.173 161.107 293.968C160.873 293.763 160.533 293.66 160.085 293.66C159.245 293.66 158.657 294.071 158.321 294.892L156.683 293.94C157.345 292.549 158.479 291.854 160.085 291.854C161.046 291.854 161.839 292.115 162.465 292.638C163.081 293.151 163.389 293.842 163.389 294.71C163.389 295.587 163.039 296.278 162.339 296.782ZM173.392 301.85H171.292L170.704 300.086H166.798L166.21 301.85H164.124L167.554 292.05H169.948L173.392 301.85ZM168.758 294.276L167.414 298.28H170.102L168.758 294.276ZM172.905 292.05H180.115V293.898H177.469V301.85H175.537V293.898H172.905V292.05ZM183.126 295.27H184.848C185.781 295.27 186.574 295.587 187.228 296.222C187.872 296.857 188.194 297.636 188.194 298.56C188.194 299.484 187.872 300.263 187.228 300.898C186.574 301.533 185.781 301.85 184.848 301.85H181.194V292.05H183.126V295.27ZM183.126 300.044H184.848C185.258 300.044 185.599 299.904 185.87 299.624C186.14 299.344 186.276 298.989 186.276 298.56C186.276 298.14 186.14 297.79 185.87 297.51C185.599 297.221 185.258 297.076 184.848 297.076H183.126V300.044Z" fill="white"/>
<defs>
<filter id="filter0_d_330_341" x="0" y="38" width="309" height="325" filterUnits="userSpaceOnUse" color-interpolation-filters="sRGB">
<feFlood flood-opacity="0" result="BackgroundImageFix"/>
<feColorMatrix in="SourceAlpha" type="matrix" values="0 0 0 0 0 0 0 0 0 0 0 0 0 0 0 0 0 0 127 0" result="hardAlpha"/>
<feOffset dy="5"/>
<feGaussianBlur stdDeviation="5"/>
<feColorMatrix type="matrix" values="0 0 0 0 0.117647 0 0 0 0 0.584314 0 0 0 0 0.607843 0 0 0 0.5 0"/>
<feBlend mode="normal" in2="BackgroundImageFix" result="effect1_dropShadow_330_341"/>
<feBlend mode="normal" in="SourceGraphic" in2="effect1_dropShadow_330_341" result="shape"/>
</filter>
<filter id="filter1_d_330_341" x="41" y="261" width="226.582" height="82.0632" filterUnits="userSpaceOnUse" color-interpolation-filters="sRGB">
<feFlood flood-opacity="0" result="BackgroundImageFix"/>
<feColorMatrix in="SourceAlpha" type="matrix" values="0 0 0 0 0 0 0 0 0 0 0 0 0 0 0 0 0 0 127 0" result="hardAlpha"/>
<feOffset dy="5"/>
<feGaussianBlur stdDeviation="5"/>
<feColorMatrix type="matrix" values="0 0 0 0 0.117647 0 0 0 0 0.584314 0 0 0 0 0.607843 0 0 0 0.5 0"/>
<feBlend mode="normal" in2="BackgroundImageFix" result="effect1_dropShadow_330_341"/>
<feBlend mode="normal" in="SourceGraphic" in2="effect1_dropShadow_330_341" result="shape"/>
</filter>
<linearGradient id="paint0_linear_330_341" x1="154.5" y1="43" x2="154.5" y2="348" gradientUnits="userSpaceOnUse">
<stop stop-color="white"/>
<stop offset="1" stop-color="#F7F9FD"/>
</linearGradient>
</defs>
</svg>
