<svg width="195" height="164" viewBox="0 0 195 164" fill="none" xmlns="http://www.w3.org/2000/svg">
<g filter="url(#filter0_i_120_1250)">
<rect width="195" height="164" rx="25" fill="url(#paint0_linear_120_1250)"/>
</g>
<path d="M23.4452 130.2H30.4452V140H29.4652V131.124H24.4252V140H23.4452V130.2ZM32.6874 130.2H36.1874C37.0647 130.2 37.7974 130.494 38.3854 131.082C38.9734 131.67 39.2674 132.403 39.2674 133.28C39.2674 134.157 38.9734 134.89 38.3854 135.478C37.7974 136.066 37.0647 136.36 36.1874 136.36H33.6674V140H32.6874V130.2ZM33.6674 135.436H36.1874C36.794 135.436 37.2934 135.235 37.6854 134.834C38.0867 134.433 38.2874 133.915 38.2874 133.28C38.2874 132.655 38.0867 132.141 37.6854 131.74C37.2934 131.329 36.794 131.124 36.1874 131.124H33.6674V135.436ZM48.9828 138.698C48.0028 139.678 46.8035 140.168 45.3848 140.168C43.9662 140.168 42.7668 139.678 41.7868 138.698C40.8068 137.699 40.3168 136.5 40.3168 135.1C40.3168 133.691 40.8068 132.496 41.7868 131.516C42.7668 130.527 43.9662 130.032 45.3848 130.032C46.8035 130.032 48.0028 130.527 48.9828 131.516C49.9628 132.496 50.4528 133.691 50.4528 135.1C50.4528 136.5 49.9628 137.699 48.9828 138.698ZM41.2968 135.1C41.2968 136.257 41.6888 137.233 42.4728 138.026C43.2568 138.819 44.2275 139.216 45.3848 139.216C46.5422 139.216 47.5128 138.819 48.2968 138.026C49.0808 137.233 49.4728 136.257 49.4728 135.1C49.4728 133.952 49.0808 132.981 48.2968 132.188C47.5128 131.385 46.5422 130.984 45.3848 130.984C44.2275 130.984 43.2568 131.385 42.4728 132.188C41.6888 132.981 41.2968 133.952 41.2968 135.1ZM57.5608 134.918C58.0461 135.123 58.4288 135.436 58.7088 135.856C58.9888 136.276 59.1288 136.747 59.1288 137.27C59.1288 138.026 58.8628 138.67 58.3308 139.202C57.7988 139.734 57.1548 140 56.3988 140H52.1288V130.2H56.0768C56.7955 130.2 57.4161 130.461 57.9388 130.984C58.4521 131.497 58.7088 132.113 58.7088 132.832C58.7088 133.747 58.3261 134.442 57.5608 134.918ZM56.0768 131.124H53.1088V134.54H56.0768C56.5248 134.54 56.9121 134.377 57.2388 134.05C57.5655 133.705 57.7288 133.299 57.7288 132.832C57.7288 132.375 57.5655 131.973 57.2388 131.628C56.9121 131.292 56.5248 131.124 56.0768 131.124ZM53.1088 139.076H56.3988C56.8841 139.076 57.2948 138.903 57.6308 138.558C57.9761 138.213 58.1488 137.783 58.1488 137.27C58.1488 136.766 57.9761 136.341 57.6308 135.996C57.2948 135.641 56.8841 135.464 56.3988 135.464H53.1088V139.076ZM61.7904 135.52V139.076H66.5504V140H60.8104V130.2H66.4804V131.124H61.7904V134.596H66.1304V135.52H61.7904ZM75.2343 130.2V139.076H76.2843V141.876H75.3043V140H68.3043V141.876H67.3243V139.076H68.1223C68.7663 138.32 69.0883 137.153 69.0883 135.576V130.2H75.2343ZM69.2843 139.076H74.2543V131.124H70.0683V135.604C70.0683 137.144 69.8069 138.301 69.2843 139.076ZM80.0423 128.52C80.0423 128.697 79.9816 128.847 79.8603 128.968C79.7389 129.089 79.5896 129.15 79.4123 129.15C79.2349 129.15 79.0856 129.089 78.9643 128.968C78.8429 128.847 78.7823 128.697 78.7823 128.52C78.7823 128.343 78.8429 128.193 78.9643 128.072C79.0856 127.951 79.2349 127.89 79.4123 127.89C79.5896 127.89 79.7389 127.951 79.8603 128.072C79.9816 128.193 80.0423 128.343 80.0423 128.52ZM82.7023 128.52C82.7023 128.697 82.6416 128.847 82.5203 128.968C82.3989 129.089 82.2496 129.15 82.0723 129.15C81.8949 129.15 81.7456 129.089 81.6243 128.968C81.5029 128.847 81.4423 128.697 81.4423 128.52C81.4423 128.343 81.5029 128.193 81.6243 128.072C81.7456 127.951 81.8949 127.89 82.0723 127.89C82.2496 127.89 82.3989 127.951 82.5203 128.072C82.6416 128.193 82.7023 128.343 82.7023 128.52ZM78.8803 135.52V139.076H83.6403V140H77.9003V130.2H83.5703V131.124H78.8803V134.596H83.2203V135.52H78.8803ZM93.0661 130.2H94.2841V140H93.3041V131.684L89.8741 137.424H89.7341L86.3041 131.684V140H85.3241V130.2H86.5421L89.8041 135.66L93.0661 130.2ZM107.301 140H106.321V132.02L100.861 140H100.021V130.2H101.001V138.18L106.461 130.2H107.301V140ZM115.837 134.498V130.2H116.817V140H115.837V135.422H110.517V140H109.537V130.2H110.517V134.498H115.837ZM118.213 130.2H125.213V131.124H122.203V140H121.223V131.124H118.213V130.2ZM127.593 135.52V139.076H132.353V140H126.613V130.2H132.283V131.124H127.593V134.596H131.933V135.52H127.593ZM134.037 130.2H137.537C138.414 130.2 139.147 130.494 139.735 131.082C140.323 131.67 140.617 132.403 140.617 133.28C140.617 134.157 140.323 134.89 139.735 135.478C139.147 136.066 138.414 136.36 137.537 136.36H135.017V140H134.037V130.2ZM135.017 135.436H137.537C138.144 135.436 138.643 135.235 139.035 134.834C139.436 134.433 139.637 133.915 139.637 133.28C139.637 132.655 139.436 132.141 139.035 131.74C138.643 131.329 138.144 131.124 137.537 131.124H135.017V135.436ZM147.727 134.918C148.212 135.123 148.595 135.436 148.875 135.856C149.155 136.276 149.295 136.747 149.295 137.27C149.295 138.026 149.029 138.67 148.497 139.202C147.965 139.734 147.321 140 146.565 140H142.295V130.2H146.243C146.961 130.2 147.582 130.461 148.105 130.984C148.618 131.497 148.875 132.113 148.875 132.832C148.875 133.747 148.492 134.442 147.727 134.918ZM146.243 131.124H143.275V134.54H146.243C146.691 134.54 147.078 134.377 147.405 134.05C147.731 133.705 147.895 133.299 147.895 132.832C147.895 132.375 147.731 131.973 147.405 131.628C147.078 131.292 146.691 131.124 146.243 131.124ZM143.275 139.076H146.565C147.05 139.076 147.461 138.903 147.797 138.558C148.142 138.213 148.315 137.783 148.315 137.27C148.315 136.766 148.142 136.341 147.797 135.996C147.461 135.641 147.05 135.464 146.565 135.464H143.275V139.076ZM151.956 133.84H154.476C155.354 133.84 156.086 134.134 156.674 134.722C157.262 135.31 157.556 136.043 157.556 136.92C157.556 137.797 157.262 138.53 156.674 139.118C156.086 139.706 155.354 140 154.476 140H150.976V130.2H151.956V133.84ZM151.956 139.076H154.476C155.083 139.076 155.582 138.875 155.974 138.474C156.376 138.073 156.576 137.555 156.576 136.92C156.576 136.295 156.376 135.781 155.974 135.38C155.582 134.969 155.083 134.764 154.476 134.764H151.956V139.076ZM167.046 130.032C168.465 130.032 169.664 130.527 170.644 131.516C171.624 132.496 172.114 133.691 172.114 135.1C172.114 136.5 171.624 137.699 170.644 138.698C169.664 139.678 168.465 140.168 167.046 140.168C165.693 140.168 164.536 139.711 163.574 138.796C162.632 137.881 162.123 136.757 162.048 135.422H160.214V140H159.234V130.2H160.214V134.498H162.062C162.221 133.21 162.762 132.146 163.686 131.306C164.62 130.457 165.74 130.032 167.046 130.032ZM162.958 135.1C162.958 136.257 163.35 137.233 164.134 138.026C164.918 138.819 165.889 139.216 167.046 139.216C168.204 139.216 169.174 138.819 169.958 138.026C170.742 137.233 171.134 136.257 171.134 135.1C171.134 133.952 170.742 132.981 169.958 132.188C169.174 131.385 168.204 130.984 167.046 130.984C165.889 130.984 164.918 131.385 164.134 132.188C163.35 132.981 162.958 133.952 162.958 135.1Z" fill="black"/>
<path d="M23.4452 130.2H30.4452V140H29.4652V131.124H24.4252V140H23.4452V130.2ZM32.6874 130.2H36.1874C37.0647 130.2 37.7974 130.494 38.3854 131.082C38.9734 131.67 39.2674 132.403 39.2674 133.28C39.2674 134.157 38.9734 134.89 38.3854 135.478C37.7974 136.066 37.0647 136.36 36.1874 136.36H33.6674V140H32.6874V130.2ZM33.6674 135.436H36.1874C36.794 135.436 37.2934 135.235 37.6854 134.834C38.0867 134.433 38.2874 133.915 38.2874 133.28C38.2874 132.655 38.0867 132.141 37.6854 131.74C37.2934 131.329 36.794 131.124 36.1874 131.124H33.6674V135.436ZM48.9828 138.698C48.0028 139.678 46.8035 140.168 45.3848 140.168C43.9662 140.168 42.7668 139.678 41.7868 138.698C40.8068 137.699 40.3168 136.5 40.3168 135.1C40.3168 133.691 40.8068 132.496 41.7868 131.516C42.7668 130.527 43.9662 130.032 45.3848 130.032C46.8035 130.032 48.0028 130.527 48.9828 131.516C49.9628 132.496 50.4528 133.691 50.4528 135.1C50.4528 136.5 49.9628 137.699 48.9828 138.698ZM41.2968 135.1C41.2968 136.257 41.6888 137.233 42.4728 138.026C43.2568 138.819 44.2275 139.216 45.3848 139.216C46.5422 139.216 47.5128 138.819 48.2968 138.026C49.0808 137.233 49.4728 136.257 49.4728 135.1C49.4728 133.952 49.0808 132.981 48.2968 132.188C47.5128 131.385 46.5422 130.984 45.3848 130.984C44.2275 130.984 43.2568 131.385 42.4728 132.188C41.6888 132.981 41.2968 133.952 41.2968 135.1ZM57.5608 134.918C58.0461 135.123 58.4288 135.436 58.7088 135.856C58.9888 136.276 59.1288 136.747 59.1288 137.27C59.1288 138.026 58.8628 138.67 58.3308 139.202C57.7988 139.734 57.1548 140 56.3988 140H52.1288V130.2H56.0768C56.7955 130.2 57.4161 130.461 57.9388 130.984C58.4521 131.497 58.7088 132.113 58.7088 132.832C58.7088 133.747 58.3261 134.442 57.5608 134.918ZM56.0768 131.124H53.1088V134.54H56.0768C56.5248 134.54 56.9121 134.377 57.2388 134.05C57.5655 133.705 57.7288 133.299 57.7288 132.832C57.7288 132.375 57.5655 131.973 57.2388 131.628C56.9121 131.292 56.5248 131.124 56.0768 131.124ZM53.1088 139.076H56.3988C56.8841 139.076 57.2948 138.903 57.6308 138.558C57.9761 138.213 58.1488 137.783 58.1488 137.27C58.1488 136.766 57.9761 136.341 57.6308 135.996C57.2948 135.641 56.8841 135.464 56.3988 135.464H53.1088V139.076ZM61.7904 135.52V139.076H66.5504V140H60.8104V130.2H66.4804V131.124H61.7904V134.596H66.1304V135.52H61.7904ZM75.2343 130.2V139.076H76.2843V141.876H75.3043V140H68.3043V141.876H67.3243V139.076H68.1223C68.7663 138.32 69.0883 137.153 69.0883 135.576V130.2H75.2343ZM69.2843 139.076H74.2543V131.124H70.0683V135.604C70.0683 137.144 69.8069 138.301 69.2843 139.076ZM80.0423 128.52C80.0423 128.697 79.9816 128.847 79.8603 128.968C79.7389 129.089 79.5896 129.15 79.4123 129.15C79.2349 129.15 79.0856 129.089 78.9643 128.968C78.8429 128.847 78.7823 128.697 78.7823 128.52C78.7823 128.343 78.8429 128.193 78.9643 128.072C79.0856 127.951 79.2349 127.89 79.4123 127.89C79.5896 127.89 79.7389 127.951 79.8603 128.072C79.9816 128.193 80.0423 128.343 80.0423 128.52ZM82.7023 128.52C82.7023 128.697 82.6416 128.847 82.5203 128.968C82.3989 129.089 82.2496 129.15 82.0723 129.15C81.8949 129.15 81.7456 129.089 81.6243 128.968C81.5029 128.847 81.4423 128.697 81.4423 128.52C81.4423 128.343 81.5029 128.193 81.6243 128.072C81.7456 127.951 81.8949 127.89 82.0723 127.89C82.2496 127.89 82.3989 127.951 82.5203 128.072C82.6416 128.193 82.7023 128.343 82.7023 128.52ZM78.8803 135.52V139.076H83.6403V140H77.9003V130.2H83.5703V131.124H78.8803V134.596H83.2203V135.52H78.8803ZM93.0661 130.2H94.2841V140H93.3041V131.684L89.8741 137.424H89.7341L86.3041 131.684V140H85.3241V130.2H86.5421L89.8041 135.66L93.0661 130.2ZM107.301 140H106.321V132.02L100.861 140H100.021V130.2H101.001V138.18L106.461 130.2H107.301V140ZM115.837 134.498V130.2H116.817V140H115.837V135.422H110.517V140H109.537V130.2H110.517V134.498H115.837ZM118.213 130.2H125.213V131.124H122.203V140H121.223V131.124H118.213V130.2ZM127.593 135.52V139.076H132.353V140H126.613V130.2H132.283V131.124H127.593V134.596H131.933V135.52H127.593ZM134.037 130.2H137.537C138.414 130.2 139.147 130.494 139.735 131.082C140.323 131.67 140.617 132.403 140.617 133.28C140.617 134.157 140.323 134.89 139.735 135.478C139.147 136.066 138.414 136.36 137.537 136.36H135.017V140H134.037V130.2ZM135.017 135.436H137.537C138.144 135.436 138.643 135.235 139.035 134.834C139.436 134.433 139.637 133.915 139.637 133.28C139.637 132.655 139.436 132.141 139.035 131.74C138.643 131.329 138.144 131.124 137.537 131.124H135.017V135.436ZM147.727 134.918C148.212 135.123 148.595 135.436 148.875 135.856C149.155 136.276 149.295 136.747 149.295 137.27C149.295 138.026 149.029 138.67 148.497 139.202C147.965 139.734 147.321 140 146.565 140H142.295V130.2H146.243C146.961 130.2 147.582 130.461 148.105 130.984C148.618 131.497 148.875 132.113 148.875 132.832C148.875 133.747 148.492 134.442 147.727 134.918ZM146.243 131.124H143.275V134.54H146.243C146.691 134.54 147.078 134.377 147.405 134.05C147.731 133.705 147.895 133.299 147.895 132.832C147.895 132.375 147.731 131.973 147.405 131.628C147.078 131.292 146.691 131.124 146.243 131.124ZM143.275 139.076H146.565C147.05 139.076 147.461 138.903 147.797 138.558C148.142 138.213 148.315 137.783 148.315 137.27C148.315 136.766 148.142 136.341 147.797 135.996C147.461 135.641 147.05 135.464 146.565 135.464H143.275V139.076ZM151.956 133.84H154.476C155.354 133.84 156.086 134.134 156.674 134.722C157.262 135.31 157.556 136.043 157.556 136.92C157.556 137.797 157.262 138.53 156.674 139.118C156.086 139.706 155.354 140 154.476 140H150.976V130.2H151.956V133.84ZM151.956 139.076H154.476C155.083 139.076 155.582 138.875 155.974 138.474C156.376 138.073 156.576 137.555 156.576 136.92C156.576 136.295 156.376 135.781 155.974 135.38C155.582 134.969 155.083 134.764 154.476 134.764H151.956V139.076ZM167.046 130.032C168.465 130.032 169.664 130.527 170.644 131.516C171.624 132.496 172.114 133.691 172.114 135.1C172.114 136.5 171.624 137.699 170.644 138.698C169.664 139.678 168.465 140.168 167.046 140.168C165.693 140.168 164.536 139.711 163.574 138.796C162.632 137.881 162.123 136.757 162.048 135.422H160.214V140H159.234V130.2H160.214V134.498H162.062C162.221 133.21 162.762 132.146 163.686 131.306C164.62 130.457 165.74 130.032 167.046 130.032ZM162.958 135.1C162.958 136.257 163.35 137.233 164.134 138.026C164.918 138.819 165.889 139.216 167.046 139.216C168.204 139.216 169.174 138.819 169.958 138.026C170.742 137.233 171.134 136.257 171.134 135.1C171.134 133.952 170.742 132.981 169.958 132.188C169.174 131.385 168.204 130.984 167.046 130.984C165.889 130.984 164.918 131.385 164.134 132.188C163.35 132.981 162.958 133.952 162.958 135.1Z" fill="#3C3C3C"/>
<g clip-path="url(#clip0_120_1250)">
<path d="M90.2699 64.5328C90.0316 64.5328 89.7923 64.4783 89.5712 64.3678C89.0418 64.1031 88.7076 63.5621 88.7076 62.9703V59.6864H86.822C85.0516 59.6864 83.6113 58.2463 83.6113 56.476V39.3835C83.6113 37.6128 85.052 36.1724 86.8226 36.1724H134.789C136.56 36.1724 138 37.6128 138 39.3835V56.4761C138 58.2464 136.56 59.6866 134.789 59.6866H97.254L91.2076 64.2206C90.932 64.4271 90.6018 64.5328 90.2699 64.5328ZM86.8226 39.2974C86.7749 39.2974 86.7363 39.336 86.7363 39.3835V56.4761C86.7363 56.5233 86.7748 56.5616 86.822 56.5616H90.2701C91.1329 56.5616 91.8326 57.2611 91.8326 58.1241V59.8456L95.7957 56.8738C96.066 56.671 96.3951 56.5614 96.733 56.5614H134.789C134.836 56.5614 134.875 56.5231 134.875 56.476V39.3835C134.875 39.336 134.836 39.2974 134.789 39.2974H86.8226Z" fill="#1E959B"/>
<path d="M126.795 45.3521H94.8169C93.9541 45.3521 93.2544 44.6524 93.2544 43.7896C93.2544 42.9267 93.9541 42.2271 94.8169 42.2271H126.795C127.658 42.2271 128.357 42.9267 128.357 43.7896C128.357 44.6525 127.658 45.3521 126.795 45.3521Z" fill="#1E959B"/>
<path d="M126.795 52.6969H121.167C120.304 52.6969 119.604 51.9972 119.604 51.1344C119.604 50.2714 120.304 49.5719 121.167 49.5719H126.795C127.657 49.5719 128.357 50.2714 128.357 51.1344C128.357 51.9972 127.658 52.6969 126.795 52.6969Z" fill="#1E959B"/>
<path d="M113.355 52.6969C112.702 52.6969 112.104 52.2736 111.884 51.66C111.667 51.0547 111.854 50.3589 112.344 49.9435C112.856 49.5105 113.61 49.4538 114.18 49.8078C114.725 50.1469 115.013 50.8091 114.886 51.4391C114.741 52.1602 114.092 52.6969 113.355 52.6969Z" fill="#1E959B"/>
<path d="M105.698 52.6969H94.8169C93.9541 52.6969 93.2544 51.9972 93.2544 51.1344C93.2544 50.2714 93.9541 49.5719 94.8169 49.5719H105.698C106.561 49.5719 107.261 50.2714 107.261 51.1344C107.261 51.9972 106.561 52.6969 105.698 52.6969Z" fill="#1E959B"/>
<path d="M69.68 46.7173C64.2439 46.7173 59.8213 42.2947 59.8213 36.8586C59.8213 31.4225 64.2439 27 69.68 27C75.1163 27 79.539 31.4227 79.539 36.8588C79.539 42.2948 75.1163 46.7173 69.68 46.7173ZM69.68 30.125C65.9671 30.125 62.9463 33.1458 62.9463 36.8588C62.9463 40.5717 65.9671 43.5925 69.68 43.5925C73.3932 43.5925 76.4139 40.5717 76.4139 36.8588C76.4139 33.1458 73.3932 30.125 69.68 30.125Z" fill="#1E959B"/>
<path d="M79.7977 64.5328H59.5625C58.6995 64.5328 58 63.8331 58 62.9703V52.6659C58 50.2794 59.9417 48.3376 62.3283 48.3376H77.0319C79.4184 48.3376 81.3602 50.2794 81.3602 52.6659V62.9703C81.3602 63.8331 80.6605 64.5328 79.7977 64.5328ZM61.125 61.4078H78.2352V52.6659C78.2352 52.0025 77.6953 51.4626 77.0319 51.4626H62.3283C61.6648 51.4626 61.125 52.0025 61.125 52.6659V61.4078Z" fill="#1E959B"/>
<path d="M105.73 107C105.398 107 105.068 106.894 104.793 106.688L98.7463 102.154H61.2106C59.4403 102.154 58 100.713 58 98.943V81.8506C58 80.08 59.4405 78.6395 61.2111 78.6395H109.178C110.948 78.6395 112.389 80.08 112.389 81.8506V98.9431C112.389 100.713 110.948 102.154 109.178 102.154H107.292V105.437C107.292 106.029 106.958 106.57 106.429 106.835C106.208 106.945 105.968 107 105.73 107ZM61.2111 81.7645C61.1636 81.7645 61.125 81.8031 61.125 81.8506V98.9431C61.125 98.9903 61.1634 99.0287 61.2106 99.0287H99.267C99.605 99.0287 99.9341 99.1383 100.204 99.3411L104.167 102.313V100.591C104.167 99.7284 104.867 99.0287 105.73 99.0287H109.178C109.225 99.0287 109.264 98.9903 109.264 98.9431V81.8506C109.264 81.8031 109.225 81.7645 109.178 81.7645H61.2111Z" fill="#1E959B"/>
<path d="M101.184 87.8192H69.2061C68.3432 87.8192 67.6436 87.1195 67.6436 86.2567C67.6436 85.3939 68.3431 84.6942 69.2061 84.6942H101.184C102.047 84.6942 102.747 85.3939 102.747 86.2567C102.747 87.1197 102.047 87.8192 101.184 87.8192Z" fill="#1E959B"/>
<path d="M74.8332 95.1639H69.2051C68.3423 95.1639 67.6426 94.4643 67.6426 93.6014C67.6426 92.7386 68.3421 92.0389 69.2051 92.0389H74.8332C75.696 92.0389 76.3957 92.7386 76.3957 93.6014C76.3957 94.4643 75.6962 95.1639 74.8332 95.1639Z" fill="#1E959B"/>
<path d="M82.6454 95.1641C81.9917 95.1641 81.3964 94.7411 81.1759 94.1272C80.9567 93.5169 81.1473 92.8142 81.6472 92.3997C82.1315 91.9981 82.827 91.9289 83.3817 92.224C83.9575 92.5305 84.2864 93.1861 84.1911 93.8306C84.0797 94.5858 83.4089 95.1641 82.6454 95.1641Z" fill="#1E959B"/>
<path d="M101.183 95.1639H90.3018C89.4389 95.1639 88.7393 94.4643 88.7393 93.6014C88.7393 92.7386 89.4389 92.0389 90.3018 92.0389H101.183C102.046 92.0389 102.746 92.7386 102.746 93.6014C102.746 94.4643 102.046 95.1639 101.183 95.1639Z" fill="#1E959B"/>
<path d="M126.32 89.1845C120.884 89.1845 116.461 84.7619 116.461 79.3258C116.461 73.8897 120.884 69.467 126.32 69.467C131.756 69.467 136.179 73.8897 136.179 79.3258C136.179 84.762 131.756 89.1845 126.32 89.1845ZM126.32 72.5922C122.607 72.5922 119.586 75.613 119.586 79.3259C119.586 83.0389 122.607 86.0597 126.32 86.0597C130.033 86.0597 133.054 83.0389 133.054 79.3259C133.054 75.613 130.033 72.5922 126.32 72.5922Z" fill="#1E959B"/>
<path d="M136.437 107H116.202C115.339 107 114.64 106.3 114.64 105.438V95.1331C114.64 92.7466 116.581 90.8049 118.968 90.8049H133.672C136.058 90.8049 138 92.7466 138 95.1331V105.438C138 106.3 137.3 107 136.437 107ZM117.765 103.875H134.875V95.1331C134.875 94.4697 134.335 93.9299 133.672 93.9299H118.968C118.304 93.9299 117.765 94.4697 117.765 95.1331V103.875Z" fill="#1E959B"/>
</g>
<defs>
<filter id="filter0_i_120_1250" x="0" y="0" width="195" height="168" filterUnits="userSpaceOnUse" color-interpolation-filters="sRGB">
<feFlood flood-opacity="0" result="BackgroundImageFix"/>
<feBlend mode="normal" in="SourceGraphic" in2="BackgroundImageFix" result="shape"/>
<feColorMatrix in="SourceAlpha" type="matrix" values="0 0 0 0 0 0 0 0 0 0 0 0 0 0 0 0 0 0 127 0" result="hardAlpha"/>
<feOffset dy="4"/>
<feGaussianBlur stdDeviation="2"/>
<feComposite in2="hardAlpha" operator="arithmetic" k2="-1" k3="1"/>
<feColorMatrix type="matrix" values="0 0 0 0 0.117647 0 0 0 0 0.584314 0 0 0 0 0.607843 0 0 0 0.5 0"/>
<feBlend mode="normal" in2="shape" result="effect1_innerShadow_120_1250"/>
</filter>
<linearGradient id="paint0_linear_120_1250" x1="97.5" y1="0" x2="97.5" y2="164" gradientUnits="userSpaceOnUse">
<stop stop-color="white"/>
<stop offset="1" stop-color="#F7F9FD"/>
</linearGradient>
<clipPath id="clip0_120_1250">
<rect width="80" height="80" fill="white" transform="translate(58 27)"/>
</clipPath>
</defs>
</svg>
