<svg width="203" height="172" viewBox="0 0 203 172" fill="none" xmlns="http://www.w3.org/2000/svg">
<g filter="url(#filter0_d_120_1346)">
<rect x="4" width="195" height="164" rx="25" fill="url(#paint0_linear_120_1346)"/>
</g>
<path d="M39.5363 136.22L42.1123 130.2H43.1203L39.8583 137.858C39.5316 138.642 39.1163 139.207 38.6123 139.552C38.1083 139.897 37.4829 140.047 36.7363 140V139.104C37.2589 139.16 37.6883 139.085 38.0243 138.88C38.3696 138.665 38.6543 138.297 38.8783 137.774L39.0743 137.312L35.7003 130.2H36.7083L39.5363 136.22ZM42.3536 140V139.132C43.0349 139.225 43.5436 139.015 43.8796 138.502C44.2249 137.989 44.3976 137.037 44.3976 135.646V130.2H50.7536V140H49.7736V131.124H45.3776V135.674C45.3776 136.561 45.3076 137.303 45.1676 137.9C45.0276 138.497 44.8176 138.95 44.5376 139.258C44.2669 139.566 43.9542 139.776 43.5996 139.888C43.2542 140 42.8389 140.037 42.3536 140ZM56.1339 136.22L58.7099 130.2H59.7179L56.4559 137.858C56.1293 138.642 55.7139 139.207 55.2099 139.552C54.7059 139.897 54.0806 140.047 53.3339 140V139.104C53.8566 139.16 54.2859 139.085 54.6219 138.88C54.9673 138.665 55.2519 138.297 55.4759 137.774L55.6719 137.312L52.2979 130.2H53.3059L56.1339 136.22ZM66.5123 134.946V130.2H67.4923V140H66.5123V135.87C65.663 136.29 64.7763 136.5 63.8523 136.5C62.9283 136.5 62.1816 136.239 61.6123 135.716C61.0523 135.193 60.7723 134.521 60.7723 133.7V130.2H61.7523V133.7C61.7523 134.269 61.939 134.727 62.3123 135.072C62.6856 135.408 63.199 135.576 63.8523 135.576C64.7763 135.576 65.663 135.366 66.5123 134.946ZM79.8123 139.076V130.2H80.7923V140H69.7323V130.2H70.7123V139.076H74.7723V130.2H75.7523V139.076H79.8123ZM90.315 140H89.335V132.02L83.875 140H83.035V130.2H84.015V138.18L89.475 130.2H90.315V140ZM100.293 130.2H101.511V140H100.531V131.684L97.1007 137.424H96.9607L93.5307 131.684V140H92.5507V130.2H93.7687L97.0307 135.66L100.293 130.2ZM114.99 130.2H116.208V140H115.228V131.684L111.798 137.424H111.658L108.228 131.684V140H107.248V130.2H108.466L111.728 135.66L114.99 130.2ZM119.425 135.52V139.076H124.185V140H118.445V130.2H124.115V131.124H119.425V134.596H123.765V135.52H119.425ZM125.029 130.2H132.029V131.124H129.019V140H128.039V131.124H125.029V130.2ZM133.43 130.2H136.93C137.807 130.2 138.54 130.494 139.128 131.082C139.716 131.67 140.01 132.403 140.01 133.28C140.01 134.157 139.716 134.89 139.128 135.478C138.54 136.066 137.807 136.36 136.93 136.36H134.41V140H133.43V130.2ZM134.41 135.436H136.93C137.536 135.436 138.036 135.235 138.428 134.834C138.829 134.433 139.03 133.915 139.03 133.28C139.03 132.655 138.829 132.141 138.428 131.74C138.036 131.329 137.536 131.124 136.93 131.124H134.41V135.436ZM148.967 140H147.987V132.02L142.527 140H141.687V130.2H142.667V138.18L148.127 130.2H148.967V140ZM153.219 134.96L158.063 140H156.775L152.183 135.254V140H151.203V130.2H152.183V134.68L156.635 130.2H157.923L153.219 134.96ZM166.604 140H165.624V132.02L160.164 140H159.324V130.2H160.304V138.18L165.764 130.2H166.604V140Z" fill="black"/>
<path d="M39.5363 136.22L42.1123 130.2H43.1203L39.8583 137.858C39.5316 138.642 39.1163 139.207 38.6123 139.552C38.1083 139.897 37.4829 140.047 36.7363 140V139.104C37.2589 139.16 37.6883 139.085 38.0243 138.88C38.3696 138.665 38.6543 138.297 38.8783 137.774L39.0743 137.312L35.7003 130.2H36.7083L39.5363 136.22ZM42.3536 140V139.132C43.0349 139.225 43.5436 139.015 43.8796 138.502C44.2249 137.989 44.3976 137.037 44.3976 135.646V130.2H50.7536V140H49.7736V131.124H45.3776V135.674C45.3776 136.561 45.3076 137.303 45.1676 137.9C45.0276 138.497 44.8176 138.95 44.5376 139.258C44.2669 139.566 43.9542 139.776 43.5996 139.888C43.2542 140 42.8389 140.037 42.3536 140ZM56.1339 136.22L58.7099 130.2H59.7179L56.4559 137.858C56.1293 138.642 55.7139 139.207 55.2099 139.552C54.7059 139.897 54.0806 140.047 53.3339 140V139.104C53.8566 139.16 54.2859 139.085 54.6219 138.88C54.9673 138.665 55.2519 138.297 55.4759 137.774L55.6719 137.312L52.2979 130.2H53.3059L56.1339 136.22ZM66.5123 134.946V130.2H67.4923V140H66.5123V135.87C65.663 136.29 64.7763 136.5 63.8523 136.5C62.9283 136.5 62.1816 136.239 61.6123 135.716C61.0523 135.193 60.7723 134.521 60.7723 133.7V130.2H61.7523V133.7C61.7523 134.269 61.939 134.727 62.3123 135.072C62.6856 135.408 63.199 135.576 63.8523 135.576C64.7763 135.576 65.663 135.366 66.5123 134.946ZM79.8123 139.076V130.2H80.7923V140H69.7323V130.2H70.7123V139.076H74.7723V130.2H75.7523V139.076H79.8123ZM90.315 140H89.335V132.02L83.875 140H83.035V130.2H84.015V138.18L89.475 130.2H90.315V140ZM100.293 130.2H101.511V140H100.531V131.684L97.1007 137.424H96.9607L93.5307 131.684V140H92.5507V130.2H93.7687L97.0307 135.66L100.293 130.2ZM114.99 130.2H116.208V140H115.228V131.684L111.798 137.424H111.658L108.228 131.684V140H107.248V130.2H108.466L111.728 135.66L114.99 130.2ZM119.425 135.52V139.076H124.185V140H118.445V130.2H124.115V131.124H119.425V134.596H123.765V135.52H119.425ZM125.029 130.2H132.029V131.124H129.019V140H128.039V131.124H125.029V130.2ZM133.43 130.2H136.93C137.807 130.2 138.54 130.494 139.128 131.082C139.716 131.67 140.01 132.403 140.01 133.28C140.01 134.157 139.716 134.89 139.128 135.478C138.54 136.066 137.807 136.36 136.93 136.36H134.41V140H133.43V130.2ZM134.41 135.436H136.93C137.536 135.436 138.036 135.235 138.428 134.834C138.829 134.433 139.03 133.915 139.03 133.28C139.03 132.655 138.829 132.141 138.428 131.74C138.036 131.329 137.536 131.124 136.93 131.124H134.41V135.436ZM148.967 140H147.987V132.02L142.527 140H141.687V130.2H142.667V138.18L148.127 130.2H148.967V140ZM153.219 134.96L158.063 140H156.775L152.183 135.254V140H151.203V130.2H152.183V134.68L156.635 130.2H157.923L153.219 134.96ZM166.604 140H165.624V132.02L160.164 140H159.324V130.2H160.304V138.18L165.764 130.2H166.604V140Z" fill="#3C3C3C"/>
<path d="M124.656 27H70.9062C68.3216 27 66.2188 29.1028 66.2188 31.6875V102.312C66.2188 104.897 68.3216 107 70.9062 107H106.219C107.082 107 107.781 106.3 107.781 105.438C107.781 104.575 107.082 103.875 106.219 103.875H70.9062C70.0447 103.875 69.3438 103.174 69.3438 102.312V31.6875C69.3438 30.8259 70.0447 30.125 70.9062 30.125H124.656C125.518 30.125 126.219 30.8259 126.219 31.6875V62.8503C126.219 63.7131 126.918 64.4128 127.781 64.4128C128.644 64.4128 129.344 63.7131 129.344 62.8503V31.6875C129.344 29.1028 127.241 27 124.656 27Z" fill="#1E959B"/>
<path d="M128.886 67.1453C128.595 66.8545 128.192 66.6875 127.781 66.6875C127.37 66.6875 126.967 66.8545 126.677 67.1453C126.386 67.4361 126.219 67.8391 126.219 68.25C126.219 68.6609 126.386 69.0641 126.677 69.3545C126.967 69.6452 127.37 69.8125 127.781 69.8125C128.192 69.8125 128.595 69.6453 128.886 69.3545C129.177 69.0641 129.344 68.6609 129.344 68.25C129.344 67.8391 129.177 67.4359 128.886 67.1453Z" fill="#1E959B"/>
<path d="M77.0108 35.8953C76.7203 35.6045 76.3172 35.4375 75.9062 35.4375C75.4953 35.4375 75.0922 35.6045 74.8016 35.8953C74.5109 36.1861 74.3438 36.5891 74.3438 37C74.3438 37.4109 74.5108 37.8141 74.8016 38.1045C75.0922 38.3953 75.4953 38.5625 75.9062 38.5625C76.3172 38.5625 76.7203 38.3953 77.0108 38.1045C77.3016 37.8141 77.4688 37.4109 77.4688 37C77.4688 36.5891 77.3016 36.1859 77.0108 35.8953Z" fill="#1E959B"/>
<path d="M119.656 45.4375C118.793 45.4375 118.094 46.1372 118.094 47V65.4375H112.469V46.5991L120.862 38.2058C121.472 37.5956 121.472 36.6063 120.862 35.996C120.252 35.386 119.263 35.386 118.652 35.996L102.163 52.4855L92.6198 42.9427C92.0095 42.3327 91.0205 42.3327 90.41 42.9427L77.4688 55.8839V43.2977C77.4688 42.4349 76.7691 41.7352 75.9062 41.7352C75.0434 41.7352 74.3438 42.4349 74.3438 43.2977V67C74.3438 67.8628 75.0434 68.5625 75.9062 68.5625H119.656C120.519 68.5625 121.219 67.8628 121.219 67V47C121.219 46.1372 120.519 45.4375 119.656 45.4375ZM83.0938 65.4375H77.4688V60.3036L83.0938 54.6786V65.4375ZM91.8438 65.4375H86.2188V51.5535L91.515 46.2572L91.8438 46.586V65.4375ZM100.594 65.4375H94.9688V49.7111L100.594 55.3361V65.4375ZM109.344 65.4375H103.719V55.3492L109.344 49.7242V65.4375Z" fill="#1E959B"/>
<path d="M90.125 72.9375H75.9062C75.0434 72.9375 74.3438 73.6372 74.3438 74.5C74.3438 75.3628 75.0434 76.0625 75.9062 76.0625H90.125C90.9878 76.0625 91.6875 75.3628 91.6875 74.5C91.6875 73.6372 90.9878 72.9375 90.125 72.9375Z" fill="#1E959B"/>
<path d="M90.125 80.4375H75.9062C75.0434 80.4375 74.3438 81.1372 74.3438 82C74.3438 82.8628 75.0434 83.5625 75.9062 83.5625H90.125C90.9878 83.5625 91.6875 82.8628 91.6875 82C91.6875 81.1372 90.9878 80.4375 90.125 80.4375Z" fill="#1E959B"/>
<path d="M90.125 87.9375H75.9062C75.0434 87.9375 74.3438 88.6372 74.3438 89.5C74.3438 90.3628 75.0434 91.0625 75.9062 91.0625H90.125C90.9878 91.0625 91.6875 90.3628 91.6875 89.5C91.6875 88.6372 90.9878 87.9375 90.125 87.9375Z" fill="#1E959B"/>
<path d="M90.125 95.4375H75.9062C75.0434 95.4375 74.3438 96.1372 74.3438 97C74.3438 97.8628 75.0434 98.5625 75.9062 98.5625H90.125C90.9878 98.5625 91.6875 97.8628 91.6875 97C91.6875 96.1372 90.9878 95.4375 90.125 95.4375Z" fill="#1E959B"/>
<path d="M121.219 73.875C117.214 73.875 113.537 75.3041 110.67 77.6786L110.646 77.6547V74.296C110.646 73.4331 109.946 72.7335 109.083 72.7335C108.22 72.7335 107.521 73.4331 107.521 74.296V74.5297L106.182 73.1911C105.572 72.5811 104.583 72.5811 103.972 73.1911C103.362 73.8013 103.362 74.7906 103.972 75.401L105.311 76.7396H105.077C104.214 76.7396 103.515 77.4392 103.515 78.3021C103.515 79.1649 104.214 79.8646 105.077 79.8646H108.436L108.46 79.8885C106.085 82.7555 104.656 86.4327 104.656 90.4375C104.656 99.57 112.086 107 121.219 107C130.351 107 137.781 99.57 137.781 90.4375C137.781 81.305 130.351 73.875 121.219 73.875ZM121.219 103.875C113.809 103.875 107.781 97.8471 107.781 90.4375C107.781 87.2947 108.869 84.4028 110.683 82.1117L112.91 84.3385C111.652 86.0478 110.906 88.1569 110.906 90.4375C110.906 96.1239 115.532 100.75 121.219 100.75C126.905 100.75 131.531 96.1239 131.531 90.4375C131.531 84.7511 126.905 80.125 121.219 80.125C118.938 80.125 116.829 80.8705 115.12 82.1286L112.893 79.9019C115.184 78.0874 118.076 77 121.219 77C128.628 77 134.656 83.028 134.656 90.4375C134.656 97.8471 128.628 103.875 121.219 103.875ZM121.219 95.125C123.803 95.125 125.906 93.0222 125.906 90.4375C125.906 87.8528 123.803 85.75 121.219 85.75C120.496 85.75 119.811 85.9147 119.199 86.2081L117.366 84.3749C118.48 83.6639 119.802 83.25 121.219 83.25C125.182 83.25 128.406 86.4744 128.406 90.4375C128.406 94.4006 125.182 97.625 121.219 97.625C117.256 97.625 114.031 94.4006 114.031 90.4375C114.031 89.0205 114.445 87.6991 115.156 86.5846L116.989 88.4178C116.696 89.0299 116.531 89.7147 116.531 90.4375C116.531 93.0222 118.634 95.125 121.219 95.125ZM121.315 88.8799C122.132 88.93 122.781 89.6085 122.781 90.4375C122.781 91.2991 122.08 92 121.219 92C120.39 92 119.711 91.3505 119.661 90.5338C119.693 90.5358 119.725 90.5385 119.757 90.5385C120.157 90.5385 120.557 90.3858 120.862 90.0808C121.192 89.7513 121.341 89.3113 121.315 88.8799Z" fill="#1E959B"/>
<defs>
<filter id="filter0_d_120_1346" x="0" y="0" width="203" height="172" filterUnits="userSpaceOnUse" color-interpolation-filters="sRGB">
<feFlood flood-opacity="0" result="BackgroundImageFix"/>
<feColorMatrix in="SourceAlpha" type="matrix" values="0 0 0 0 0 0 0 0 0 0 0 0 0 0 0 0 0 0 127 0" result="hardAlpha"/>
<feOffset dy="4"/>
<feGaussianBlur stdDeviation="2"/>
<feColorMatrix type="matrix" values="0 0 0 0 0.117647 0 0 0 0 0.584314 0 0 0 0 0.607843 0 0 0 0.5 0"/>
<feBlend mode="normal" in2="BackgroundImageFix" result="effect1_dropShadow_120_1346"/>
<feBlend mode="normal" in="SourceGraphic" in2="effect1_dropShadow_120_1346" result="shape"/>
</filter>
<linearGradient id="paint0_linear_120_1346" x1="101.5" y1="0" x2="101.5" y2="164" gradientUnits="userSpaceOnUse">
<stop stop-color="white"/>
<stop offset="1" stop-color="#F7F9FD"/>
</linearGradient>
</defs>
</svg>
