<svg width="203" height="172" viewBox="0 0 203 172" fill="none" xmlns="http://www.w3.org/2000/svg">
<g filter="url(#filter0_d_120_1311)">
<rect x="4" width="195" height="164" rx="25" fill="url(#paint0_linear_120_1311)"/>
</g>
<path d="M48.7654 140.168C47.272 140.168 46.0447 139.678 45.0834 138.698C44.1127 137.709 43.6274 136.509 43.6274 135.1C43.6274 133.691 44.1127 132.491 45.0834 131.502C46.0447 130.522 47.272 130.032 48.7654 130.032C49.6614 130.032 50.4874 130.251 51.2434 130.69C51.9994 131.119 52.5874 131.703 53.0074 132.44L52.1394 132.944C51.8314 132.347 51.374 131.871 50.7674 131.516C50.1607 131.161 49.4934 130.984 48.7654 130.984C47.5334 130.984 46.5347 131.381 45.7694 132.174C44.9947 132.977 44.6074 133.952 44.6074 135.1C44.6074 136.248 44.9947 137.223 45.7694 138.026C46.5347 138.819 47.5334 139.216 48.7654 139.216C49.4934 139.216 50.1607 139.039 50.7674 138.684C51.374 138.329 51.8314 137.853 52.1394 137.256L53.0074 137.746C52.6061 138.483 52.0227 139.071 51.2574 139.51C50.492 139.949 49.6614 140.168 48.7654 140.168ZM62.725 138.698C61.745 139.678 60.5457 140.168 59.127 140.168C57.7084 140.168 56.509 139.678 55.529 138.698C54.549 137.699 54.059 136.5 54.059 135.1C54.059 133.691 54.549 132.496 55.529 131.516C56.509 130.527 57.7084 130.032 59.127 130.032C60.5457 130.032 61.745 130.527 62.725 131.516C63.705 132.496 64.195 133.691 64.195 135.1C64.195 136.5 63.705 137.699 62.725 138.698ZM55.039 135.1C55.039 136.257 55.431 137.233 56.215 138.026C56.999 138.819 57.9697 139.216 59.127 139.216C60.2844 139.216 61.255 138.819 62.039 138.026C62.823 137.233 63.215 136.257 63.215 135.1C63.215 133.952 62.823 132.981 62.039 132.188C61.255 131.385 60.2844 130.984 59.127 130.984C57.9697 130.984 56.999 131.385 56.215 132.188C55.431 132.981 55.039 133.952 55.039 135.1ZM70.449 140.168C68.9556 140.168 67.7283 139.678 66.767 138.698C65.7963 137.709 65.311 136.509 65.311 135.1C65.311 133.691 65.7963 132.491 66.767 131.502C67.7283 130.522 68.9556 130.032 70.449 130.032C71.345 130.032 72.171 130.251 72.927 130.69C73.683 131.119 74.271 131.703 74.691 132.44L73.823 132.944C73.515 132.347 73.0576 131.871 72.451 131.516C71.8443 131.161 71.177 130.984 70.449 130.984C69.217 130.984 68.2183 131.381 67.453 132.174C66.6783 132.977 66.291 133.952 66.291 135.1C66.291 136.248 66.6783 137.223 67.453 138.026C68.2183 138.819 69.217 139.216 70.449 139.216C71.177 139.216 71.8443 139.039 72.451 138.684C73.0576 138.329 73.515 137.853 73.823 137.256L74.691 137.746C74.2896 138.483 73.7063 139.071 72.941 139.51C72.1756 139.949 71.345 140.168 70.449 140.168ZM75.3259 130.2H82.3259V131.124H79.3159V140H78.3359V131.124H75.3259V130.2ZM90.5892 140H89.5532L88.6432 137.592H83.9952L83.0852 140H82.0492L85.8152 130.2H86.8232L90.5892 140ZM86.3192 131.418L84.3452 136.668H88.2932L86.3192 131.418ZM97.2795 134.918C97.7649 135.123 98.1475 135.436 98.4275 135.856C98.7075 136.276 98.8475 136.747 98.8475 137.27C98.8475 138.026 98.5815 138.67 98.0495 139.202C97.5175 139.734 96.8735 140 96.1175 140H91.8475V130.2H95.7955C96.5142 130.2 97.1349 130.461 97.6575 130.984C98.1709 131.497 98.4275 132.113 98.4275 132.832C98.4275 133.747 98.0449 134.442 97.2795 134.918ZM95.7955 131.124H92.8275V134.54H95.7955C96.2435 134.54 96.6309 134.377 96.9575 134.05C97.2842 133.705 97.4475 133.299 97.4475 132.832C97.4475 132.375 97.2842 131.973 96.9575 131.628C96.6309 131.292 96.2435 131.124 95.7955 131.124ZM92.8275 139.076H96.1175C96.6029 139.076 97.0135 138.903 97.3495 138.558C97.6949 138.213 97.8675 137.783 97.8675 137.27C97.8675 136.766 97.6949 136.341 97.3495 135.996C97.0135 135.641 96.6029 135.464 96.1175 135.464H92.8275V139.076ZM107.809 140H106.829V132.02L101.369 140H100.529V130.2H101.509V138.18L106.969 130.2H107.809V140ZM117.787 130.2H119.005V140H118.025V131.684L114.595 137.424H114.455L111.025 131.684V140H110.045V130.2H111.263L114.525 135.66L117.787 130.2ZM124.742 130.2H131.742V140H130.762V131.124H125.722V140H124.742V130.2ZM133.074 140V139.132C133.756 139.225 134.264 139.015 134.6 138.502C134.946 137.989 135.118 137.037 135.118 135.646V130.2H141.474V140H140.494V131.124H136.098V135.674C136.098 136.561 136.028 137.303 135.888 137.9C135.748 138.497 135.538 138.95 135.258 139.258C134.988 139.566 134.675 139.776 134.32 139.888C133.975 140 133.56 140.037 133.074 140ZM151.279 140H150.243L149.333 137.592H144.685L143.775 140H142.739L146.505 130.2H147.513L151.279 140ZM147.009 131.418L145.035 136.668H148.983L147.009 131.418ZM158.837 134.498V130.2H159.817V140H158.837V135.422H153.517V140H152.537V130.2H153.517V134.498H158.837Z" fill="black"/>
<path d="M48.7654 140.168C47.272 140.168 46.0447 139.678 45.0834 138.698C44.1127 137.709 43.6274 136.509 43.6274 135.1C43.6274 133.691 44.1127 132.491 45.0834 131.502C46.0447 130.522 47.272 130.032 48.7654 130.032C49.6614 130.032 50.4874 130.251 51.2434 130.69C51.9994 131.119 52.5874 131.703 53.0074 132.44L52.1394 132.944C51.8314 132.347 51.374 131.871 50.7674 131.516C50.1607 131.161 49.4934 130.984 48.7654 130.984C47.5334 130.984 46.5347 131.381 45.7694 132.174C44.9947 132.977 44.6074 133.952 44.6074 135.1C44.6074 136.248 44.9947 137.223 45.7694 138.026C46.5347 138.819 47.5334 139.216 48.7654 139.216C49.4934 139.216 50.1607 139.039 50.7674 138.684C51.374 138.329 51.8314 137.853 52.1394 137.256L53.0074 137.746C52.6061 138.483 52.0227 139.071 51.2574 139.51C50.492 139.949 49.6614 140.168 48.7654 140.168ZM62.725 138.698C61.745 139.678 60.5457 140.168 59.127 140.168C57.7084 140.168 56.509 139.678 55.529 138.698C54.549 137.699 54.059 136.5 54.059 135.1C54.059 133.691 54.549 132.496 55.529 131.516C56.509 130.527 57.7084 130.032 59.127 130.032C60.5457 130.032 61.745 130.527 62.725 131.516C63.705 132.496 64.195 133.691 64.195 135.1C64.195 136.5 63.705 137.699 62.725 138.698ZM55.039 135.1C55.039 136.257 55.431 137.233 56.215 138.026C56.999 138.819 57.9697 139.216 59.127 139.216C60.2844 139.216 61.255 138.819 62.039 138.026C62.823 137.233 63.215 136.257 63.215 135.1C63.215 133.952 62.823 132.981 62.039 132.188C61.255 131.385 60.2844 130.984 59.127 130.984C57.9697 130.984 56.999 131.385 56.215 132.188C55.431 132.981 55.039 133.952 55.039 135.1ZM70.449 140.168C68.9556 140.168 67.7283 139.678 66.767 138.698C65.7963 137.709 65.311 136.509 65.311 135.1C65.311 133.691 65.7963 132.491 66.767 131.502C67.7283 130.522 68.9556 130.032 70.449 130.032C71.345 130.032 72.171 130.251 72.927 130.69C73.683 131.119 74.271 131.703 74.691 132.44L73.823 132.944C73.515 132.347 73.0576 131.871 72.451 131.516C71.8443 131.161 71.177 130.984 70.449 130.984C69.217 130.984 68.2183 131.381 67.453 132.174C66.6783 132.977 66.291 133.952 66.291 135.1C66.291 136.248 66.6783 137.223 67.453 138.026C68.2183 138.819 69.217 139.216 70.449 139.216C71.177 139.216 71.8443 139.039 72.451 138.684C73.0576 138.329 73.515 137.853 73.823 137.256L74.691 137.746C74.2896 138.483 73.7063 139.071 72.941 139.51C72.1756 139.949 71.345 140.168 70.449 140.168ZM75.3259 130.2H82.3259V131.124H79.3159V140H78.3359V131.124H75.3259V130.2ZM90.5892 140H89.5532L88.6432 137.592H83.9952L83.0852 140H82.0492L85.8152 130.2H86.8232L90.5892 140ZM86.3192 131.418L84.3452 136.668H88.2932L86.3192 131.418ZM97.2795 134.918C97.7649 135.123 98.1475 135.436 98.4275 135.856C98.7075 136.276 98.8475 136.747 98.8475 137.27C98.8475 138.026 98.5815 138.67 98.0495 139.202C97.5175 139.734 96.8735 140 96.1175 140H91.8475V130.2H95.7955C96.5142 130.2 97.1349 130.461 97.6575 130.984C98.1709 131.497 98.4275 132.113 98.4275 132.832C98.4275 133.747 98.0449 134.442 97.2795 134.918ZM95.7955 131.124H92.8275V134.54H95.7955C96.2435 134.54 96.6309 134.377 96.9575 134.05C97.2842 133.705 97.4475 133.299 97.4475 132.832C97.4475 132.375 97.2842 131.973 96.9575 131.628C96.6309 131.292 96.2435 131.124 95.7955 131.124ZM92.8275 139.076H96.1175C96.6029 139.076 97.0135 138.903 97.3495 138.558C97.6949 138.213 97.8675 137.783 97.8675 137.27C97.8675 136.766 97.6949 136.341 97.3495 135.996C97.0135 135.641 96.6029 135.464 96.1175 135.464H92.8275V139.076ZM107.809 140H106.829V132.02L101.369 140H100.529V130.2H101.509V138.18L106.969 130.2H107.809V140ZM117.787 130.2H119.005V140H118.025V131.684L114.595 137.424H114.455L111.025 131.684V140H110.045V130.2H111.263L114.525 135.66L117.787 130.2ZM124.742 130.2H131.742V140H130.762V131.124H125.722V140H124.742V130.2ZM133.074 140V139.132C133.756 139.225 134.264 139.015 134.6 138.502C134.946 137.989 135.118 137.037 135.118 135.646V130.2H141.474V140H140.494V131.124H136.098V135.674C136.098 136.561 136.028 137.303 135.888 137.9C135.748 138.497 135.538 138.95 135.258 139.258C134.988 139.566 134.675 139.776 134.32 139.888C133.975 140 133.56 140.037 133.074 140ZM151.279 140H150.243L149.333 137.592H144.685L143.775 140H142.739L146.505 130.2H147.513L151.279 140ZM147.009 131.418L145.035 136.668H148.983L147.009 131.418ZM158.837 134.498V130.2H159.817V140H158.837V135.422H153.517V140H152.537V130.2H153.517V134.498H158.837Z" fill="#3C3C3C"/>
<g clip-path="url(#clip0_120_1311)">
<path d="M119.073 27H71.7938C66.7193 27.0066 62.6072 31.1187 62.6006 36.1932V83.3636C62.6072 88.4381 66.7193 92.5502 71.7938 92.5568H86.2403V89.9302H71.7938C68.169 89.9259 65.2315 86.9883 65.2272 83.3636V61.1462H73.6613C74.4396 61.0893 75.0246 60.4122 74.9676 59.6338C74.9566 59.4837 74.9218 59.3363 74.8643 59.1973C73.6971 56.5411 74.9041 53.4416 77.5602 52.2744C80.2164 51.1072 83.3158 52.3142 84.4831 54.9704C85.0749 56.3172 85.0749 57.8505 84.4831 59.1973C84.1587 59.8759 84.446 60.689 85.1246 61.0134C85.3001 61.0973 85.4917 61.1426 85.6861 61.1464H94.1202V69.0263C93.6863 68.9524 93.247 68.916 92.8069 68.9173C88.4549 68.9158 84.9258 72.4425 84.9242 76.7944C84.923 79.9298 86.7809 82.7673 89.6549 84.0204L90.7056 81.6144C88.0451 80.4571 86.8265 77.3622 87.9837 74.7018C88.8186 72.7822 90.7136 71.5416 92.8069 71.5439C93.5307 71.5437 94.2464 71.6949 94.9082 71.9878C95.5729 72.2779 96.3471 71.9742 96.6371 71.3095C96.7094 71.144 96.7466 70.9654 96.7468 70.7848V61.1462H103.425C103.35 61.5799 103.313 62.0194 103.313 62.4595C103.321 66.2015 105.953 69.425 109.617 70.1818L110.143 67.609C107.7 67.1036 105.945 64.9543 105.94 62.4595C105.94 61.7357 106.091 61.02 106.384 60.3582C106.674 59.6935 106.37 58.9193 105.706 58.6292C105.54 58.557 105.362 58.5198 105.181 58.5196H96.7468V51.8414C97.1805 51.9161 97.62 51.9535 98.0601 51.953C102.412 51.953 105.94 48.4251 105.94 44.0731C105.94 39.7211 102.412 36.1932 98.0601 36.1932C97.62 36.1927 97.1805 36.2302 96.7468 36.3048V29.6266H119.073C122.698 29.6309 125.635 32.5685 125.64 36.1932V58.5196H117.206C116.48 58.5199 115.893 59.1083 115.893 59.8336C115.893 60.0141 115.93 60.1927 116.003 60.3582C116.296 61.02 116.447 61.7357 116.447 62.4595H119.073C119.074 62.0194 119.036 61.5799 118.962 61.1462H126.953C127.678 61.1462 128.266 60.5582 128.266 59.8329V36.1932C128.26 31.1187 124.148 27.0066 119.073 27ZM98.0601 38.8198C100.961 38.8198 103.313 41.1718 103.313 44.0731C103.313 46.9744 100.961 49.3264 98.0601 49.3264C97.3363 49.3265 96.6206 49.1753 95.9588 48.8825C95.2941 48.5924 94.5199 48.8961 94.2298 49.5608C94.1576 49.7263 94.1203 49.9049 94.1202 50.0855V58.4106H87.4512C87.517 58.0125 87.5511 57.6098 87.5536 57.2063C87.5536 57.1826 87.5536 57.1616 87.5536 57.138C87.5536 57.1143 87.5536 57.1104 87.5536 57.0973C87.5536 52.7453 84.0257 49.2174 79.6737 49.2174C75.3217 49.2174 71.7938 52.7453 71.7938 57.0973C71.7938 57.1104 71.7938 57.1248 71.7938 57.138C71.7938 57.1511 71.7938 57.1826 71.7938 57.2063C71.7963 57.6098 71.8304 58.0125 71.8962 58.4106H65.2272V36.1932C65.2315 32.5685 68.169 29.6309 71.7938 29.6266H94.1202V38.0607C94.1205 38.786 94.7089 39.3737 95.4341 39.3734C95.6147 39.3732 95.7933 39.336 95.9588 39.2637C96.6206 38.9709 97.3363 38.8197 98.0601 38.8198Z" fill="#1E959B"/>
<path d="M138.59 83.449L127.549 75.8462L123.308 64.5162C123.055 63.8364 122.299 63.4905 121.619 63.7435C121.595 63.7525 121.571 63.7624 121.547 63.7729L113.011 67.5487C112.371 67.8312 112.065 68.5658 112.315 69.2192C112.456 69.5869 112.589 69.8653 112.73 70.1543C112.87 70.4432 113 70.7137 113.159 71.1406C114.178 73.8646 112.806 76.9006 110.087 77.9344C107.37 78.9507 104.343 77.5719 103.326 74.8543C103.071 74.1727 102.961 73.4456 103.002 72.7192C103.04 71.9949 102.484 71.3768 101.759 71.3387C101.578 71.3292 101.396 71.3574 101.226 71.4216L92.1013 74.8586C91.4238 75.1138 91.0807 75.8693 91.3343 76.5475L94.6098 85.2981C94.1755 85.3772 93.7492 85.495 93.3358 85.6501C89.249 87.173 87.1706 91.7207 88.6936 95.8076C90.2165 99.8945 94.7642 101.973 98.8511 100.45C99.2719 100.293 99.6785 100.101 100.067 99.8746L102.415 106.147C102.669 106.826 103.426 107.171 104.105 106.916C104.106 106.916 104.107 106.915 104.108 106.915L117.12 102.013C117.937 103.77 119.441 105.113 121.279 105.727L122.109 103.231C121.027 102.867 120.127 102.098 119.598 101.085L123.558 99.5949C124.859 103.253 128.323 105.695 132.206 105.69V103.063C128.589 103.041 125.662 100.114 125.639 96.4968C125.639 96.1484 125.501 95.8145 125.255 95.5683L120.682 90.9953C120.004 90.3114 119.927 89.2348 120.502 88.4619C120.836 88.0103 121.353 87.7289 121.914 87.6923C122.475 87.645 123.028 87.8519 123.421 88.2557L132.591 97.4253L134.448 95.5683L131.735 92.8549C132.403 90.8559 132.362 88.6875 131.618 86.7152L129.157 80.142L137.093 85.6067C138.145 86.3452 138.772 87.5496 138.773 88.8349V105.799H141.399V88.8349C141.397 86.6888 140.349 84.6786 138.59 83.449ZM129.158 87.6358C129.521 88.6001 129.652 89.636 129.541 90.6604L125.278 86.3987C123.519 84.594 120.629 84.5577 118.825 86.3173C117.02 88.0769 116.984 90.9662 118.743 92.7709C118.77 92.7983 118.797 92.8256 118.825 92.8523L122.979 97.0063L104.419 103.997L101.916 97.3084C101.76 96.8927 101.405 96.5841 100.971 96.4876C100.878 96.4669 100.782 96.4562 100.686 96.4561C100.343 96.4557 100.013 96.5902 99.7671 96.8303C97.6583 98.8228 94.3333 98.7284 92.3408 96.6194C90.3484 94.5105 90.4428 91.1856 92.5518 89.1931C93.0479 88.7244 93.6304 88.357 94.267 88.1111C94.6851 87.9561 95.1218 87.8573 95.5659 87.8169C95.839 87.7834 96.1145 87.7742 96.3893 87.7893C97.1136 87.8272 97.7317 87.2709 97.7696 86.5466C97.7791 86.3665 97.7514 86.1864 97.6882 86.0177L94.2578 76.8586L100.512 74.5038C101.333 78.7777 105.463 81.5768 109.737 80.7562C110.173 80.6723 110.602 80.5516 111.018 80.3953C115.091 78.8502 117.149 74.305 115.624 70.225C115.503 69.902 115.394 69.6459 115.289 69.4173L121.33 66.7421L129.158 87.6358Z" fill="#1E959B"/>
</g>
<defs>
<filter id="filter0_d_120_1311" x="0" y="0" width="203" height="172" filterUnits="userSpaceOnUse" color-interpolation-filters="sRGB">
<feFlood flood-opacity="0" result="BackgroundImageFix"/>
<feColorMatrix in="SourceAlpha" type="matrix" values="0 0 0 0 0 0 0 0 0 0 0 0 0 0 0 0 0 0 127 0" result="hardAlpha"/>
<feOffset dy="4"/>
<feGaussianBlur stdDeviation="2"/>
<feColorMatrix type="matrix" values="0 0 0 0 0.117647 0 0 0 0 0.584314 0 0 0 0 0.607843 0 0 0 0.5 0"/>
<feBlend mode="normal" in2="BackgroundImageFix" result="effect1_dropShadow_120_1311"/>
<feBlend mode="normal" in="SourceGraphic" in2="effect1_dropShadow_120_1311" result="shape"/>
</filter>
<linearGradient id="paint0_linear_120_1311" x1="101.5" y1="0" x2="101.5" y2="164" gradientUnits="userSpaceOnUse">
<stop stop-color="white"/>
<stop offset="1" stop-color="#F7F9FD"/>
</linearGradient>
<clipPath id="clip0_120_1311">
<rect width="80" height="80" fill="white" transform="translate(62 27)"/>
</clipPath>
</defs>
</svg>
