<svg width="203" height="172" viewBox="0 0 203 172" fill="none" xmlns="http://www.w3.org/2000/svg">
<g filter="url(#filter0_d_120_1336)">
<rect x="4" width="195" height="164" rx="25" fill="url(#paint0_linear_120_1336)"/>
</g>
<path d="M20.6034 130.2H24.1034C24.9807 130.2 25.7134 130.494 26.3014 131.082C26.8894 131.67 27.1834 132.403 27.1834 133.28C27.1834 134.157 26.8894 134.89 26.3014 135.478C25.7134 136.066 24.9807 136.36 24.1034 136.36H21.5834V140H20.6034V130.2ZM21.5834 135.436H24.1034C24.7101 135.436 25.2094 135.235 25.6014 134.834C26.0027 134.433 26.2034 133.915 26.2034 133.28C26.2034 132.655 26.0027 132.141 25.6014 131.74C25.2094 131.329 24.7101 131.124 24.1034 131.124H21.5834V135.436ZM35.4368 140H34.4008L33.4908 137.592H28.8428L27.9328 140H26.8968L30.6628 130.2H31.6708L35.4368 140ZM31.1668 131.418L29.1928 136.668H33.1408L31.1668 131.418ZM41.2172 134.932C41.7585 135.137 42.1785 135.45 42.4772 135.87C42.7759 136.29 42.9252 136.785 42.9252 137.354C42.9252 138.175 42.6172 138.852 42.0012 139.384C41.3945 139.907 40.5732 140.168 39.5372 140.168C38.6412 140.168 37.9085 139.967 37.3392 139.566C36.7699 139.165 36.3685 138.628 36.1352 137.956L36.9752 137.48C37.1059 138.012 37.3812 138.441 37.8012 138.768C38.2212 139.085 38.7999 139.244 39.5372 139.244C40.2839 139.244 40.8719 139.071 41.3012 138.726C41.7305 138.381 41.9452 137.923 41.9452 137.354C41.9452 136.785 41.7492 136.327 41.3572 135.982C40.9652 135.637 40.4332 135.464 39.7612 135.464H38.6412V134.54H39.4112C40.0739 134.54 40.6012 134.377 40.9932 134.05C41.3852 133.714 41.5812 133.275 41.5812 132.734C41.5812 132.202 41.3899 131.773 41.0072 131.446C40.6245 131.119 40.1112 130.956 39.4672 130.956C38.2632 130.956 37.4699 131.469 37.0872 132.496L36.2752 132.02C36.8165 130.695 37.8805 130.032 39.4672 130.032C40.3819 130.032 41.1285 130.293 41.7072 130.816C42.2765 131.329 42.5612 131.973 42.5612 132.748C42.5612 133.728 42.1132 134.456 41.2172 134.932ZM44.6112 130.2H48.1112C48.9885 130.2 49.7212 130.494 50.3092 131.082C50.8972 131.67 51.1912 132.403 51.1912 133.28C51.1912 134.157 50.8972 134.89 50.3092 135.478C49.7212 136.066 48.9885 136.36 48.1112 136.36H45.5912V140H44.6112V130.2ZM45.5912 135.436H48.1112C48.7179 135.436 49.2172 135.235 49.6092 134.834C50.0105 134.433 50.2112 133.915 50.2112 133.28C50.2112 132.655 50.0105 132.141 49.6092 131.74C49.2172 131.329 48.7179 131.124 48.1112 131.124H45.5912V135.436ZM59.4446 140H58.4086L57.4986 137.592H52.8506L51.9406 140H50.9046L54.6706 130.2H55.6786L59.4446 140ZM55.1746 131.418L53.2006 136.668H57.1486L55.1746 131.418ZM61.683 134.12H64.343C65.1457 134.12 65.8363 134.409 66.415 134.988C66.9937 135.567 67.283 136.257 67.283 137.06C67.283 137.872 66.9937 138.567 66.415 139.146C65.8457 139.715 65.155 140 64.343 140H60.703V130.2H66.443V131.124H61.683V134.12ZM61.683 139.076H64.343C64.8843 139.076 65.3463 138.88 65.729 138.488C66.1117 138.087 66.303 137.611 66.303 137.06C66.303 136.519 66.1117 136.047 65.729 135.646C65.3557 135.245 64.8937 135.044 64.343 135.044H61.683V139.076ZM76.9301 138.698C75.9501 139.678 74.7508 140.168 73.3321 140.168C71.9134 140.168 70.7141 139.678 69.7341 138.698C68.7541 137.699 68.2641 136.5 68.2641 135.1C68.2641 133.691 68.7541 132.496 69.7341 131.516C70.7141 130.527 71.9134 130.032 73.3321 130.032C74.7508 130.032 75.9501 130.527 76.9301 131.516C77.9101 132.496 78.4001 133.691 78.4001 135.1C78.4001 136.5 77.9101 137.699 76.9301 138.698ZM69.2441 135.1C69.2441 136.257 69.6361 137.233 70.4201 138.026C71.2041 138.819 72.1748 139.216 73.3321 139.216C74.4894 139.216 75.4601 138.819 76.2441 138.026C77.0281 137.233 77.4201 136.257 77.4201 135.1C77.4201 133.952 77.0281 132.981 76.2441 132.188C75.4601 131.385 74.4894 130.984 73.3321 130.984C72.1748 130.984 71.2041 131.385 70.4201 132.188C69.6361 132.981 69.2441 133.952 69.2441 135.1ZM78.6755 130.2H85.6755V131.124H82.6655V140H81.6855V131.124H78.6755V130.2ZM93.9388 140H92.9028L91.9928 137.592H87.3448L86.4348 140H85.3988L89.1648 130.2H90.1728L93.9388 140ZM89.6688 131.418L87.6948 136.668H91.6428L89.6688 131.418ZM96.1771 135.52V139.076H100.937V140H95.1971V130.2H100.867V131.124H96.1771V134.596H100.517V135.52H96.1771ZM110.363 130.2H111.581V140H110.601V131.684L107.171 137.424H107.031L103.601 131.684V140H102.621V130.2H103.839L107.101 135.66L110.363 130.2ZM117.318 130.2H124.318V140H123.338V131.124H118.298V140H117.318V130.2ZM126.56 130.2H130.06C130.938 130.2 131.67 130.494 132.258 131.082C132.846 131.67 133.14 132.403 133.14 133.28C133.14 134.157 132.846 134.89 132.258 135.478C131.67 136.066 130.938 136.36 130.06 136.36H127.54V140H126.56V130.2ZM127.54 135.436H130.06C130.667 135.436 131.166 135.235 131.558 134.834C131.96 134.433 132.16 133.915 132.16 133.28C132.16 132.655 131.96 132.141 131.558 131.74C131.166 131.329 130.667 131.124 130.06 131.124H127.54V135.436ZM142.856 138.698C141.876 139.678 140.677 140.168 139.258 140.168C137.839 140.168 136.64 139.678 135.66 138.698C134.68 137.699 134.19 136.5 134.19 135.1C134.19 133.691 134.68 132.496 135.66 131.516C136.64 130.527 137.839 130.032 139.258 130.032C140.677 130.032 141.876 130.527 142.856 131.516C143.836 132.496 144.326 133.691 144.326 135.1C144.326 136.5 143.836 137.699 142.856 138.698ZM135.17 135.1C135.17 136.257 135.562 137.233 136.346 138.026C137.13 138.819 138.101 139.216 139.258 139.216C140.415 139.216 141.386 138.819 142.17 138.026C142.954 137.233 143.346 136.257 143.346 135.1C143.346 133.952 142.954 132.981 142.17 132.188C141.386 131.385 140.415 130.984 139.258 130.984C138.101 130.984 137.13 131.385 136.346 132.188C135.562 132.981 135.17 133.952 135.17 135.1ZM152.578 130.2V139.076H153.628V141.876H152.648V140H145.648V141.876H144.668V139.076H145.466C146.11 138.32 146.432 137.153 146.432 135.576V130.2H152.578ZM146.628 139.076H151.598V131.124H147.412V135.604C147.412 137.144 147.151 138.301 146.628 139.076ZM158.107 136.22L160.683 130.2H161.691L158.429 137.858C158.102 138.642 157.687 139.207 157.183 139.552C156.679 139.897 156.053 140.047 155.307 140V139.104C155.829 139.16 156.259 139.085 156.595 138.88C156.94 138.665 157.225 138.297 157.449 137.774L157.645 137.312L154.271 130.2H155.279L158.107 136.22ZM164.971 134.96L169.815 140H168.527L163.935 135.254V140H162.955V130.2H163.935V134.68L168.387 130.2H169.675L164.971 134.96ZM170.236 130.2H177.236V131.124H174.226V140H173.246V131.124H170.236V130.2Z" fill="black"/>
<path d="M20.6034 130.2H24.1034C24.9807 130.2 25.7134 130.494 26.3014 131.082C26.8894 131.67 27.1834 132.403 27.1834 133.28C27.1834 134.157 26.8894 134.89 26.3014 135.478C25.7134 136.066 24.9807 136.36 24.1034 136.36H21.5834V140H20.6034V130.2ZM21.5834 135.436H24.1034C24.7101 135.436 25.2094 135.235 25.6014 134.834C26.0027 134.433 26.2034 133.915 26.2034 133.28C26.2034 132.655 26.0027 132.141 25.6014 131.74C25.2094 131.329 24.7101 131.124 24.1034 131.124H21.5834V135.436ZM35.4368 140H34.4008L33.4908 137.592H28.8428L27.9328 140H26.8968L30.6628 130.2H31.6708L35.4368 140ZM31.1668 131.418L29.1928 136.668H33.1408L31.1668 131.418ZM41.2172 134.932C41.7585 135.137 42.1785 135.45 42.4772 135.87C42.7759 136.29 42.9252 136.785 42.9252 137.354C42.9252 138.175 42.6172 138.852 42.0012 139.384C41.3945 139.907 40.5732 140.168 39.5372 140.168C38.6412 140.168 37.9085 139.967 37.3392 139.566C36.7699 139.165 36.3685 138.628 36.1352 137.956L36.9752 137.48C37.1059 138.012 37.3812 138.441 37.8012 138.768C38.2212 139.085 38.7999 139.244 39.5372 139.244C40.2839 139.244 40.8719 139.071 41.3012 138.726C41.7305 138.381 41.9452 137.923 41.9452 137.354C41.9452 136.785 41.7492 136.327 41.3572 135.982C40.9652 135.637 40.4332 135.464 39.7612 135.464H38.6412V134.54H39.4112C40.0739 134.54 40.6012 134.377 40.9932 134.05C41.3852 133.714 41.5812 133.275 41.5812 132.734C41.5812 132.202 41.3899 131.773 41.0072 131.446C40.6245 131.119 40.1112 130.956 39.4672 130.956C38.2632 130.956 37.4699 131.469 37.0872 132.496L36.2752 132.02C36.8165 130.695 37.8805 130.032 39.4672 130.032C40.3819 130.032 41.1285 130.293 41.7072 130.816C42.2765 131.329 42.5612 131.973 42.5612 132.748C42.5612 133.728 42.1132 134.456 41.2172 134.932ZM44.6112 130.2H48.1112C48.9885 130.2 49.7212 130.494 50.3092 131.082C50.8972 131.67 51.1912 132.403 51.1912 133.28C51.1912 134.157 50.8972 134.89 50.3092 135.478C49.7212 136.066 48.9885 136.36 48.1112 136.36H45.5912V140H44.6112V130.2ZM45.5912 135.436H48.1112C48.7179 135.436 49.2172 135.235 49.6092 134.834C50.0105 134.433 50.2112 133.915 50.2112 133.28C50.2112 132.655 50.0105 132.141 49.6092 131.74C49.2172 131.329 48.7179 131.124 48.1112 131.124H45.5912V135.436ZM59.4446 140H58.4086L57.4986 137.592H52.8506L51.9406 140H50.9046L54.6706 130.2H55.6786L59.4446 140ZM55.1746 131.418L53.2006 136.668H57.1486L55.1746 131.418ZM61.683 134.12H64.343C65.1457 134.12 65.8363 134.409 66.415 134.988C66.9937 135.567 67.283 136.257 67.283 137.06C67.283 137.872 66.9937 138.567 66.415 139.146C65.8457 139.715 65.155 140 64.343 140H60.703V130.2H66.443V131.124H61.683V134.12ZM61.683 139.076H64.343C64.8843 139.076 65.3463 138.88 65.729 138.488C66.1117 138.087 66.303 137.611 66.303 137.06C66.303 136.519 66.1117 136.047 65.729 135.646C65.3557 135.245 64.8937 135.044 64.343 135.044H61.683V139.076ZM76.9301 138.698C75.9501 139.678 74.7508 140.168 73.3321 140.168C71.9134 140.168 70.7141 139.678 69.7341 138.698C68.7541 137.699 68.2641 136.5 68.2641 135.1C68.2641 133.691 68.7541 132.496 69.7341 131.516C70.7141 130.527 71.9134 130.032 73.3321 130.032C74.7508 130.032 75.9501 130.527 76.9301 131.516C77.9101 132.496 78.4001 133.691 78.4001 135.1C78.4001 136.5 77.9101 137.699 76.9301 138.698ZM69.2441 135.1C69.2441 136.257 69.6361 137.233 70.4201 138.026C71.2041 138.819 72.1748 139.216 73.3321 139.216C74.4894 139.216 75.4601 138.819 76.2441 138.026C77.0281 137.233 77.4201 136.257 77.4201 135.1C77.4201 133.952 77.0281 132.981 76.2441 132.188C75.4601 131.385 74.4894 130.984 73.3321 130.984C72.1748 130.984 71.2041 131.385 70.4201 132.188C69.6361 132.981 69.2441 133.952 69.2441 135.1ZM78.6755 130.2H85.6755V131.124H82.6655V140H81.6855V131.124H78.6755V130.2ZM93.9388 140H92.9028L91.9928 137.592H87.3448L86.4348 140H85.3988L89.1648 130.2H90.1728L93.9388 140ZM89.6688 131.418L87.6948 136.668H91.6428L89.6688 131.418ZM96.1771 135.52V139.076H100.937V140H95.1971V130.2H100.867V131.124H96.1771V134.596H100.517V135.52H96.1771ZM110.363 130.2H111.581V140H110.601V131.684L107.171 137.424H107.031L103.601 131.684V140H102.621V130.2H103.839L107.101 135.66L110.363 130.2ZM117.318 130.2H124.318V140H123.338V131.124H118.298V140H117.318V130.2ZM126.56 130.2H130.06C130.938 130.2 131.67 130.494 132.258 131.082C132.846 131.67 133.14 132.403 133.14 133.28C133.14 134.157 132.846 134.89 132.258 135.478C131.67 136.066 130.938 136.36 130.06 136.36H127.54V140H126.56V130.2ZM127.54 135.436H130.06C130.667 135.436 131.166 135.235 131.558 134.834C131.96 134.433 132.16 133.915 132.16 133.28C132.16 132.655 131.96 132.141 131.558 131.74C131.166 131.329 130.667 131.124 130.06 131.124H127.54V135.436ZM142.856 138.698C141.876 139.678 140.677 140.168 139.258 140.168C137.839 140.168 136.64 139.678 135.66 138.698C134.68 137.699 134.19 136.5 134.19 135.1C134.19 133.691 134.68 132.496 135.66 131.516C136.64 130.527 137.839 130.032 139.258 130.032C140.677 130.032 141.876 130.527 142.856 131.516C143.836 132.496 144.326 133.691 144.326 135.1C144.326 136.5 143.836 137.699 142.856 138.698ZM135.17 135.1C135.17 136.257 135.562 137.233 136.346 138.026C137.13 138.819 138.101 139.216 139.258 139.216C140.415 139.216 141.386 138.819 142.17 138.026C142.954 137.233 143.346 136.257 143.346 135.1C143.346 133.952 142.954 132.981 142.17 132.188C141.386 131.385 140.415 130.984 139.258 130.984C138.101 130.984 137.13 131.385 136.346 132.188C135.562 132.981 135.17 133.952 135.17 135.1ZM152.578 130.2V139.076H153.628V141.876H152.648V140H145.648V141.876H144.668V139.076H145.466C146.11 138.32 146.432 137.153 146.432 135.576V130.2H152.578ZM146.628 139.076H151.598V131.124H147.412V135.604C147.412 137.144 147.151 138.301 146.628 139.076ZM158.107 136.22L160.683 130.2H161.691L158.429 137.858C158.102 138.642 157.687 139.207 157.183 139.552C156.679 139.897 156.053 140.047 155.307 140V139.104C155.829 139.16 156.259 139.085 156.595 138.88C156.94 138.665 157.225 138.297 157.449 137.774L157.645 137.312L154.271 130.2H155.279L158.107 136.22ZM164.971 134.96L169.815 140H168.527L163.935 135.254V140H162.955V130.2H163.935V134.68L168.387 130.2H169.675L164.971 134.96ZM170.236 130.2H177.236V131.124H174.226V140H173.246V131.124H170.236V130.2Z" fill="#3C3C3C"/>
<path d="M123.25 87C125.318 87 127 85.3175 127 83.25C127 81.1825 125.318 79.5 123.25 79.5C121.182 79.5 119.5 81.1825 119.5 83.25C119.5 85.3175 121.182 87 123.25 87ZM123.25 82C123.939 82 124.5 82.56 124.5 83.25C124.5 83.94 123.939 84.5 123.25 84.5C122.561 84.5 122 83.94 122 83.25C122 82.56 122.561 82 123.25 82Z" fill="#1E959B"/>
<path d="M135.95 77.9725C135.571 77.065 135.772 76.0337 136.461 75.3438L138.28 73.5238L132.975 68.2188L131.154 70.0387C130.465 70.7287 129.433 70.9288 128.478 70.5288C127.58 70.1588 127 69.2913 127 68.3187V65.75H124.436C124.323 63.7337 123.949 61.785 123.329 59.9387L137.794 45.4738C139.7 43.5675 140.75 41.0337 140.75 38.3387C140.75 32.7763 136.224 28.25 130.661 28.25C127.966 28.25 125.432 29.3 123.528 31.205L109.077 45.6562C107.209 45.0287 105.228 44.6637 103.181 44.555C101.456 41.5412 98.215 39.5 94.5 39.5C93.5487 39.5 92.6313 39.6425 91.7575 39.8912C89.6 35.835 85.4088 33.25 80.75 33.25C73.8575 33.25 68.25 38.8575 68.25 45.75C68.25 46.7075 68.3675 47.65 68.5812 48.5725C65.5 49.505 63.25 52.3687 63.25 55.75C63.25 59.8862 66.6137 63.25 70.75 63.25H79.8175C79.61 64.4863 79.5 65.7412 79.5 67C79.5 69.7513 80.0088 71.99 80.83 73.9025L69.6788 85.055L63.4738 101.188C63.325 101.572 63.25 101.978 63.25 102.391C63.25 104.244 64.7575 105.75 66.6088 105.75C67.0225 105.75 67.4275 105.674 67.8138 105.526L83.9462 99.3213L92.1 91.1663C92.0387 91.435 92 91.7125 92 92C92 92.9638 92.3763 93.835 92.975 94.5C92.375 95.165 92 96.0362 92 97C92 98.7375 93.1938 100.19 94.8 100.613C95.865 103.662 98.7175 105.75 102 105.75C105.283 105.75 108.135 103.662 109.2 100.613C110.806 100.19 112 98.7375 112 97C112 96.9062 111.979 96.8187 111.972 96.7275L113.525 98.28L115.346 96.46C116.035 95.77 117.064 95.5687 118.021 95.9675C118.919 96.3412 119.5 97.2087 119.5 98.1813V100.75H127V98.1813C127 97.2087 127.581 96.34 128.527 95.9488C129.435 95.5713 130.466 95.77 131.155 96.46L132.975 98.28L138.28 92.975L136.461 91.155C135.772 90.465 135.571 89.4338 135.97 88.4787C136.341 87.5812 137.209 87 138.181 87H140.75V79.5H138.181C137.209 79.5 136.341 78.9188 135.95 77.9725ZM117.22 81.6575C118.584 80.3263 119.95 78.9662 121.129 77.3937C121.809 77.1462 122.516 77 123.25 77C126.696 77 129.5 79.8037 129.5 83.25C129.5 86.6963 126.696 89.5 123.25 89.5C119.804 89.5 117 86.6963 117 83.25C117 82.7088 117.084 82.1763 117.22 81.6575ZM118.721 52.0475L124.5 46.2675L128.982 50.75L122.306 57.4263C121.37 55.4613 120.16 53.6537 118.721 52.0475ZM120.018 38.25L122 36.2675L132.732 47L130.75 48.9825L120.018 38.25ZM130.661 30.75C134.845 30.75 138.25 34.155 138.25 38.3387C138.25 40.365 137.461 42.2713 136.027 43.705L134.5 45.2325L123.768 34.5L125.295 32.9725C126.729 31.54 128.634 30.75 130.661 30.75ZM118.25 40.0175L122.732 44.5L116.956 50.2763C115.351 48.8363 113.545 47.625 111.58 46.6875L118.25 40.0175ZM122 67C122 73.5037 118.725 76.6987 115.257 80.08C112.87 82.4088 110.417 84.8163 108.99 88.325C108.751 88.2763 108.504 88.25 108.25 88.25H103.25V82C103.25 79.9325 101.568 78.25 99.5 78.25H97C96.3112 78.25 95.75 77.69 95.75 77C95.75 76.31 96.3112 75.75 97 75.75H109.5C111.568 75.75 113.25 74.0675 113.25 72C113.25 69.9325 111.568 68.25 109.5 68.25H99.5C98.8112 68.25 98.25 67.69 98.25 67V63.25H104.5C107.946 63.25 110.75 60.4463 110.75 57C110.75 53.5537 107.946 50.75 104.5 50.75C104.465 50.75 104.432 50.76 104.397 50.76C104.451 50.3425 104.5 49.925 104.5 49.5C104.5 48.6825 104.39 47.8913 104.205 47.13C114.17 48.24 122 56.7925 122 67ZM94.5 92C94.5 91.31 95.0613 90.75 95.75 90.75H108.25C108.939 90.75 109.5 91.31 109.5 92C109.5 92.69 108.939 93.25 108.25 93.25H95.75C95.0613 93.25 94.5 92.69 94.5 92ZM78.7675 92L87.9562 82.8112C89.4937 84.3362 90.9212 85.8787 91.9738 87.7575L83.25 96.4825L78.7675 92ZM65.75 55.75C65.75 52.9925 67.9925 50.75 70.75 50.75C73.5075 50.75 75.75 52.9925 75.75 55.75H78.25C78.25 51.7225 75.0562 48.435 71.07 48.2663C70.8575 47.4488 70.75 46.605 70.75 45.75C70.75 40.2362 75.2362 35.75 80.75 35.75C84.4062 35.75 87.7062 37.7375 89.4613 40.8762C86.7962 42.44 84.9137 45.1937 84.5625 48.4075C82.38 48.945 80.75 50.9037 80.75 53.25H83.25C83.25 51.8713 84.3713 50.75 85.75 50.75C87.1287 50.75 88.25 51.8713 88.25 53.25H90.75C90.75 50.9562 89.19 49.04 87.0813 48.4525C87.5938 44.8125 90.72 42 94.5 42C98.6362 42 102 45.3638 102 49.5C102 50.1575 101.893 50.8012 101.725 51.4287C99.675 52.455 98.25 54.555 98.25 57H100.75C100.75 54.9325 102.432 53.25 104.5 53.25C106.568 53.25 108.25 54.9325 108.25 57C108.25 59.0675 106.568 60.75 104.5 60.75H70.75C67.9925 60.75 65.75 58.5075 65.75 55.75ZM95.75 63.25V67C95.75 69.0675 97.4325 70.75 99.5 70.75H109.5C110.189 70.75 110.75 71.31 110.75 72C110.75 72.69 110.189 73.25 109.5 73.25H97C94.9325 73.25 93.25 74.9325 93.25 77C93.25 79.0675 94.9325 80.75 97 80.75H99.5C100.189 80.75 100.75 81.31 100.75 82V88.25H95.75C95.4963 88.25 95.2488 88.2763 95.01 88.325C93.5825 84.8163 91.13 82.4088 88.7425 80.08C85.275 76.6987 82 73.5037 82 67C82 65.7363 82.1513 64.4837 82.385 63.25H95.75ZM86.1712 81.0612L77 90.2325L72.5175 85.75L82.055 76.2125C83.2288 78.055 84.6838 79.5925 86.1712 81.0612ZM71.2263 87.9937L81.0063 97.7738L72.7263 100.959L68.0413 96.2738L71.2263 87.9937ZM66.9175 103.192C66.3763 103.402 65.75 102.971 65.75 102.391C65.75 102.285 65.77 102.181 65.8063 102.084L67.0587 98.8262L70.1725 101.94L66.9175 103.192ZM102 103.25C100.154 103.25 98.5075 102.268 97.595 100.75H106.405C105.492 102.268 103.846 103.25 102 103.25ZM108.25 98.25H95.75C95.0613 98.25 94.5 97.69 94.5 97C94.5 96.31 95.0613 95.75 95.75 95.75H108.25C108.939 95.75 109.5 96.31 109.5 97C109.5 97.69 108.939 98.25 108.25 98.25ZM138.25 84.5H138.181C136.192 84.5 134.417 85.6875 133.643 87.565C132.872 89.4113 133.285 91.5137 134.692 92.9225L134.745 92.975L132.975 94.745L132.923 94.6925C131.512 93.2825 129.408 92.8688 127.524 93.6588C125.688 94.4187 124.5 96.1925 124.5 98.1813V98.25H122V98.1813C122 96.1925 120.812 94.4175 118.935 93.6413C117.086 92.87 114.984 93.2838 113.576 94.6925L113.524 94.745L111.83 93.0512C111.93 92.715 112 92.3675 112 92C112 91.1125 111.677 90.3075 111.16 89.6637C111.938 87.565 113.156 85.8862 114.575 84.3363C115.113 88.6488 118.794 92 123.25 92C128.075 92 132 88.0737 132 83.25C132 78.4263 128.075 74.5 123.25 74.5C123.127 74.5 123.009 74.5125 122.887 74.5175C123.734 72.7612 124.315 70.725 124.461 68.25H124.5V68.3187C124.5 70.3075 125.688 72.0838 127.564 72.8575C129.409 73.63 131.514 73.2175 132.923 71.8075L132.975 71.755L134.745 73.525L134.692 73.5775C133.285 74.9863 132.872 77.09 133.659 78.975C134.418 80.8125 136.192 82 138.181 82H138.25V84.5Z" fill="#1E959B"/>
<defs>
<filter id="filter0_d_120_1336" x="0" y="0" width="203" height="172" filterUnits="userSpaceOnUse" color-interpolation-filters="sRGB">
<feFlood flood-opacity="0" result="BackgroundImageFix"/>
<feColorMatrix in="SourceAlpha" type="matrix" values="0 0 0 0 0 0 0 0 0 0 0 0 0 0 0 0 0 0 127 0" result="hardAlpha"/>
<feOffset dy="4"/>
<feGaussianBlur stdDeviation="2"/>
<feColorMatrix type="matrix" values="0 0 0 0 0.117647 0 0 0 0 0.584314 0 0 0 0 0.607843 0 0 0 0.5 0"/>
<feBlend mode="normal" in2="BackgroundImageFix" result="effect1_dropShadow_120_1336"/>
<feBlend mode="normal" in="SourceGraphic" in2="effect1_dropShadow_120_1336" result="shape"/>
</filter>
<linearGradient id="paint0_linear_120_1336" x1="101.5" y1="0" x2="101.5" y2="164" gradientUnits="userSpaceOnUse">
<stop stop-color="white"/>
<stop offset="1" stop-color="#F7F9FD"/>
</linearGradient>
</defs>
</svg>
