<svg width="309" height="363" viewBox="0 0 309 363" fill="none" xmlns="http://www.w3.org/2000/svg">
<g filter="url(#filter0_d_330_700)">
<rect x="10" y="43" width="289" height="305" rx="30" fill="url(#paint0_linear_330_700)"/>
</g>
<path d="M152 182C202.258 182 243 141.258 243 91C243 40.7421 202.258 0 152 0C101.742 0 61 40.7421 61 91C61 141.258 101.742 182 152 182Z" fill="#1E959B"/>
<path d="M50.7509 233.336C49.1029 233.336 47.7109 232.968 46.5749 232.232C45.4389 231.496 44.6309 230.48 44.1509 229.184L46.9829 227.528C47.6389 229.24 48.9269 230.096 50.8469 230.096C51.7429 230.096 52.4149 229.936 52.8629 229.616C53.3109 229.296 53.5349 228.864 53.5349 228.32C53.5349 227.728 53.2709 227.272 52.7429 226.952C52.2149 226.616 51.2709 226.256 49.9109 225.872C48.4389 225.424 47.2789 224.904 46.4309 224.312C45.3749 223.528 44.8469 222.376 44.8469 220.856C44.8469 219.32 45.3829 218.112 46.4549 217.232C47.5269 216.32 48.8309 215.864 50.3669 215.864C51.7109 215.864 52.9029 216.192 53.9429 216.848C54.9829 217.504 55.7909 218.432 56.3669 219.632L53.5829 221.24C52.9109 219.8 51.8389 219.08 50.3669 219.08C49.6949 219.08 49.1589 219.24 48.7589 219.56C48.3589 219.864 48.1589 220.264 48.1589 220.76C48.1589 221.288 48.3749 221.72 48.8069 222.056C49.2869 222.392 50.1349 222.744 51.3509 223.112L52.5029 223.496C52.7109 223.56 53.0709 223.696 53.5829 223.904C54.0629 224.08 54.4149 224.248 54.6389 224.408C55.4229 224.888 55.9509 225.384 56.2229 225.896C56.6389 226.568 56.8469 227.36 56.8469 228.272C56.8469 229.824 56.2789 231.056 55.1429 231.968C54.0069 232.88 52.5429 233.336 50.7509 233.336ZM73.1493 233H69.5493L68.5413 229.976H61.8453L60.8373 233H57.2613L63.1413 216.2H67.2453L73.1493 233ZM65.2053 220.016L62.9013 226.88H67.5093L65.2053 220.016ZM89.368 233H85.768L84.76 229.976H78.064L77.056 233H73.48L79.36 216.2H83.464L89.368 233ZM81.424 220.016L79.12 226.88H83.728L81.424 220.016ZM96.3603 233.336C94.7123 233.336 93.3203 232.968 92.1843 232.232C91.0483 231.496 90.2403 230.48 89.7603 229.184L92.5923 227.528C93.2483 229.24 94.5363 230.096 96.4563 230.096C97.3523 230.096 98.0243 229.936 98.4723 229.616C98.9203 229.296 99.1443 228.864 99.1443 228.32C99.1443 227.728 98.8803 227.272 98.3523 226.952C97.8243 226.616 96.8803 226.256 95.5203 225.872C94.0483 225.424 92.8883 224.904 92.0403 224.312C90.9843 223.528 90.4563 222.376 90.4563 220.856C90.4563 219.32 90.9923 218.112 92.0643 217.232C93.1363 216.32 94.4403 215.864 95.9763 215.864C97.3203 215.864 98.5123 216.192 99.5523 216.848C100.592 217.504 101.4 218.432 101.976 219.632L99.1923 221.24C98.5203 219.8 97.4483 219.08 95.9763 219.08C95.3043 219.08 94.7683 219.24 94.3683 219.56C93.9683 219.864 93.7683 220.264 93.7683 220.76C93.7683 221.288 93.9843 221.72 94.4163 222.056C94.8963 222.392 95.7443 222.744 96.9603 223.112L98.1123 223.496C98.3203 223.56 98.6803 223.696 99.1923 223.904C99.6723 224.08 100.024 224.248 100.248 224.408C101.032 224.888 101.56 225.384 101.832 225.896C102.248 226.568 102.456 227.36 102.456 228.272C102.456 229.824 101.888 231.056 100.752 231.968C99.6163 232.88 98.1523 233.336 96.3603 233.336ZM113.359 227.24H104.359V224.264H113.359V227.24ZM116.476 216.2H129.028V233H125.716V219.368H119.788V233H116.476V216.2ZM130.86 233V229.928C131.884 230.072 132.636 229.864 133.116 229.304C133.596 228.728 133.836 227.672 133.836 226.136V216.2H145.26V233H141.972V219.368H137.124V226.04C137.124 228.936 136.46 230.896 135.132 231.92C133.996 232.816 132.572 233.176 130.86 233ZM162.774 233H159.174L158.166 229.976H151.47L150.462 233H146.886L152.766 216.2H156.87L162.774 233ZM154.83 220.016L152.526 226.88H157.134L154.83 220.016ZM161.939 216.2H174.299V219.368H169.763V233H166.451V219.368H161.939V216.2ZM184.817 231.416V233.36H181.577V231.416C179.225 231.176 177.361 230.464 175.985 229.28C174.609 228.08 173.921 226.52 173.921 224.6C173.921 222.68 174.609 221.128 175.985 219.944C177.345 218.744 179.209 218.024 181.577 217.784V215.84H184.817V217.784C187.137 217.992 189.001 218.704 190.409 219.92C191.801 221.12 192.497 222.68 192.497 224.6C192.497 226.52 191.801 228.08 190.409 229.28C189.001 230.496 187.137 231.208 184.817 231.416ZM184.817 220.784V228.392C187.729 228.056 189.185 226.792 189.185 224.6C189.185 222.392 187.729 221.12 184.817 220.784ZM177.209 224.6C177.209 226.792 178.665 228.048 181.577 228.368V220.808C178.665 221.128 177.209 222.392 177.209 224.6ZM208.729 230.816C207.033 232.496 204.969 233.336 202.537 233.336C200.105 233.336 198.041 232.496 196.345 230.816C194.665 229.104 193.825 227.032 193.825 224.6C193.825 222.152 194.665 220.088 196.345 218.408C198.041 216.712 200.105 215.864 202.537 215.864C204.969 215.864 207.033 216.712 208.729 218.408C210.425 220.088 211.273 222.152 211.273 224.6C211.273 227.048 210.425 229.12 208.729 230.816ZM198.673 228.56C199.697 229.584 200.985 230.096 202.537 230.096C204.089 230.096 205.377 229.584 206.401 228.56C207.441 227.52 207.961 226.2 207.961 224.6C207.961 223 207.441 221.68 206.401 220.64C205.361 219.6 204.073 219.08 202.537 219.08C201.001 219.08 199.713 219.6 198.673 220.64C197.633 221.68 197.113 223 197.113 224.6C197.113 226.2 197.633 227.52 198.673 228.56ZM213.601 216.2H219.865C221.465 216.2 222.825 216.744 223.945 217.832C225.049 218.92 225.601 220.256 225.601 221.84C225.601 223.424 225.049 224.76 223.945 225.848C222.825 226.936 221.465 227.48 219.865 227.48H216.913V233H213.601V216.2ZM216.913 224.384H219.865C220.569 224.384 221.153 224.144 221.617 223.664C222.081 223.168 222.313 222.56 222.313 221.84C222.313 221.104 222.081 220.496 221.617 220.016C221.153 219.536 220.569 219.296 219.865 219.296H216.913V224.384ZM240.789 216.2H244.197V233H240.909V222.104L236.181 229.904H235.797L231.069 222.128V233H227.757V216.2H231.165L235.989 224.144L240.789 216.2ZM253.591 233H247.327V216.2H250.639V221.72H253.591C255.191 221.72 256.551 222.264 257.671 223.352C258.775 224.44 259.327 225.776 259.327 227.36C259.327 228.944 258.775 230.28 257.671 231.368C256.551 232.456 255.191 233 253.591 233ZM264.151 233H260.863V216.2H264.151V233ZM250.639 224.816V229.904H253.591C254.295 229.904 254.879 229.664 255.343 229.184C255.807 228.704 256.039 228.096 256.039 227.36C256.039 226.624 255.807 226.016 255.343 225.536C254.879 225.056 254.295 224.816 253.591 224.816H250.639Z" fill="#1E959B"/>
<g filter="url(#filter1_d_330_700)">
<path d="M51 286C51 274.954 59.9543 266 71 266H237.582C248.628 266 257.582 274.954 257.582 286V308.063C257.582 319.109 248.627 328.063 237.582 328.063H71C59.9543 328.063 51 319.109 51 308.063V286Z" fill="#F05670"/>
</g>
<path d="M126.929 296.782C127.862 297.267 128.329 298.042 128.329 299.106C128.329 299.974 127.997 300.683 127.335 301.234C126.681 301.775 125.827 302.046 124.773 302.046C122.953 302.046 121.735 301.276 121.119 299.736L122.785 298.798C123.074 299.75 123.737 300.226 124.773 300.226C125.295 300.226 125.697 300.119 125.977 299.904C126.266 299.68 126.411 299.372 126.411 298.98C126.411 298.588 126.271 298.285 125.991 298.07C125.711 297.846 125.319 297.734 124.815 297.734H123.597V296.012H124.521C125.006 296.012 125.384 295.909 125.655 295.704C125.925 295.489 126.061 295.2 126.061 294.836C126.061 294.463 125.939 294.173 125.697 293.968C125.463 293.763 125.123 293.66 124.675 293.66C123.835 293.66 123.247 294.071 122.911 294.892L121.273 293.94C121.935 292.549 123.069 291.854 124.675 291.854C125.636 291.854 126.429 292.115 127.055 292.638C127.671 293.151 127.979 293.842 127.979 294.71C127.979 295.587 127.629 296.278 126.929 296.782ZM137.982 301.85H135.882L135.294 300.086H131.388L130.8 301.85H128.714L132.144 292.05H134.538L137.982 301.85ZM133.348 294.276L132.004 298.28H134.692L133.348 294.276ZM142.826 296.81L146.592 301.85H144.366L140.866 297.258V301.85H138.934V292.05H140.866V296.376L144.226 292.05H146.452L142.826 296.81ZM156.193 301.85H154.093L153.505 300.086H149.599L149.011 301.85H146.925L150.355 292.05H152.749L156.193 301.85ZM151.559 294.276L150.215 298.28H152.903L151.559 294.276ZM162.339 296.782C163.272 297.267 163.739 298.042 163.739 299.106C163.739 299.974 163.407 300.683 162.745 301.234C162.091 301.775 161.237 302.046 160.183 302.046C158.363 302.046 157.145 301.276 156.529 299.736L158.195 298.798C158.484 299.75 159.147 300.226 160.183 300.226C160.705 300.226 161.107 300.119 161.387 299.904C161.676 299.68 161.821 299.372 161.821 298.98C161.821 298.588 161.681 298.285 161.401 298.07C161.121 297.846 160.729 297.734 160.225 297.734H159.007V296.012H159.931C160.416 296.012 160.794 295.909 161.065 295.704C161.335 295.489 161.471 295.2 161.471 294.836C161.471 294.463 161.349 294.173 161.107 293.968C160.873 293.763 160.533 293.66 160.085 293.66C159.245 293.66 158.657 294.071 158.321 294.892L156.683 293.94C157.345 292.549 158.479 291.854 160.085 291.854C161.046 291.854 161.839 292.115 162.465 292.638C163.081 293.151 163.389 293.842 163.389 294.71C163.389 295.587 163.039 296.278 162.339 296.782ZM173.392 301.85H171.292L170.704 300.086H166.798L166.21 301.85H164.124L167.554 292.05H169.948L173.392 301.85ZM168.758 294.276L167.414 298.28H170.102L168.758 294.276ZM172.905 292.05H180.115V293.898H177.469V301.85H175.537V293.898H172.905V292.05ZM183.126 295.27H184.848C185.781 295.27 186.574 295.587 187.228 296.222C187.872 296.857 188.194 297.636 188.194 298.56C188.194 299.484 187.872 300.263 187.228 300.898C186.574 301.533 185.781 301.85 184.848 301.85H181.194V292.05H183.126V295.27ZM183.126 300.044H184.848C185.258 300.044 185.599 299.904 185.87 299.624C186.14 299.344 186.276 298.989 186.276 298.56C186.276 298.14 186.14 297.79 185.87 297.51C185.599 297.221 185.258 297.076 184.848 297.076H183.126V300.044Z" fill="white"/>
<path d="M200.985 141.241H190.512C189.124 141.239 187.793 140.687 186.811 139.705C185.829 138.723 185.277 137.392 185.275 136.004V113.312C185.277 111.924 185.829 110.593 186.811 109.611C187.793 108.629 189.124 108.077 190.512 108.076H200.985C202.373 108.077 203.705 108.629 204.686 109.611C205.668 110.593 206.22 111.924 206.222 113.312V136.004C206.22 137.392 205.668 138.723 204.686 139.705C203.705 140.687 202.373 141.239 200.985 141.241ZM190.512 111.567C190.049 111.567 189.606 111.751 189.278 112.078C188.951 112.406 188.767 112.849 188.766 113.312V136.004C188.767 136.467 188.951 136.91 189.278 137.238C189.606 137.565 190.049 137.749 190.512 137.75H200.985C201.448 137.749 201.892 137.565 202.219 137.238C202.546 136.91 202.73 136.467 202.731 136.004V113.312C202.73 112.849 202.546 112.406 202.219 112.078C201.892 111.751 201.448 111.567 200.985 111.567H190.512Z" fill="#F8FFFF"/>
<path d="M195.748 136.004C196.712 136.004 197.494 135.222 197.494 134.258C197.494 133.294 196.712 132.513 195.748 132.513C194.784 132.513 194.003 133.294 194.003 134.258C194.003 135.222 194.784 136.004 195.748 136.004Z" fill="#F8FFFF"/>
<path d="M194.003 115.058C194.003 116.022 194.784 116.803 195.748 116.803C196.712 116.803 197.494 116.022 197.494 115.058C197.494 114.094 196.712 113.312 195.748 113.312C194.784 113.312 194.003 114.094 194.003 115.058Z" fill="#F8FFFF"/>
<path d="M101.49 109.821H101.486L105.978 130.767L101.49 109.821ZM105.978 130.767V130.794C106.155 130.776 106.334 130.767 106.515 130.767H105.978ZM101.49 109.821H101.486L105.978 130.767L101.49 109.821ZM105.978 130.767V130.794C106.155 130.776 106.334 130.767 106.515 130.767H105.978Z" fill="#F8FFFF"/>
<path d="M159.54 130.767H138.181C138.181 130.522 138.155 130.277 138.103 130.037L133.612 109.09C133.442 108.311 133.011 107.612 132.391 107.111C131.77 106.609 130.998 106.334 130.2 106.33H101.49C100.97 106.33 100.456 106.446 99.9861 106.671C99.5165 106.895 99.1029 107.221 98.7757 107.626C98.4486 108.031 98.2161 108.504 98.0953 109.01C97.9745 109.516 97.9685 110.043 98.0776 110.552L102.566 131.498C102.624 131.769 102.715 132.031 102.836 132.28C102.097 133.009 101.592 133.942 101.384 134.959C101.177 135.977 101.276 137.033 101.671 137.994C102.065 138.954 102.736 139.776 103.599 140.354C104.462 140.932 105.477 141.241 106.515 141.241H159.54C160.929 141.241 162.261 140.689 163.243 139.707C164.225 138.725 164.776 137.393 164.776 136.004C164.776 134.615 164.225 133.283 163.243 132.301C162.261 131.319 160.929 130.767 159.54 130.767H159.54ZM130.2 109.821L134.688 130.767H112.411L107.918 109.821H130.2H130.2ZM101.486 109.821H104.429C104.429 110.067 104.456 110.312 104.508 110.552L108.839 130.767H106.515C106.334 130.767 106.155 130.776 105.978 130.794V130.767L101.486 109.821ZM133.357 137.75H106.515C106.052 137.75 105.608 137.566 105.281 137.238C104.953 136.911 104.77 136.467 104.77 136.004C104.77 135.541 104.953 135.097 105.281 134.77C105.608 134.442 106.052 134.259 106.515 134.259H133.357C133.82 134.259 134.264 134.442 134.591 134.77C134.919 135.097 135.102 135.541 135.102 136.004C135.102 136.467 134.919 136.911 134.591 137.238C134.264 137.566 133.82 137.75 133.357 137.75H133.357ZM159.54 137.75H138.292C138.694 136.621 138.694 135.388 138.292 134.259H159.54C160.003 134.259 160.447 134.442 160.774 134.77C161.101 135.097 161.285 135.541 161.285 136.004C161.285 136.467 161.101 136.911 160.774 137.238C160.447 137.566 160.003 137.75 159.54 137.75Z" fill="#F8FFFF"/>
<path d="M177.421 129.022C175.01 129.022 173.057 130.976 173.057 133.386V133.846C173.054 134.695 173.289 135.528 173.736 136.251C174.182 136.973 174.822 137.556 175.583 137.933C175.935 138.109 176.217 138.398 176.384 138.755C176.551 139.111 176.593 139.513 176.502 139.896C176.412 140.279 176.195 140.62 175.886 140.864C175.578 141.108 175.196 141.241 174.802 141.241H169.566C168.602 141.241 167.82 140.459 167.82 139.495V138.769C167.82 138.206 168.277 137.75 168.84 137.75C169.615 137.75 170.121 136.904 169.9 136.161C169.678 135.413 169.564 134.633 169.566 133.846C169.566 131.182 167.406 129.022 164.741 129.022H143.383C142.419 129.022 141.637 128.24 141.637 127.276C141.637 126.312 142.419 125.531 143.383 125.531H180.039C181.003 125.531 181.784 126.312 181.784 127.276C181.784 128.24 181.003 129.022 180.039 129.022H177.421Z" fill="#F8FFFF"/>
<path d="M197.494 102.839C197.494 103.803 196.713 104.585 195.749 104.585C194.785 104.585 194.003 103.803 194.003 102.839V87.5657C194.002 86.9872 193.772 86.4326 193.363 86.0236C192.954 85.6145 192.4 85.3844 191.821 85.3838H139.892C138.503 85.3853 137.172 85.9375 136.191 86.9193C135.209 87.901 134.657 89.232 134.655 90.6203V101.094C134.655 102.058 133.874 102.839 132.91 102.839C131.946 102.839 131.164 102.058 131.164 101.094V90.6203C131.167 88.3064 132.087 86.0881 133.723 84.4519C135.359 82.8157 137.578 81.8953 139.892 81.8927H191.821C193.325 81.8944 194.767 82.4926 195.831 83.5561C196.894 84.6197 197.492 86.0616 197.494 87.5657V102.839Z" fill="#F8FFFF"/>
<path d="M180.039 118.549H141.637C140.673 118.549 139.892 119.33 139.892 120.294C139.892 121.258 140.673 122.04 141.637 122.04H180.039C181.003 122.04 181.784 121.258 181.784 120.294C181.784 119.33 181.003 118.549 180.039 118.549Z" fill="#F8FFFF"/>
<path d="M117.2 67.9284C117.2 68.6852 117.235 69.4415 117.304 70.1947C117.355 70.7446 116.972 71.2475 116.425 71.3207L114.946 71.5184C114.399 71.5915 113.894 71.2076 113.841 70.6581C113.839 70.637 113.837 70.6159 113.835 70.5947C113.767 69.8819 113.016 69.4328 112.411 69.8158C110.509 71.0204 108.967 72.7334 107.969 74.774C106.749 77.2686 106.416 80.1042 107.022 82.814C107.629 85.5237 109.141 87.9461 111.308 89.6822C113.475 91.4184 116.169 92.3649 118.946 92.3658H125.928C126.892 92.3658 127.673 93.1473 127.673 94.1113C127.673 95.0754 126.892 95.8569 125.928 95.8569H118.946C115.228 95.8563 111.631 94.5377 108.794 92.1354C105.958 89.7332 104.064 86.4029 103.451 82.7364C102.838 79.0699 103.545 75.3048 105.446 72.1101C107.237 69.1002 109.979 66.7804 113.23 65.5101C113.595 65.3675 113.856 65.0377 113.902 64.6487C114.699 57.9773 117.873 51.8073 122.854 47.277C127.746 42.8272 134.049 40.2626 140.636 40.0191C141.189 39.9987 141.637 40.4484 141.637 41.0012V42.4922C141.637 43.044 141.19 43.4894 140.639 43.5125C134.523 43.7689 128.711 46.311 124.365 50.6564C119.784 55.2378 117.207 61.4494 117.2 67.9284Z" fill="#F8FFFF"/>
<path d="M197.056 76.4669C197.283 77.4049 196.595 78.2826 195.637 78.402C194.682 78.5212 193.823 77.8393 193.568 76.9115C192.94 74.6296 191.659 72.5658 189.865 70.9842C187.633 69.0165 184.76 67.9301 181.784 67.9284C181.272 67.9294 180.761 67.9629 180.253 68.0288C180.005 68.0598 179.754 68.0372 179.515 67.9628C179.277 67.8883 179.058 67.7637 178.872 67.5972C178.686 67.4307 178.538 67.2263 178.438 66.9978C178.338 66.7693 178.288 66.5219 178.291 66.2724L178.293 66.1851C178.294 64.9052 177.943 63.6497 177.279 62.5558C176.614 61.462 175.662 60.572 174.525 59.9831C173.389 59.3943 172.112 59.1294 170.836 59.2173C169.559 59.3052 168.331 59.7426 167.286 60.4816C167.066 60.6369 166.813 60.7393 166.548 60.7809C166.282 60.8225 166.01 60.8022 165.754 60.7215C165.497 60.6408 165.263 60.502 165.068 60.3158C164.874 60.1296 164.726 59.9011 164.635 59.6481C162.922 54.921 159.797 50.8351 155.683 47.9448C151.569 45.0545 146.665 43.4996 141.637 43.4911V40C147.035 40.0098 152.315 41.5786 156.842 44.5176C161.369 47.4567 164.951 51.6409 167.157 56.5672C168.614 55.9382 170.196 55.6487 171.782 55.7205C173.367 55.7922 174.916 56.2234 176.311 56.9814C177.706 57.7394 178.91 58.8045 179.833 60.0961C180.756 61.3878 181.373 62.8722 181.638 64.4374H181.784C185.61 64.4403 189.304 65.838 192.174 68.3688C194.604 70.5124 196.302 73.3442 197.056 76.4669Z" fill="#F8FFFF"/>
<defs>
<filter id="filter0_d_330_700" x="0" y="38" width="309" height="325" filterUnits="userSpaceOnUse" color-interpolation-filters="sRGB">
<feFlood flood-opacity="0" result="BackgroundImageFix"/>
<feColorMatrix in="SourceAlpha" type="matrix" values="0 0 0 0 0 0 0 0 0 0 0 0 0 0 0 0 0 0 127 0" result="hardAlpha"/>
<feOffset dy="5"/>
<feGaussianBlur stdDeviation="5"/>
<feColorMatrix type="matrix" values="0 0 0 0 0.117647 0 0 0 0 0.584314 0 0 0 0 0.607843 0 0 0 0.5 0"/>
<feBlend mode="normal" in2="BackgroundImageFix" result="effect1_dropShadow_330_700"/>
<feBlend mode="normal" in="SourceGraphic" in2="effect1_dropShadow_330_700" result="shape"/>
</filter>
<filter id="filter1_d_330_700" x="41" y="261" width="226.582" height="82.0632" filterUnits="userSpaceOnUse" color-interpolation-filters="sRGB">
<feFlood flood-opacity="0" result="BackgroundImageFix"/>
<feColorMatrix in="SourceAlpha" type="matrix" values="0 0 0 0 0 0 0 0 0 0 0 0 0 0 0 0 0 0 127 0" result="hardAlpha"/>
<feOffset dy="5"/>
<feGaussianBlur stdDeviation="5"/>
<feColorMatrix type="matrix" values="0 0 0 0 0.117647 0 0 0 0 0.584314 0 0 0 0 0.607843 0 0 0 0.5 0"/>
<feBlend mode="normal" in2="BackgroundImageFix" result="effect1_dropShadow_330_700"/>
<feBlend mode="normal" in="SourceGraphic" in2="effect1_dropShadow_330_700" result="shape"/>
</filter>
<linearGradient id="paint0_linear_330_700" x1="154.5" y1="43" x2="154.5" y2="348" gradientUnits="userSpaceOnUse">
<stop stop-color="white"/>
<stop offset="1" stop-color="#F7F9FD"/>
</linearGradient>
</defs>
</svg>
