<svg width="309" height="363" viewBox="0 0 309 363" fill="none" xmlns="http://www.w3.org/2000/svg">
<g filter="url(#filter0_d_330_701)">
<rect x="10" y="43" width="289" height="305" rx="30" fill="url(#paint0_linear_330_701)"/>
</g>
<path d="M152 182C202.258 182 243 141.258 243 91C243 40.7421 202.258 0 152 0C101.742 0 61 40.7421 61 91C61 141.258 101.742 182 152 182Z" fill="#1E959B"/>
<path d="M95.7578 201.2H99.1658V218H95.8778V207.104L91.1498 214.904H90.7658L86.0378 207.128V218H82.7258V201.2H86.1338L90.9578 209.144L95.7578 201.2ZM116.432 215.816C114.736 217.496 112.672 218.336 110.24 218.336C107.808 218.336 105.744 217.496 104.048 215.816C102.368 214.104 101.528 212.032 101.528 209.6C101.528 207.152 102.368 205.088 104.048 203.408C105.744 201.712 107.808 200.864 110.24 200.864C112.672 200.864 114.736 201.712 116.432 203.408C118.128 205.088 118.976 207.152 118.976 209.6C118.976 212.048 118.128 214.12 116.432 215.816ZM106.376 213.56C107.4 214.584 108.688 215.096 110.24 215.096C111.792 215.096 113.08 214.584 114.104 213.56C115.144 212.52 115.664 211.2 115.664 209.6C115.664 208 115.144 206.68 114.104 205.64C113.064 204.6 111.776 204.08 110.24 204.08C108.704 204.08 107.416 204.6 106.376 205.64C105.336 206.68 104.816 208 104.816 209.6C104.816 211.2 105.336 212.52 106.376 213.56ZM124.616 207.56H127.736C129.384 207.56 130.72 208.048 131.744 209.024C132.784 209.984 133.304 211.232 133.304 212.768C133.304 214.304 132.784 215.568 131.744 216.56C130.72 217.52 129.384 218 127.736 218H121.304V201.2H131.864V204.368H124.616V207.56ZM124.616 214.904H127.736C128.408 214.904 128.952 214.712 129.368 214.328C129.8 213.944 130.016 213.424 130.016 212.768C130.016 212.112 129.8 211.6 129.368 211.232C128.952 210.848 128.408 210.656 127.736 210.656H124.616V214.904ZM148.375 218H145.063V207.752L137.863 218H135.343V201.2H138.655V211.472L145.855 201.2H148.375V218ZM150.195 218V214.928C151.219 215.072 151.971 214.864 152.451 214.304C152.931 213.728 153.171 212.672 153.171 211.136V201.2H164.595V218H161.307V204.368H156.459V211.04C156.459 213.936 155.795 215.896 154.467 216.92C153.331 217.816 151.907 218.176 150.195 218ZM171.022 206.72H173.974C175.574 206.72 176.934 207.264 178.054 208.352C179.158 209.44 179.71 210.776 179.71 212.36C179.71 213.944 179.158 215.28 178.054 216.368C176.934 217.456 175.574 218 173.974 218H167.71V201.2H171.022V206.72ZM171.022 214.904H173.974C174.678 214.904 175.262 214.664 175.726 214.184C176.19 213.704 176.422 213.096 176.422 212.36C176.422 211.64 176.19 211.04 175.726 210.56C175.262 210.064 174.678 209.816 173.974 209.816H171.022V214.904ZM191.418 207.872V201.2H194.706V218H191.418V211.04H185.178V218H181.866V201.2H185.178V207.872H191.418ZM211.963 215.816C210.267 217.496 208.203 218.336 205.771 218.336C203.339 218.336 201.275 217.496 199.579 215.816C197.899 214.104 197.059 212.032 197.059 209.6C197.059 207.152 197.899 205.088 199.579 203.408C201.275 201.712 203.339 200.864 205.771 200.864C208.203 200.864 210.267 201.712 211.963 203.408C213.659 205.088 214.507 207.152 214.507 209.6C214.507 212.048 213.659 214.12 211.963 215.816ZM201.907 213.56C202.931 214.584 204.219 215.096 205.771 215.096C207.323 215.096 208.611 214.584 209.635 213.56C210.675 212.52 211.195 211.2 211.195 209.6C211.195 208 210.675 206.68 209.635 205.64C208.595 204.6 207.307 204.08 205.771 204.08C204.235 204.08 202.947 204.6 201.907 205.64C200.867 206.68 200.347 208 200.347 209.6C200.347 211.2 200.867 212.52 201.907 213.56ZM220.147 211.064V214.832H227.227V218H216.835V201.2H227.107V204.368H220.147V207.944H226.507V211.064H220.147ZM76.6204 231.2H89.1724V248H85.8604V234.368H79.9324V248H76.6204V231.2ZM92.3001 231.2H98.5641C100.164 231.2 101.524 231.744 102.644 232.832C103.748 233.92 104.3 235.256 104.3 236.84C104.3 238.424 103.748 239.76 102.644 240.848C101.524 241.936 100.164 242.48 98.5641 242.48H95.6121V248H92.3001V231.2ZM95.6121 239.384H98.5641C99.2681 239.384 99.8521 239.144 100.316 238.664C100.78 238.168 101.012 237.56 101.012 236.84C101.012 236.104 100.78 235.496 100.316 235.016C99.8521 234.536 99.2681 234.296 98.5641 234.296H95.6121V239.384ZM119.488 248H116.176V237.752L108.976 248H106.456V231.2H109.768V241.472L116.968 231.2H119.488V248ZM121.309 248V244.928C122.333 245.072 123.085 244.864 123.565 244.304C124.045 243.728 124.285 242.672 124.285 241.136V231.2H135.709V248H132.421V234.368H127.573V241.04C127.573 243.936 126.909 245.896 125.581 246.92C124.445 247.816 123.021 248.176 121.309 248ZM152.959 245.816C151.263 247.496 149.199 248.336 146.767 248.336C144.335 248.336 142.271 247.496 140.575 245.816C138.895 244.104 138.055 242.032 138.055 239.6C138.055 237.152 138.895 235.088 140.575 233.408C142.271 231.712 144.335 230.864 146.767 230.864C149.199 230.864 151.263 231.712 152.959 233.408C154.655 235.088 155.503 237.152 155.503 239.6C155.503 242.048 154.655 244.12 152.959 245.816ZM142.903 243.56C143.927 244.584 145.215 245.096 146.767 245.096C148.319 245.096 149.607 244.584 150.631 243.56C151.671 242.52 152.191 241.2 152.191 239.6C152.191 238 151.671 236.68 150.631 235.64C149.591 234.6 148.303 234.08 146.767 234.08C145.231 234.08 143.943 234.6 142.903 235.64C141.863 236.68 141.343 238 141.343 239.6C141.343 241.2 141.863 242.52 142.903 243.56ZM170.394 239.432L176.25 248H172.554L167.346 240.344V248H164.034V240.344L158.826 248H155.154L160.986 239.432L155.394 231.2H159.066L164.034 238.688V231.2H167.346V238.688L172.314 231.2H176.01L170.394 239.432ZM181.417 241.064V244.832H188.497V248H178.105V231.2H188.377V234.368H181.417V237.944H187.777V241.064H181.417ZM200.383 237.872V231.2H203.671V248H200.383V241.04H194.143V248H190.831V231.2H194.143V237.872H200.383ZM219.824 248H216.512V237.752L209.312 248H206.792V231.2H210.104V241.472L217.304 231.2H219.824V248ZM226.253 241.064V244.832H233.333V248H222.941V231.2H233.213V234.368H226.253V237.944H232.613V241.064H226.253Z" fill="#1E959B"/>
<g filter="url(#filter1_d_330_701)">
<path d="M51 286C51 274.954 59.9543 266 71 266H237.582C248.628 266 257.582 274.954 257.582 286V308.063C257.582 319.109 248.627 328.063 237.582 328.063H71C59.9543 328.063 51 319.109 51 308.063V286Z" fill="#F05670"/>
</g>
<path d="M126.929 296.782C127.862 297.267 128.329 298.042 128.329 299.106C128.329 299.974 127.997 300.683 127.335 301.234C126.681 301.775 125.827 302.046 124.773 302.046C122.953 302.046 121.735 301.276 121.119 299.736L122.785 298.798C123.074 299.75 123.737 300.226 124.773 300.226C125.295 300.226 125.697 300.119 125.977 299.904C126.266 299.68 126.411 299.372 126.411 298.98C126.411 298.588 126.271 298.285 125.991 298.07C125.711 297.846 125.319 297.734 124.815 297.734H123.597V296.012H124.521C125.006 296.012 125.384 295.909 125.655 295.704C125.925 295.489 126.061 295.2 126.061 294.836C126.061 294.463 125.939 294.173 125.697 293.968C125.463 293.763 125.123 293.66 124.675 293.66C123.835 293.66 123.247 294.071 122.911 294.892L121.273 293.94C121.935 292.549 123.069 291.854 124.675 291.854C125.636 291.854 126.429 292.115 127.055 292.638C127.671 293.151 127.979 293.842 127.979 294.71C127.979 295.587 127.629 296.278 126.929 296.782ZM137.982 301.85H135.882L135.294 300.086H131.388L130.8 301.85H128.714L132.144 292.05H134.538L137.982 301.85ZM133.348 294.276L132.004 298.28H134.692L133.348 294.276ZM142.826 296.81L146.592 301.85H144.366L140.866 297.258V301.85H138.934V292.05H140.866V296.376L144.226 292.05H146.452L142.826 296.81ZM156.193 301.85H154.093L153.505 300.086H149.599L149.011 301.85H146.925L150.355 292.05H152.749L156.193 301.85ZM151.559 294.276L150.215 298.28H152.903L151.559 294.276ZM162.339 296.782C163.272 297.267 163.739 298.042 163.739 299.106C163.739 299.974 163.407 300.683 162.745 301.234C162.091 301.775 161.237 302.046 160.183 302.046C158.363 302.046 157.145 301.276 156.529 299.736L158.195 298.798C158.484 299.75 159.147 300.226 160.183 300.226C160.705 300.226 161.107 300.119 161.387 299.904C161.676 299.68 161.821 299.372 161.821 298.98C161.821 298.588 161.681 298.285 161.401 298.07C161.121 297.846 160.729 297.734 160.225 297.734H159.007V296.012H159.931C160.416 296.012 160.794 295.909 161.065 295.704C161.335 295.489 161.471 295.2 161.471 294.836C161.471 294.463 161.349 294.173 161.107 293.968C160.873 293.763 160.533 293.66 160.085 293.66C159.245 293.66 158.657 294.071 158.321 294.892L156.683 293.94C157.345 292.549 158.479 291.854 160.085 291.854C161.046 291.854 161.839 292.115 162.465 292.638C163.081 293.151 163.389 293.842 163.389 294.71C163.389 295.587 163.039 296.278 162.339 296.782ZM173.392 301.85H171.292L170.704 300.086H166.798L166.21 301.85H164.124L167.554 292.05H169.948L173.392 301.85ZM168.758 294.276L167.414 298.28H170.102L168.758 294.276ZM172.905 292.05H180.115V293.898H177.469V301.85H175.537V293.898H172.905V292.05ZM183.126 295.27H184.848C185.781 295.27 186.574 295.587 187.228 296.222C187.872 296.857 188.194 297.636 188.194 298.56C188.194 299.484 187.872 300.263 187.228 300.898C186.574 301.533 185.781 301.85 184.848 301.85H181.194V292.05H183.126V295.27ZM183.126 300.044H184.848C185.258 300.044 185.599 299.904 185.87 299.624C186.14 299.344 186.276 298.989 186.276 298.56C186.276 298.14 186.14 297.79 185.87 297.51C185.599 297.221 185.258 297.076 184.848 297.076H183.126V300.044Z" fill="white"/>
<path d="M206.223 97.8569C206.223 86.181 197.987 76.4043 187.022 73.999V50.7276C187.022 45.9152 183.107 42 178.294 42H132.911C128.098 42 124.183 45.9152 124.183 50.7276V69.9284H114.092L113.039 74.1456L109.315 71.9096L99.9794 81.2395L102.215 84.9679L98 86.0205V99.2201L102.217 100.273L99.9794 104.001L109.313 113.333L113.038 111.097L114.092 115.312H124.183V141.495C124.183 146.307 128.098 150.223 132.911 150.223H178.294C183.107 150.223 187.022 146.307 187.022 141.495V121.715C197.987 119.309 206.223 109.533 206.223 97.8569ZM202.732 97.8569C202.732 101.259 201.899 104.464 200.454 107.307C199.485 104.642 197.256 102.545 194.376 101.824L187.022 99.9847V99.5675C189.197 97.9284 190.513 95.3503 190.513 92.622V89.131C190.513 86.6925 189.481 84.3465 187.682 82.6952C185.884 81.0492 183.447 80.2218 181.01 80.4365C176.55 80.8223 173.058 84.8021 173.058 89.4906V92.6203C173.058 95.3486 174.374 97.9267 176.549 99.5657V99.9829L169.195 101.823C166.315 102.544 164.086 104.64 163.117 107.305C161.672 104.464 160.839 101.259 160.839 97.8569C160.839 86.3067 170.235 76.9105 181.785 76.9105C193.335 76.9105 202.732 86.3067 202.732 97.8569ZM176.549 73.999C175.348 74.2626 174.185 74.6257 173.058 75.0585V74.9284C173.058 72.167 170.819 69.9284 168.058 69.9284H143.147C140.386 69.9284 138.147 72.167 138.147 74.9284V89.3658C138.147 92.1272 140.386 94.3658 143.147 94.3658H157.627C157.461 95.5091 157.348 96.6682 157.348 97.8569C157.348 109.533 165.583 119.309 176.549 121.715C176.549 123.963 174.726 125.785 172.478 125.785H139.656C136.895 125.785 134.656 123.547 134.656 120.785V71.4374C134.656 68.676 136.895 66.4374 139.656 66.4374H171.549C174.31 66.4374 176.549 68.676 176.549 71.4374V73.999ZM158.378 90.8748H146.638C143.877 90.8748 141.638 88.6362 141.638 85.8748V78.4195C141.638 75.6581 143.877 73.4195 146.638 73.4195H166.261C168.086 73.4195 169.567 74.8997 169.567 76.7255C164.236 79.8203 160.176 84.8579 158.378 90.8748ZM132.911 45.4911H178.294C181.181 45.4911 183.531 47.8405 183.531 50.7276V55.9642H127.674V50.7276C127.674 47.8405 130.023 45.4911 132.911 45.4911ZM124.183 100.601C123.081 101.086 121.893 101.348 120.692 101.348C115.879 101.348 111.964 97.4327 111.964 92.6203C111.964 87.8079 115.879 83.8927 120.692 83.8927C121.893 83.8927 123.081 84.1545 124.183 84.6397V100.601ZM116.819 111.821L115.968 108.419L115.614 107.485L113.621 106.675L109.854 108.937L104.376 103.458L106.639 99.6897L105.766 97.5601L101.491 96.4936V88.747L105.761 87.6805L106.639 85.5509L104.376 81.7823L109.854 76.3031L113.621 78.5653L115.75 77.6995L116.819 73.4195H124.183V80.934C123.05 80.5936 121.877 80.4016 120.692 80.4016C113.954 80.4016 108.473 85.8843 108.473 92.6203C108.473 99.3563 113.954 104.839 120.692 104.839C121.877 104.839 123.05 104.647 124.183 104.307V111.821H116.819ZM178.294 146.732H132.911C130.023 146.732 127.674 144.382 127.674 141.495V141.258C127.674 138.497 129.913 136.258 132.674 136.258H183.531V141.495C183.531 144.382 181.181 146.732 178.294 146.732ZM183.531 127.767C183.531 130.529 181.292 132.767 178.531 132.767H132.674C129.913 132.767 127.674 130.529 127.674 127.767V59.4553H183.531V73.5085C182.951 73.4666 182.375 73.4195 181.785 73.4195C181.195 73.4195 180.619 73.4666 180.04 73.5085V67.9463C180.04 65.1849 177.801 62.9463 175.04 62.9463H136.165C133.404 62.9463 131.165 65.1849 131.165 67.9463V124.276C131.165 127.038 133.404 129.276 136.165 129.276H175.04C177.801 129.276 180.04 127.038 180.04 124.276V122.205C180.619 122.247 181.195 122.294 181.785 122.294C182.375 122.294 182.951 122.247 183.531 122.205V127.767ZM181.785 118.803C175.528 118.803 169.917 116.03 166.076 111.666V110.29C166.076 107.883 167.708 105.794 170.041 105.209L177.201 103.42C178.869 103.004 180.04 101.505 180.04 99.7854V98.6335C180.04 98.0122 179.709 97.4378 179.172 97.1255C177.53 96.169 176.549 94.4845 176.549 92.6203V89.4906C176.549 86.5947 178.642 84.1458 181.312 83.9136C182.81 83.7932 184.229 84.2645 185.324 85.2681C186.402 86.2578 187.022 87.6647 187.022 89.1292V92.6203C187.022 94.4845 186.041 96.169 184.398 97.1255C183.861 97.4378 183.531 98.0122 183.531 98.6335V99.7854C183.531 101.505 184.701 103.004 186.369 103.42L193.529 105.209C195.863 105.794 197.495 107.883 197.495 110.29V111.666C193.653 116.03 188.043 118.803 181.785 118.803Z" fill="#F8FFFF"/>
<path d="M162.584 50.7276C162.584 49.7636 163.366 48.9821 164.33 48.9821C165.294 48.9821 166.076 49.7636 166.076 50.7276C166.076 51.6916 165.294 52.4731 164.33 52.4731C163.366 52.4731 162.584 51.6916 162.584 50.7276Z" fill="#F8FFFF"/>
<path d="M145.129 50.7276C145.129 49.7636 145.911 48.9821 146.875 48.9821H157.348C158.312 48.9821 159.094 49.7636 159.094 50.7276C159.094 51.6916 158.312 52.4731 157.348 52.4731H146.875C145.911 52.4731 145.129 51.6916 145.129 50.7276Z" fill="#F8FFFF"/>
<path d="M148.62 141.495C148.62 140.531 149.402 139.75 150.366 139.75H160.839C161.803 139.75 162.584 140.531 162.584 141.495C162.584 142.459 161.803 143.241 160.839 143.241H150.366C149.402 143.241 148.62 142.459 148.62 141.495Z" fill="#F8FFFF"/>
<path d="M173.058 141.495C173.058 140.531 173.839 139.75 174.803 139.75C175.767 139.75 176.549 140.531 176.549 141.495C176.549 142.459 175.767 143.241 174.803 143.241C173.839 143.241 173.058 142.459 173.058 141.495Z" fill="#F8FFFF"/>
<path d="M134.656 141.495C134.656 140.531 135.438 139.75 136.402 139.75C137.366 139.75 138.147 140.531 138.147 141.495C138.147 142.459 137.366 143.241 136.402 143.241C135.438 143.241 134.656 142.459 134.656 141.495Z" fill="#F8FFFF"/>
<path d="M138.147 99.6025C138.147 98.6384 138.928 97.8569 139.892 97.8569H152.111C153.075 97.8569 153.857 98.6384 153.857 99.6025C153.857 100.566 153.075 101.348 152.111 101.348H139.892C138.928 101.348 138.147 100.566 138.147 99.6025Z" fill="#F8FFFF"/>
<path d="M138.147 106.585C138.147 105.62 138.928 104.839 139.893 104.839H152.111C153.075 104.839 153.857 105.62 153.857 106.585C153.857 107.549 153.075 108.33 152.111 108.33H139.893C138.928 108.33 138.147 107.549 138.147 106.585Z" fill="#F8FFFF"/>
<path d="M138.147 113.567C138.147 112.603 138.928 111.821 139.892 111.821H152.111C153.075 111.821 153.857 112.603 153.857 113.567C153.857 114.531 153.075 115.312 152.111 115.312H139.892C138.928 115.312 138.147 114.531 138.147 113.567Z" fill="#F8FFFF"/>
<path d="M138.147 120.549C138.147 119.585 138.928 118.803 139.892 118.803H152.111C153.075 118.803 153.857 119.585 153.857 120.549C153.857 121.513 153.075 122.294 152.111 122.294H139.892C138.928 122.294 138.147 121.513 138.147 120.549Z" fill="#F8FFFF"/>
<path d="M195.75 73.4194C198.637 73.4194 200.986 71.07 200.986 68.1829C200.986 67.1712 200.696 66.2295 200.195 65.4321C199.071 63.6419 197.495 61.856 197.495 59.742V50.7276C197.495 49.7636 196.714 48.9821 195.75 48.9821C194.786 48.9821 194.004 49.7636 194.004 50.7276V59.742C194.004 61.856 192.428 63.6419 191.304 65.4321C190.803 66.2295 190.513 67.1712 190.513 68.1829C190.513 71.07 192.863 73.4194 195.75 73.4194ZM195.75 66.4373C196.712 66.4373 197.495 67.2193 197.495 68.1829C197.495 69.1464 196.712 69.9284 195.75 69.9284C194.788 69.9284 194.004 69.1464 194.004 68.1829C194.004 67.2193 194.788 66.4373 195.75 66.4373Z" fill="#F8FFFF"/>
<path d="M194.004 43.7455C194.004 42.7815 194.785 42 195.749 42C196.713 42 197.495 42.7815 197.495 43.7455C197.495 44.7096 196.713 45.4911 195.749 45.4911C194.785 45.4911 194.004 44.7096 194.004 43.7455Z" fill="#F8FFFF"/>
<path d="M115.455 118.803C112.568 118.803 110.219 121.153 110.219 124.04C110.219 125.051 110.509 125.993 111.01 126.791C112.134 128.581 113.71 130.367 113.71 132.481V141.495C113.71 142.459 114.491 143.241 115.455 143.241C116.419 143.241 117.201 142.459 117.201 141.495V132.481C117.201 130.367 118.777 128.581 119.901 126.791C120.402 125.993 120.692 125.051 120.692 124.04C120.692 121.153 118.342 118.803 115.455 118.803ZM115.455 125.785C114.494 125.785 113.71 125.003 113.71 124.04C113.71 123.076 114.494 122.294 115.455 122.294C116.417 122.294 117.201 123.076 117.201 124.04C117.201 125.003 116.417 125.785 115.455 125.785Z" fill="#F8FFFF"/>
<path d="M113.71 148.477C113.71 147.513 114.491 146.732 115.455 146.732C116.42 146.732 117.201 147.513 117.201 148.477C117.201 149.441 116.42 150.223 115.455 150.223C114.491 150.223 113.71 149.441 113.71 148.477Z" fill="#F8FFFF"/>
<defs>
<filter id="filter0_d_330_701" x="0" y="38" width="309" height="325" filterUnits="userSpaceOnUse" color-interpolation-filters="sRGB">
<feFlood flood-opacity="0" result="BackgroundImageFix"/>
<feColorMatrix in="SourceAlpha" type="matrix" values="0 0 0 0 0 0 0 0 0 0 0 0 0 0 0 0 0 0 127 0" result="hardAlpha"/>
<feOffset dy="5"/>
<feGaussianBlur stdDeviation="5"/>
<feColorMatrix type="matrix" values="0 0 0 0 0.117647 0 0 0 0 0.584314 0 0 0 0 0.607843 0 0 0 0.5 0"/>
<feBlend mode="normal" in2="BackgroundImageFix" result="effect1_dropShadow_330_701"/>
<feBlend mode="normal" in="SourceGraphic" in2="effect1_dropShadow_330_701" result="shape"/>
</filter>
<filter id="filter1_d_330_701" x="41" y="261" width="226.582" height="82.0632" filterUnits="userSpaceOnUse" color-interpolation-filters="sRGB">
<feFlood flood-opacity="0" result="BackgroundImageFix"/>
<feColorMatrix in="SourceAlpha" type="matrix" values="0 0 0 0 0 0 0 0 0 0 0 0 0 0 0 0 0 0 127 0" result="hardAlpha"/>
<feOffset dy="5"/>
<feGaussianBlur stdDeviation="5"/>
<feColorMatrix type="matrix" values="0 0 0 0 0.117647 0 0 0 0 0.584314 0 0 0 0 0.607843 0 0 0 0.5 0"/>
<feBlend mode="normal" in2="BackgroundImageFix" result="effect1_dropShadow_330_701"/>
<feBlend mode="normal" in="SourceGraphic" in2="effect1_dropShadow_330_701" result="shape"/>
</filter>
<linearGradient id="paint0_linear_330_701" x1="154.5" y1="43" x2="154.5" y2="348" gradientUnits="userSpaceOnUse">
<stop stop-color="white"/>
<stop offset="1" stop-color="#F7F9FD"/>
</linearGradient>
</defs>
</svg>
