<svg width="309" height="363" viewBox="0 0 309 363" fill="none" xmlns="http://www.w3.org/2000/svg">
<g filter="url(#filter0_d_330_702)">
<rect x="10" y="43" width="289" height="305" rx="30" fill="url(#paint0_linear_330_702)"/>
</g>
<path d="M152 182C202.258 182 243 141.258 243 91C243 40.7421 202.258 0 152 0C101.742 0 61 40.7421 61 91C61 141.258 101.742 182 152 182Z" fill="#1E959B"/>
<path d="M51.3313 233V216.2H54.6433V233H51.3313ZM71.8892 230.816C70.1932 232.496 68.1292 233.336 65.6972 233.336C63.2652 233.336 61.2012 232.496 59.5052 230.816C57.8252 229.104 56.9852 227.032 56.9852 224.6C56.9852 222.152 57.8252 220.088 59.5052 218.408C61.2012 216.712 63.2652 215.864 65.6972 215.864C68.1292 215.864 70.1932 216.712 71.8892 218.408C73.5852 220.088 74.4332 222.152 74.4332 224.6C74.4332 227.048 73.5852 229.12 71.8892 230.816ZM61.8332 228.56C62.8572 229.584 64.1452 230.096 65.6972 230.096C67.2492 230.096 68.5372 229.584 69.5612 228.56C70.6012 227.52 71.1212 226.2 71.1212 224.6C71.1212 223 70.6012 221.68 69.5612 220.64C68.5212 219.6 67.2332 219.08 65.6972 219.08C64.1612 219.08 62.8732 219.6 61.8332 220.64C60.7932 221.68 60.2732 223 60.2732 224.6C60.2732 226.2 60.7932 227.52 61.8332 228.56ZM74.5521 216.2H86.9121V219.368H82.3761V233H79.0641V219.368H74.5521V216.2ZM96.5422 227.24H87.5422V224.264H96.5422V227.24ZM99.6594 216.2H112.211V233H108.899V219.368H102.971V233H99.6594V216.2ZM115.339 216.2H121.603C123.203 216.2 124.563 216.744 125.683 217.832C126.787 218.92 127.339 220.256 127.339 221.84C127.339 223.424 126.787 224.76 125.683 225.848C124.563 226.936 123.203 227.48 121.603 227.48H118.651V233H115.339V216.2ZM118.651 224.384H121.603C122.307 224.384 122.891 224.144 123.355 223.664C123.819 223.168 124.051 222.56 124.051 221.84C124.051 221.104 123.819 220.496 123.355 220.016C122.891 219.536 122.307 219.296 121.603 219.296H118.651V224.384ZM142.527 233H139.215V222.752L132.015 233H129.495V216.2H132.807V226.472L140.007 216.2H142.527V233ZM144.348 233V229.928C145.372 230.072 146.124 229.864 146.604 229.304C147.084 228.728 147.324 227.672 147.324 226.136V216.2H158.748V233H155.46V219.368H150.612V226.04C150.612 228.936 149.948 230.896 148.62 231.92C147.484 232.816 146.06 233.176 144.348 233ZM175.999 230.816C174.303 232.496 172.239 233.336 169.807 233.336C167.375 233.336 165.311 232.496 163.615 230.816C161.935 229.104 161.095 227.032 161.095 224.6C161.095 222.152 161.935 220.088 163.615 218.408C165.311 216.712 167.375 215.864 169.807 215.864C172.239 215.864 174.303 216.712 175.999 218.408C177.695 220.088 178.543 222.152 178.543 224.6C178.543 227.048 177.695 229.12 175.999 230.816ZM165.943 228.56C166.967 229.584 168.255 230.096 169.807 230.096C171.359 230.096 172.647 229.584 173.671 228.56C174.711 227.52 175.231 226.2 175.231 224.6C175.231 223 174.711 221.68 173.671 220.64C172.631 219.6 171.343 219.08 169.807 219.08C168.271 219.08 166.983 219.6 165.943 220.64C164.903 221.68 164.383 223 164.383 224.6C164.383 226.2 164.903 227.52 165.943 228.56ZM193.433 224.432L199.289 233H195.593L190.385 225.344V233H187.073V225.344L181.865 233H178.193L184.025 224.432L178.433 216.2H182.105L187.073 223.688V216.2H190.385V223.688L195.353 216.2H199.049L193.433 224.432ZM204.456 226.064V229.832H211.536V233H201.144V216.2H211.416V219.368H204.456V222.944H210.816V226.064H204.456ZM223.422 222.872V216.2H226.71V233H223.422V226.04H217.182V233H213.87V216.2H217.182V222.872H223.422ZM242.863 233H239.551V222.752L232.351 233H229.831V216.2H233.143V226.472L240.343 216.2H242.863V233ZM251.116 216.2H257.836V233H254.524V227.168H252.628L248.764 233H245.044L249.148 226.808C248.076 226.424 247.204 225.768 246.532 224.84C245.86 223.912 245.524 222.888 245.524 221.768C245.524 220.232 246.068 218.92 247.156 217.832C248.244 216.744 249.564 216.2 251.116 216.2ZM251.116 224.264H254.524V219.296H251.116C250.492 219.296 249.956 219.536 249.508 220.016C249.06 220.496 248.836 221.08 248.836 221.768C248.836 222.456 249.06 223.048 249.508 223.544C249.956 224.024 250.492 224.264 251.116 224.264Z" fill="#1E959B"/>
<g filter="url(#filter1_d_330_702)">
<path d="M51 286C51 274.954 59.9543 266 71 266H237.582C248.628 266 257.582 274.954 257.582 286V308.063C257.582 319.109 248.627 328.063 237.582 328.063H71C59.9543 328.063 51 319.109 51 308.063V286Z" fill="#F05670"/>
</g>
<path d="M126.929 296.782C127.862 297.267 128.329 298.042 128.329 299.106C128.329 299.974 127.997 300.683 127.335 301.234C126.681 301.775 125.827 302.046 124.773 302.046C122.953 302.046 121.735 301.276 121.119 299.736L122.785 298.798C123.074 299.75 123.737 300.226 124.773 300.226C125.295 300.226 125.697 300.119 125.977 299.904C126.266 299.68 126.411 299.372 126.411 298.98C126.411 298.588 126.271 298.285 125.991 298.07C125.711 297.846 125.319 297.734 124.815 297.734H123.597V296.012H124.521C125.006 296.012 125.384 295.909 125.655 295.704C125.925 295.489 126.061 295.2 126.061 294.836C126.061 294.463 125.939 294.173 125.697 293.968C125.463 293.763 125.123 293.66 124.675 293.66C123.835 293.66 123.247 294.071 122.911 294.892L121.273 293.94C121.935 292.549 123.069 291.854 124.675 291.854C125.636 291.854 126.429 292.115 127.055 292.638C127.671 293.151 127.979 293.842 127.979 294.71C127.979 295.587 127.629 296.278 126.929 296.782ZM137.982 301.85H135.882L135.294 300.086H131.388L130.8 301.85H128.714L132.144 292.05H134.538L137.982 301.85ZM133.348 294.276L132.004 298.28H134.692L133.348 294.276ZM142.826 296.81L146.592 301.85H144.366L140.866 297.258V301.85H138.934V292.05H140.866V296.376L144.226 292.05H146.452L142.826 296.81ZM156.193 301.85H154.093L153.505 300.086H149.599L149.011 301.85H146.925L150.355 292.05H152.749L156.193 301.85ZM151.559 294.276L150.215 298.28H152.903L151.559 294.276ZM162.339 296.782C163.272 297.267 163.739 298.042 163.739 299.106C163.739 299.974 163.407 300.683 162.745 301.234C162.091 301.775 161.237 302.046 160.183 302.046C158.363 302.046 157.145 301.276 156.529 299.736L158.195 298.798C158.484 299.75 159.147 300.226 160.183 300.226C160.705 300.226 161.107 300.119 161.387 299.904C161.676 299.68 161.821 299.372 161.821 298.98C161.821 298.588 161.681 298.285 161.401 298.07C161.121 297.846 160.729 297.734 160.225 297.734H159.007V296.012H159.931C160.416 296.012 160.794 295.909 161.065 295.704C161.335 295.489 161.471 295.2 161.471 294.836C161.471 294.463 161.349 294.173 161.107 293.968C160.873 293.763 160.533 293.66 160.085 293.66C159.245 293.66 158.657 294.071 158.321 294.892L156.683 293.94C157.345 292.549 158.479 291.854 160.085 291.854C161.046 291.854 161.839 292.115 162.465 292.638C163.081 293.151 163.389 293.842 163.389 294.71C163.389 295.587 163.039 296.278 162.339 296.782ZM173.392 301.85H171.292L170.704 300.086H166.798L166.21 301.85H164.124L167.554 292.05H169.948L173.392 301.85ZM168.758 294.276L167.414 298.28H170.102L168.758 294.276ZM172.905 292.05H180.115V293.898H177.469V301.85H175.537V293.898H172.905V292.05ZM183.126 295.27H184.848C185.781 295.27 186.574 295.587 187.228 296.222C187.872 296.857 188.194 297.636 188.194 298.56C188.194 299.484 187.872 300.263 187.228 300.898C186.574 301.533 185.781 301.85 184.848 301.85H181.194V292.05H183.126V295.27ZM183.126 300.044H184.848C185.258 300.044 185.599 299.904 185.87 299.624C186.14 299.344 186.276 298.989 186.276 298.56C186.276 298.14 186.14 297.79 185.87 297.51C185.599 297.221 185.258 297.076 184.848 297.076H183.126V300.044Z" fill="white"/>
<path d="M98 109.667C97.9989 111.307 98.4426 112.918 99.2838 114.326C100.125 115.735 101.332 116.889 102.778 117.666C104.223 118.443 105.851 118.813 107.49 118.738C109.129 118.663 110.717 118.145 112.085 117.239L126.751 131.905C126.013 133.022 125.532 134.288 125.341 135.613C125.15 136.937 125.254 138.288 125.647 139.567C126.039 140.847 126.709 142.024 127.609 143.014C128.509 144.005 129.617 144.784 130.854 145.296C132.091 145.808 133.425 146.04 134.762 145.976C136.099 145.912 137.405 145.553 138.587 144.925C139.769 144.298 140.797 143.416 141.599 142.344C142.4 141.273 142.955 140.037 143.223 138.726H161.75C162.017 140.038 162.57 141.276 163.371 142.35C164.173 143.423 165.201 144.307 166.384 144.936C167.567 145.565 168.874 145.925 170.212 145.989C171.55 146.054 172.886 145.822 174.124 145.309C175.361 144.797 176.47 144.017 177.371 143.025C178.272 142.033 178.942 140.855 179.334 139.574C179.725 138.292 179.829 136.941 179.636 135.615C179.444 134.289 178.96 133.022 178.221 131.905L186.121 124.005L183.553 121.436L175.652 129.337C174.414 128.516 172.992 128.013 171.513 127.87C170.034 127.727 168.543 127.95 167.17 128.518C165.797 129.086 164.585 129.983 163.64 131.13C162.694 132.276 162.045 133.637 161.749 135.093H143.223C142.736 132.729 141.33 130.655 139.314 129.327L140.37 126.687L136.997 125.338L135.942 127.975C133.642 127.555 131.268 128.044 129.321 129.337L114.655 114.672C115.949 112.724 116.437 110.351 116.017 108.05L129.552 102.636L128.203 99.2638L114.663 104.678C113.336 102.662 111.261 101.256 108.897 100.769V82.2424C111.261 81.7554 113.336 80.3492 114.663 78.333L128.201 83.7482L129.55 80.3756L116.015 74.9606C116.435 72.6603 115.946 70.2868 114.653 68.3391L125.958 57.0334L123.391 54.4646L112.085 65.7703C110.968 65.0328 109.702 64.5513 108.377 64.3604C107.053 64.1694 105.702 64.2738 104.422 64.6659C103.143 65.0579 101.965 65.7281 100.975 66.6284C99.9846 67.5287 99.2055 68.6368 98.6935 69.8734C98.1815 71.11 97.9492 72.4446 98.0132 73.7815C98.0773 75.1184 98.4362 76.4246 99.0641 77.6065C99.6921 78.7885 100.574 79.817 101.646 80.6185C102.717 81.4199 103.953 81.9744 105.265 82.2424V100.77C103.215 101.191 101.374 102.306 100.05 103.926C98.7272 105.547 98.003 107.574 98 109.667ZM170.647 131.461C171.725 131.461 172.778 131.78 173.674 132.379C174.57 132.978 175.269 133.829 175.681 134.824C176.093 135.82 176.201 136.915 175.991 137.972C175.781 139.029 175.262 140 174.5 140.762C173.738 141.524 172.767 142.043 171.71 142.253C170.653 142.463 169.558 142.355 168.562 141.943C167.566 141.531 166.716 140.832 166.117 139.936C165.518 139.04 165.199 137.987 165.199 136.909C165.2 135.465 165.775 134.08 166.796 133.058C167.818 132.037 169.203 131.462 170.647 131.461ZM134.324 131.461C135.401 131.461 136.455 131.78 137.351 132.379C138.247 132.978 138.945 133.829 139.357 134.824C139.77 135.82 139.878 136.915 139.667 137.972C139.457 139.029 138.938 140 138.176 140.762C137.414 141.524 136.443 142.043 135.387 142.253C134.33 142.463 133.234 142.355 132.239 141.943C131.243 141.531 130.392 140.832 129.793 139.936C129.195 139.04 128.875 137.987 128.875 136.909C128.877 135.465 129.451 134.08 130.473 133.058C131.494 132.037 132.879 131.462 134.324 131.461ZM101.632 73.3431C101.632 72.2655 101.952 71.2121 102.551 70.3161C103.149 69.42 104 68.7217 104.996 68.3093C105.991 67.8969 107.087 67.789 108.144 67.9993C109.201 68.2095 110.172 68.7284 110.934 69.4904C111.696 70.2524 112.215 71.2232 112.425 72.2801C112.635 73.337 112.527 74.4326 112.115 75.4282C111.702 76.4237 111.004 77.2747 110.108 77.8734C109.212 78.4721 108.159 78.7916 107.081 78.7916C105.636 78.7899 104.251 78.2154 103.23 77.1939C102.209 76.1725 101.634 74.7876 101.632 73.3431ZM107.081 104.218C108.159 104.218 109.212 104.538 110.108 105.136C111.004 105.735 111.702 106.586 112.115 107.582C112.527 108.577 112.635 109.673 112.425 110.73C112.215 111.787 111.696 112.757 110.934 113.519C110.172 114.281 109.201 114.8 108.144 115.01C107.087 115.221 105.991 115.113 104.996 114.7C104 114.288 103.149 113.59 102.551 112.694C101.952 111.798 101.632 110.744 101.632 109.667C101.634 108.222 102.209 106.837 103.23 105.816C104.251 104.794 105.636 104.22 107.081 104.218ZM206.971 73.3431C206.972 71.7024 206.528 70.0922 205.687 68.6836C204.846 67.2751 203.638 66.121 202.193 65.3441C200.748 64.5672 199.119 64.1965 197.481 64.2716C195.842 64.3467 194.254 64.8647 192.886 65.7705L178.22 51.1049C178.958 49.9881 179.44 48.7219 179.631 47.397C179.822 46.0721 179.718 44.7214 179.326 43.4414C178.934 42.1615 178.264 40.9841 177.364 39.9935C176.464 39.0029 175.355 38.2236 174.119 37.7115C172.882 37.1993 171.547 36.967 170.21 37.0311C168.873 37.0952 167.567 37.4542 166.385 38.0823C165.202 38.7104 164.174 39.5922 163.372 40.6644C162.571 41.7366 162.017 42.9727 161.749 44.2842H143.223C142.867 42.5297 142.001 40.9192 140.734 39.6549C139.466 38.3905 137.854 37.5285 136.098 37.177C134.343 36.8254 132.523 37.0001 130.866 37.6789C129.21 38.3578 127.791 39.5107 126.787 40.993C125.783 42.4753 125.239 44.221 125.223 46.0112C125.208 47.8013 125.721 49.5563 126.699 51.0559C127.676 52.5556 129.075 53.7331 130.72 54.4408C132.364 55.1485 134.181 55.355 135.942 55.0342L136.997 57.672L140.37 56.323L139.313 53.683C141.329 52.3554 142.736 50.2812 143.223 47.9166H161.75C162.237 50.281 163.643 52.3552 165.659 53.683L163.877 58.1394L167.249 59.4884L169.031 55.0344C171.331 55.4544 173.705 54.9661 175.652 53.6723L190.318 68.3379C189.024 70.2857 188.536 72.6592 188.956 74.9595L175.421 80.3733L176.77 83.7459L190.307 78.3308C190.964 79.3295 191.812 80.1889 192.801 80.8601C193.791 81.5313 194.903 82.0009 196.074 82.2424V100.77C193.709 101.257 191.635 102.663 190.307 104.679L184.943 102.533L183.594 105.906L188.956 108.05C188.536 110.351 189.024 112.724 190.318 114.672L186.731 118.259L189.299 120.827L192.886 117.24C194.003 117.978 195.27 118.46 196.594 118.651C197.919 118.842 199.27 118.738 200.55 118.346C201.83 117.953 203.007 117.283 203.997 116.383C204.988 115.482 205.767 114.374 206.279 113.137C206.791 111.901 207.023 110.566 206.959 109.229C206.895 107.892 206.536 106.586 205.908 105.404C205.28 104.222 204.398 103.193 203.326 102.392C202.254 101.591 201.017 101.036 199.706 100.769V82.2424C201.756 81.821 203.598 80.7058 204.921 79.0847C206.244 77.4636 206.968 75.4357 206.971 73.3431ZM134.324 51.549C133.246 51.549 132.193 51.2294 131.297 50.6307C130.401 50.032 129.702 49.1811 129.29 48.1855C128.877 47.1899 128.769 46.0944 128.98 45.0375C129.19 43.9806 129.709 43.0097 130.471 42.2477C131.233 41.4857 132.204 40.9668 133.261 40.7566C134.318 40.5464 135.413 40.6543 136.409 41.0666C137.404 41.479 138.255 42.1774 138.854 43.0734C139.453 43.9694 139.772 45.0228 139.772 46.1004C139.77 47.545 139.196 48.9298 138.174 49.9513C137.153 50.9727 135.768 51.5473 134.324 51.549ZM170.647 51.549C169.57 51.549 168.516 51.2294 167.62 50.6307C166.724 50.032 166.026 49.1811 165.613 48.1855C165.201 47.1899 165.093 46.0944 165.303 45.0375C165.514 43.9806 166.032 43.0097 166.794 42.2477C167.556 41.4857 168.527 40.9668 169.584 40.7566C170.641 40.5464 171.737 40.6543 172.732 41.0666C173.728 41.479 174.579 42.1774 175.177 43.0734C175.776 43.9694 176.096 45.0228 176.096 46.1004C176.094 47.545 175.519 48.9298 174.498 49.9513C173.477 50.9727 172.092 51.5473 170.647 51.549ZM203.338 109.667C203.338 110.744 203.019 111.798 202.42 112.694C201.821 113.59 200.97 114.288 199.975 114.7C198.979 115.113 197.884 115.221 196.827 115.01C195.77 114.8 194.799 114.281 194.037 113.519C193.275 112.757 192.756 111.787 192.546 110.73C192.336 109.673 192.444 108.577 192.856 107.582C193.268 106.586 193.967 105.735 194.863 105.136C195.759 104.538 196.812 104.218 197.89 104.218C199.334 104.22 200.719 104.794 201.741 105.816C202.762 106.837 203.337 108.222 203.338 109.667ZM197.89 78.7916C196.812 78.7916 195.759 78.4721 194.863 77.8734C193.967 77.2747 193.268 76.4237 192.856 75.4282C192.444 74.4326 192.336 73.337 192.546 72.2801C192.756 71.2232 193.275 70.2524 194.037 69.4904C194.799 68.7284 195.77 68.2095 196.827 67.9993C197.884 67.789 198.979 67.8969 199.975 68.3093C200.97 68.7217 201.821 69.42 202.42 70.3161C203.019 71.2121 203.338 72.2655 203.338 73.3431C203.337 74.7876 202.762 76.1725 201.741 77.1939C200.719 78.2154 199.334 78.7899 197.89 78.7916ZM136.14 75.1593V116.931C136.141 117.894 136.524 118.818 137.205 119.499C137.886 120.18 138.809 120.563 139.772 120.564H159.75V124.196H139.772C137.846 124.194 135.999 123.428 134.638 122.066C133.276 120.704 132.51 118.857 132.507 116.931V75.1593H136.14ZM177.912 118.748V98.8985C177.914 97.9442 177.728 96.9987 177.363 96.117C176.997 95.2353 176.461 94.4347 175.784 93.7617L172.463 90.441V103.466L175.564 106.566L172.995 109.135L169.363 105.502L163.226 99.366C163.037 99.1769 162.813 99.0269 162.566 98.9246C162.319 98.8223 162.054 98.7696 161.786 98.7696C161.519 98.7696 161.254 98.8223 161.007 98.9247C160.76 99.0271 160.536 99.1771 160.346 99.3662C160.157 99.5553 160.007 99.7798 159.905 100.027C159.803 100.274 159.75 100.539 159.75 100.806C159.75 101.074 159.803 101.338 159.905 101.586C160.008 101.833 160.158 102.057 160.347 102.246L166.483 108.382C166.78 108.679 166.965 109.07 167.006 109.488C167.047 109.906 166.943 110.325 166.71 110.674C165.786 112.064 165.245 113.672 165.142 115.338C165.038 117.003 165.375 118.667 166.12 120.16L166.823 121.568C166.949 121.82 167.015 122.098 167.015 122.38V124.196H163.382V122.809L162.87 121.784C161.954 119.947 161.482 117.92 161.492 115.866C161.501 113.813 161.992 111.79 162.925 109.961L157.778 104.815C156.722 103.75 156.132 102.31 156.135 100.811C156.138 99.3117 156.735 97.8748 157.795 96.8147C158.856 95.7545 160.292 95.1576 161.792 95.1544C163.291 95.1512 164.731 95.7421 165.795 96.7977L168.831 99.8334V67.8946C168.83 66.9315 168.447 66.0083 167.766 65.3274C167.085 64.6464 166.162 64.2633 165.199 64.2622H160.872L159.558 66.8907C159.407 67.1923 159.176 67.446 158.889 67.6233C158.602 67.8006 158.271 67.8945 157.934 67.8946H147.037C146.7 67.8945 146.369 67.8006 146.082 67.6233C145.795 67.446 145.563 67.1923 145.412 66.8907L144.098 64.2622H139.772C138.809 64.2633 137.886 64.6464 137.205 65.3274C136.524 66.0083 136.141 66.9315 136.14 67.8946V71.5269H132.507V67.8946C132.51 65.9685 133.276 64.122 134.638 62.76C135.999 61.3981 137.846 60.632 139.772 60.6298H165.199C167.125 60.632 168.971 61.3981 170.333 62.76C171.695 64.122 172.461 65.9685 172.463 67.8946V85.304L178.352 91.1932C179.368 92.2027 180.172 93.4035 180.72 94.7262C181.268 96.0488 181.548 97.4669 181.544 98.8985V118.748H177.912ZM148.853 113.299H156.118V116.931H148.853V113.299ZM156.65 90.973C155.544 89.8701 154.047 89.2507 152.485 89.2507C150.924 89.2507 149.426 89.8701 148.321 90.973L145.753 88.4044C147.54 86.6214 149.961 85.6201 152.485 85.6201C155.01 85.6201 157.431 86.6214 159.218 88.4044L156.65 90.973ZM162.098 86.4057C160.836 85.1434 159.337 84.142 157.688 83.4588C156.038 82.7756 154.271 82.424 152.485 82.424C150.7 82.424 148.932 82.7756 147.283 83.4588C145.634 84.142 144.135 85.1434 142.873 86.4057L140.304 83.8374C143.537 80.6115 147.918 78.7998 152.485 78.7998C157.053 78.7998 161.433 80.6115 164.667 83.8374L162.098 86.4057ZM154.302 96.9534V100.586H150.669V96.9534H154.302ZM143.404 96.9534H147.037V100.586H143.404V96.9534Z" fill="#F8FFFF"/>
<defs>
<filter id="filter0_d_330_702" x="0" y="38" width="309" height="325" filterUnits="userSpaceOnUse" color-interpolation-filters="sRGB">
<feFlood flood-opacity="0" result="BackgroundImageFix"/>
<feColorMatrix in="SourceAlpha" type="matrix" values="0 0 0 0 0 0 0 0 0 0 0 0 0 0 0 0 0 0 127 0" result="hardAlpha"/>
<feOffset dy="5"/>
<feGaussianBlur stdDeviation="5"/>
<feColorMatrix type="matrix" values="0 0 0 0 0.117647 0 0 0 0 0.584314 0 0 0 0 0.607843 0 0 0 0.5 0"/>
<feBlend mode="normal" in2="BackgroundImageFix" result="effect1_dropShadow_330_702"/>
<feBlend mode="normal" in="SourceGraphic" in2="effect1_dropShadow_330_702" result="shape"/>
</filter>
<filter id="filter1_d_330_702" x="41" y="261" width="226.582" height="82.0632" filterUnits="userSpaceOnUse" color-interpolation-filters="sRGB">
<feFlood flood-opacity="0" result="BackgroundImageFix"/>
<feColorMatrix in="SourceAlpha" type="matrix" values="0 0 0 0 0 0 0 0 0 0 0 0 0 0 0 0 0 0 127 0" result="hardAlpha"/>
<feOffset dy="5"/>
<feGaussianBlur stdDeviation="5"/>
<feColorMatrix type="matrix" values="0 0 0 0 0.117647 0 0 0 0 0.584314 0 0 0 0 0.607843 0 0 0 0.5 0"/>
<feBlend mode="normal" in2="BackgroundImageFix" result="effect1_dropShadow_330_702"/>
<feBlend mode="normal" in="SourceGraphic" in2="effect1_dropShadow_330_702" result="shape"/>
</filter>
<linearGradient id="paint0_linear_330_702" x1="154.5" y1="43" x2="154.5" y2="348" gradientUnits="userSpaceOnUse">
<stop stop-color="white"/>
<stop offset="1" stop-color="#F7F9FD"/>
</linearGradient>
</defs>
</svg>
