<svg width="309" height="363" viewBox="0 0 309 363" fill="none" xmlns="http://www.w3.org/2000/svg">
<g filter="url(#filter0_d_330_1134)">
<rect x="10" y="43" width="289" height="305" rx="30" fill="url(#paint0_linear_330_1134)"/>
</g>
<path d="M152 182C202.258 182 243 141.258 243 91C243 40.7421 202.258 0 152 0C101.742 0 61 40.7421 61 91C61 141.258 101.742 182 152 182Z" fill="#1E959B"/>
<path d="M133.735 233H130.135L129.127 229.976H122.431L121.423 233H117.847L123.727 216.2H127.831L133.735 233ZM125.791 220.016L123.487 226.88H128.095L125.791 220.016ZM148.158 233H144.582L141.198 227.168H138.678V233H135.366V216.2H142.086C143.638 216.2 144.958 216.744 146.046 217.832C147.134 218.92 147.678 220.232 147.678 221.768C147.678 222.808 147.382 223.776 146.79 224.672C146.198 225.552 145.414 226.216 144.438 226.664L148.158 233ZM142.086 219.296H138.678V224.264H142.086C142.71 224.264 143.246 224.024 143.694 223.544C144.142 223.048 144.366 222.456 144.366 221.768C144.366 221.08 144.142 220.496 143.694 220.016C143.246 219.536 142.71 219.296 142.086 219.296ZM160.309 213.8L150.709 235.4H149.341L158.941 213.8H160.309ZM170.927 233H166.823L161.183 216.2H164.783L168.887 229.112L172.967 216.2H176.591L170.927 233ZM191.002 233H187.426L184.042 227.168H181.522V233H178.21V216.2H184.93C186.482 216.2 187.802 216.744 188.89 217.832C189.978 218.92 190.522 220.232 190.522 221.768C190.522 222.808 190.226 223.776 189.634 224.672C189.042 225.552 188.258 226.216 187.282 226.664L191.002 233ZM184.93 219.296H181.522V224.264H184.93C185.554 224.264 186.09 224.024 186.538 223.544C186.986 223.048 187.21 222.456 187.21 221.768C187.21 221.08 186.986 220.496 186.538 220.016C186.09 219.536 185.554 219.296 184.93 219.296Z" fill="#1E959B"/>
<g filter="url(#filter1_d_330_1134)">
<path d="M51 286C51 274.954 59.9543 266 71 266H237.582C248.628 266 257.582 274.954 257.582 286V308.063C257.582 319.109 248.627 328.063 237.582 328.063H71C59.9543 328.063 51 319.109 51 308.063V286Z" fill="#F05670"/>
</g>
<path d="M126.929 296.782C127.862 297.267 128.329 298.042 128.329 299.106C128.329 299.974 127.997 300.683 127.335 301.234C126.681 301.775 125.827 302.046 124.773 302.046C122.953 302.046 121.735 301.276 121.119 299.736L122.785 298.798C123.074 299.75 123.737 300.226 124.773 300.226C125.295 300.226 125.697 300.119 125.977 299.904C126.266 299.68 126.411 299.372 126.411 298.98C126.411 298.588 126.271 298.285 125.991 298.07C125.711 297.846 125.319 297.734 124.815 297.734H123.597V296.012H124.521C125.006 296.012 125.384 295.909 125.655 295.704C125.925 295.489 126.061 295.2 126.061 294.836C126.061 294.463 125.939 294.173 125.697 293.968C125.463 293.763 125.123 293.66 124.675 293.66C123.835 293.66 123.247 294.071 122.911 294.892L121.273 293.94C121.935 292.549 123.069 291.854 124.675 291.854C125.636 291.854 126.429 292.115 127.055 292.638C127.671 293.151 127.979 293.842 127.979 294.71C127.979 295.587 127.629 296.278 126.929 296.782ZM137.982 301.85H135.882L135.294 300.086H131.388L130.8 301.85H128.714L132.144 292.05H134.538L137.982 301.85ZM133.348 294.276L132.004 298.28H134.692L133.348 294.276ZM142.826 296.81L146.592 301.85H144.366L140.866 297.258V301.85H138.934V292.05H140.866V296.376L144.226 292.05H146.452L142.826 296.81ZM156.193 301.85H154.093L153.505 300.086H149.599L149.011 301.85H146.925L150.355 292.05H152.749L156.193 301.85ZM151.559 294.276L150.215 298.28H152.903L151.559 294.276ZM162.339 296.782C163.272 297.267 163.739 298.042 163.739 299.106C163.739 299.974 163.407 300.683 162.745 301.234C162.091 301.775 161.237 302.046 160.183 302.046C158.363 302.046 157.145 301.276 156.529 299.736L158.195 298.798C158.484 299.75 159.147 300.226 160.183 300.226C160.705 300.226 161.107 300.119 161.387 299.904C161.676 299.68 161.821 299.372 161.821 298.98C161.821 298.588 161.681 298.285 161.401 298.07C161.121 297.846 160.729 297.734 160.225 297.734H159.007V296.012H159.931C160.416 296.012 160.794 295.909 161.065 295.704C161.335 295.489 161.471 295.2 161.471 294.836C161.471 294.463 161.349 294.173 161.107 293.968C160.873 293.763 160.533 293.66 160.085 293.66C159.245 293.66 158.657 294.071 158.321 294.892L156.683 293.94C157.345 292.549 158.479 291.854 160.085 291.854C161.046 291.854 161.839 292.115 162.465 292.638C163.081 293.151 163.389 293.842 163.389 294.71C163.389 295.587 163.039 296.278 162.339 296.782ZM173.392 301.85H171.292L170.704 300.086H166.798L166.21 301.85H164.124L167.554 292.05H169.948L173.392 301.85ZM168.758 294.276L167.414 298.28H170.102L168.758 294.276ZM172.905 292.05H180.115V293.898H177.469V301.85H175.537V293.898H172.905V292.05ZM183.126 295.27H184.848C185.781 295.27 186.574 295.587 187.228 296.222C187.872 296.857 188.194 297.636 188.194 298.56C188.194 299.484 187.872 300.263 187.228 300.898C186.574 301.533 185.781 301.85 184.848 301.85H181.194V292.05H183.126V295.27ZM183.126 300.044H184.848C185.258 300.044 185.599 299.904 185.87 299.624C186.14 299.344 186.276 298.989 186.276 298.56C186.276 298.14 186.14 297.79 185.87 297.51C185.599 297.221 185.258 297.076 184.848 297.076H183.126V300.044Z" fill="white"/>
<path d="M104.277 93.2735L120.403 104.394V136.361C120.403 140.241 123.549 143.387 127.429 143.387H176.609C180.49 143.387 183.635 140.241 183.635 136.361V104.394L199.759 93.2735C201.186 92.29 202.038 90.6679 202.038 88.9351C202.038 87.2023 201.186 85.5802 199.759 84.5967L183.635 73.4802V45.0258C183.635 41.1455 180.49 38 176.609 38H127.429C123.549 38 120.403 41.1455 120.403 45.0258V73.4802L104.277 84.5984C102.851 85.582 102 87.2037 102 88.936C102 90.6683 102.851 92.2899 104.277 93.2735ZM183.635 77.7448L197.766 87.4913C198.241 87.8192 198.525 88.3596 198.525 88.9369C198.525 89.5141 198.241 90.0545 197.766 90.3824L183.635 100.127V77.7448ZM165.528 41.5129L163.275 43.9157C162.611 44.6235 161.684 45.0253 160.714 45.0258H143.325C142.354 45.0245 141.427 44.6229 140.762 43.9157L138.51 41.5129H165.528ZM123.916 75.3227L124.603 74.8484C125.188 74.4442 125.472 73.7269 125.322 73.0317C125.171 72.3365 124.616 71.8006 123.916 71.6745V45.0258C123.916 43.0857 125.489 41.5129 127.429 41.5129H133.694L138.2 46.3185C139.53 47.7321 141.384 48.5351 143.325 48.5387H160.714C162.655 48.5364 164.509 47.7331 165.839 46.3185L170.344 41.5129H176.609C178.55 41.5129 180.122 43.0857 180.122 45.0258V71.6745C179.422 71.8006 178.867 72.3365 178.717 73.0317C178.567 73.7269 178.85 74.4442 179.436 74.8484L180.122 75.3227V102.548L153.015 121.245C152.415 121.659 151.622 121.659 151.022 121.245L123.916 102.551V75.3227ZM123.916 106.817L149.033 124.136C150.837 125.37 153.214 125.37 155.018 124.136L180.122 106.817V127.579C180.122 129.519 178.55 131.091 176.609 131.091H127.429C125.489 131.091 123.916 129.519 123.916 127.579V106.817ZM123.916 133.628C124.979 134.26 126.192 134.597 127.429 134.604H176.609C177.846 134.597 179.059 134.26 180.122 133.628V136.361C180.122 138.301 178.55 139.874 176.609 139.874H127.429C125.489 139.874 123.916 138.301 123.916 136.361V133.628ZM106.273 87.4913L120.403 77.7413V100.129L106.271 90.3824C105.796 90.0545 105.512 89.5141 105.512 88.9369C105.512 88.3596 105.796 87.8192 106.271 87.4913H106.273Z" fill="#F8FFFF"/>
<path d="M140.464 63.5369C140.819 63.5361 141.165 63.4277 141.458 63.226L144.828 60.9004C145.362 60.5514 145.665 59.9404 145.619 59.3041C145.574 58.6679 145.186 58.1064 144.608 57.8375C144.03 57.5685 143.351 57.6343 142.835 58.0093L139.466 60.3331C138.832 60.7693 138.555 61.5676 138.784 62.3026C139.013 63.0376 139.694 63.5379 140.464 63.5369Z" fill="#F8FFFF"/>
<path d="M132.724 64.9825L129.362 67.308C128.584 67.8656 128.396 68.9433 128.939 69.7317C129.482 70.52 130.556 70.7286 131.354 70.2009L134.725 67.8753C135.502 67.3177 135.691 66.24 135.148 65.4517C134.605 64.6634 133.531 64.4547 132.733 64.9825H132.724Z" fill="#F8FFFF"/>
<path d="M151.571 56.2513L152.02 55.9421L152.47 56.2513C153.268 56.7727 154.336 56.5627 154.877 55.7781C155.418 54.9934 155.234 53.9205 154.463 53.3601L153.016 52.3625C152.416 51.9496 151.624 51.9496 151.024 52.3625L149.577 53.3601C148.806 53.9205 148.623 54.9934 149.164 55.7781C149.705 56.5627 150.773 56.7727 151.571 56.2513Z" fill="#F8FFFF"/>
<path d="M162.583 63.226C163.382 63.7537 164.456 63.545 164.998 62.7567C165.541 61.9684 165.353 60.8907 164.575 60.3331L161.204 58.0093C160.69 57.6059 159.993 57.5221 159.397 57.7917C158.801 58.0613 158.404 58.6397 158.368 59.2928C158.331 59.9459 158.66 60.5653 159.221 60.9004L162.583 63.226Z" fill="#F8FFFF"/>
<path d="M172.694 70.2009C173.211 70.557 173.879 70.6104 174.445 70.3409C175.012 70.0714 175.392 69.52 175.442 68.8945C175.492 68.2689 175.205 67.6641 174.688 67.308L171.317 64.9825C170.519 64.4547 169.445 64.6634 168.902 65.4517C168.359 66.24 168.548 67.3177 169.326 67.8753L172.694 70.2009Z" fill="#F8FFFF"/>
<path d="M152.02 99.4754C152.35 99.4754 152.672 99.3829 152.951 99.2084L167.003 90.4262C167.516 90.1052 167.828 89.5423 167.828 88.9367V73.1288C167.828 72.5231 167.516 71.9603 167.003 71.6393L152.951 62.8571C152.382 62.5011 151.659 62.5011 151.089 62.8571L137.038 71.6393C136.524 71.9603 136.212 72.5231 136.212 73.1288V88.9367C136.212 89.5423 136.524 90.1052 137.038 90.4262L151.089 99.2084C151.369 99.3829 151.691 99.4754 152.02 99.4754ZM164.315 87.9637L153.777 94.5574V82.8858L164.315 76.2991V87.9637ZM152.02 66.4174L162.758 73.1288L152.02 79.8401L141.283 73.1288L152.02 66.4174ZM150.264 94.5574L139.725 87.9707V76.2991L150.264 82.8858V94.5574Z" fill="#F8FFFF"/>
<defs>
<filter id="filter0_d_330_1134" x="0" y="38" width="309" height="325" filterUnits="userSpaceOnUse" color-interpolation-filters="sRGB">
<feFlood flood-opacity="0" result="BackgroundImageFix"/>
<feColorMatrix in="SourceAlpha" type="matrix" values="0 0 0 0 0 0 0 0 0 0 0 0 0 0 0 0 0 0 127 0" result="hardAlpha"/>
<feOffset dy="5"/>
<feGaussianBlur stdDeviation="5"/>
<feColorMatrix type="matrix" values="0 0 0 0 0.117647 0 0 0 0 0.584314 0 0 0 0 0.607843 0 0 0 0.5 0"/>
<feBlend mode="normal" in2="BackgroundImageFix" result="effect1_dropShadow_330_1134"/>
<feBlend mode="normal" in="SourceGraphic" in2="effect1_dropShadow_330_1134" result="shape"/>
</filter>
<filter id="filter1_d_330_1134" x="41" y="261" width="226.582" height="82.0632" filterUnits="userSpaceOnUse" color-interpolation-filters="sRGB">
<feFlood flood-opacity="0" result="BackgroundImageFix"/>
<feColorMatrix in="SourceAlpha" type="matrix" values="0 0 0 0 0 0 0 0 0 0 0 0 0 0 0 0 0 0 127 0" result="hardAlpha"/>
<feOffset dy="5"/>
<feGaussianBlur stdDeviation="5"/>
<feColorMatrix type="matrix" values="0 0 0 0 0.117647 0 0 0 0 0.584314 0 0 0 0 0.607843 0 0 0 0.5 0"/>
<feBlend mode="normal" in2="BackgroundImageFix" result="effect1_dropShadow_330_1134"/>
<feBlend mode="normal" in="SourceGraphic" in2="effect1_dropShadow_330_1134" result="shape"/>
</filter>
<linearGradient id="paint0_linear_330_1134" x1="154.5" y1="43" x2="154.5" y2="348" gradientUnits="userSpaceOnUse">
<stop stop-color="white"/>
<stop offset="1" stop-color="#F7F9FD"/>
</linearGradient>
</defs>
</svg>
