<svg width="309" height="363" viewBox="0 0 309 363" fill="none" xmlns="http://www.w3.org/2000/svg">
<g filter="url(#filter0_d_330_806)">
<rect x="10" y="43" width="289" height="305" rx="30" fill="url(#paint0_linear_330_806)"/>
</g>
<path d="M152 182C202.258 182 243 141.258 243 91C243 40.7421 202.258 0 152 0C101.742 0 61 40.7421 61 91C61 141.258 101.742 182 152 182Z" fill="#1E959B"/>
<path d="M144.543 216.2H147.951V233H144.663V222.104L139.935 229.904H139.551L134.823 222.128V233H131.511V216.2H134.919L139.743 224.144L144.543 216.2ZM159.337 233H155.233L149.593 216.2H153.193L157.297 229.112L161.377 216.2H165.001L159.337 233ZM166.62 216.2H172.884C174.484 216.2 175.844 216.744 176.964 217.832C178.068 218.92 178.62 220.256 178.62 221.84C178.62 223.424 178.068 224.76 176.964 225.848C175.844 226.936 174.484 227.48 172.884 227.48H169.932V233H166.62V216.2ZM169.932 224.384H172.884C173.588 224.384 174.172 224.144 174.636 223.664C175.1 223.168 175.332 222.56 175.332 221.84C175.332 221.104 175.1 220.496 174.636 220.016C174.172 219.536 173.588 219.296 172.884 219.296H169.932V224.384Z" fill="#1E959B"/>
<g filter="url(#filter1_d_330_806)">
<path d="M51 286C51 274.954 59.9543 266 71 266H237.582C248.628 266 257.582 274.954 257.582 286V308.063C257.582 319.109 248.627 328.063 237.582 328.063H71C59.9543 328.063 51 319.109 51 308.063V286Z" fill="#F05670"/>
</g>
<path d="M126.929 296.782C127.862 297.267 128.329 298.042 128.329 299.106C128.329 299.974 127.997 300.683 127.335 301.234C126.681 301.775 125.827 302.046 124.773 302.046C122.953 302.046 121.735 301.276 121.119 299.736L122.785 298.798C123.074 299.75 123.737 300.226 124.773 300.226C125.295 300.226 125.697 300.119 125.977 299.904C126.266 299.68 126.411 299.372 126.411 298.98C126.411 298.588 126.271 298.285 125.991 298.07C125.711 297.846 125.319 297.734 124.815 297.734H123.597V296.012H124.521C125.006 296.012 125.384 295.909 125.655 295.704C125.925 295.489 126.061 295.2 126.061 294.836C126.061 294.463 125.939 294.173 125.697 293.968C125.463 293.763 125.123 293.66 124.675 293.66C123.835 293.66 123.247 294.071 122.911 294.892L121.273 293.94C121.935 292.549 123.069 291.854 124.675 291.854C125.636 291.854 126.429 292.115 127.055 292.638C127.671 293.151 127.979 293.842 127.979 294.71C127.979 295.587 127.629 296.278 126.929 296.782ZM137.982 301.85H135.882L135.294 300.086H131.388L130.8 301.85H128.714L132.144 292.05H134.538L137.982 301.85ZM133.348 294.276L132.004 298.28H134.692L133.348 294.276ZM142.826 296.81L146.592 301.85H144.366L140.866 297.258V301.85H138.934V292.05H140.866V296.376L144.226 292.05H146.452L142.826 296.81ZM156.193 301.85H154.093L153.505 300.086H149.599L149.011 301.85H146.925L150.355 292.05H152.749L156.193 301.85ZM151.559 294.276L150.215 298.28H152.903L151.559 294.276ZM162.339 296.782C163.272 297.267 163.739 298.042 163.739 299.106C163.739 299.974 163.407 300.683 162.745 301.234C162.091 301.775 161.237 302.046 160.183 302.046C158.363 302.046 157.145 301.276 156.529 299.736L158.195 298.798C158.484 299.75 159.147 300.226 160.183 300.226C160.705 300.226 161.107 300.119 161.387 299.904C161.676 299.68 161.821 299.372 161.821 298.98C161.821 298.588 161.681 298.285 161.401 298.07C161.121 297.846 160.729 297.734 160.225 297.734H159.007V296.012H159.931C160.416 296.012 160.794 295.909 161.065 295.704C161.335 295.489 161.471 295.2 161.471 294.836C161.471 294.463 161.349 294.173 161.107 293.968C160.873 293.763 160.533 293.66 160.085 293.66C159.245 293.66 158.657 294.071 158.321 294.892L156.683 293.94C157.345 292.549 158.479 291.854 160.085 291.854C161.046 291.854 161.839 292.115 162.465 292.638C163.081 293.151 163.389 293.842 163.389 294.71C163.389 295.587 163.039 296.278 162.339 296.782ZM173.392 301.85H171.292L170.704 300.086H166.798L166.21 301.85H164.124L167.554 292.05H169.948L173.392 301.85ZM168.758 294.276L167.414 298.28H170.102L168.758 294.276ZM172.905 292.05H180.115V293.898H177.469V301.85H175.537V293.898H172.905V292.05ZM183.126 295.27H184.848C185.781 295.27 186.574 295.587 187.228 296.222C187.872 296.857 188.194 297.636 188.194 298.56C188.194 299.484 187.872 300.263 187.228 300.898C186.574 301.533 185.781 301.85 184.848 301.85H181.194V292.05H183.126V295.27ZM183.126 300.044H184.848C185.258 300.044 185.599 299.904 185.87 299.624C186.14 299.344 186.276 298.989 186.276 298.56C186.276 298.14 186.14 297.79 185.87 297.51C185.599 297.221 185.258 297.076 184.848 297.076H183.126V300.044Z" fill="white"/>
<path d="M94.0061 121.481C94.8972 119.272 96.6795 118.496 98.9043 118.305C100.671 118.149 102.428 117.903 104.169 117.565C104.724 117.415 105.196 117.052 105.485 116.556C106.518 114.625 107.428 112.615 108.407 110.666C109.158 109.151 110.325 108.278 112.08 108.284C112.863 108.253 113.635 108.465 114.291 108.893C114.948 109.32 115.454 109.941 115.742 110.669C116.106 111.479 116.548 111.836 117.445 111.724C118.198 111.675 118.953 111.668 119.706 111.706C110.771 100.637 107.561 88.179 110.677 74.4513C113.793 60.7237 122.195 50.991 134.925 44.941C134.162 43.7285 133.643 42.5161 134.149 41.0764C134.701 39.5063 135.756 38.5333 137.399 38.2787C139.52 37.9483 141.642 37.6391 143.785 37.3694C144.694 37.2572 145.261 36.9056 145.652 36.0266C146.498 34.1292 147.471 32.2924 148.38 30.4252C149.123 28.9097 150.293 28.0004 152.017 28.0004C153.797 27.9792 155.009 28.8612 155.776 30.4252C156.685 32.2924 157.667 34.1292 158.504 36.0266C158.919 36.9602 159.562 37.2603 160.495 37.3724C162.478 37.6149 164.454 37.9049 166.424 38.2423C169.786 38.8152 171.104 41.6007 169.455 44.553C169.382 44.6803 169.331 44.8197 169.249 44.9895C173.862 47.0379 178.071 49.8958 181.676 53.4279C188.866 60.5358 193.14 69.0894 194.289 79.1737C195.169 86.6525 194.036 94.2307 191.006 101.125C190.497 102.298 189.548 102.728 188.56 102.279C187.651 101.867 187.381 100.928 187.835 99.7577C187.929 99.5091 188.039 99.2697 188.139 99.0241C190.091 94.326 191.191 89.4217 191.085 84.3387C190.733 67.6678 182.983 55.6952 168.097 48.2842C166.861 47.678 165.976 47.6325 165.166 48.8328C165.022 49.0086 164.86 49.1681 164.681 49.3087C163.42 50.5211 163.214 51.3183 163.893 52.8823C164.024 53.1854 164.478 53.3916 164.827 53.5461C173.92 57.5835 180.197 64.27 183.359 73.7178C187.942 87.397 182.852 102.628 171.074 110.939C170.813 111.124 170.561 111.324 170.064 111.7C173.362 111.7 176.369 111.7 179.376 111.679C179.649 111.679 179.982 111.376 180.182 111.148C181.431 109.681 182.674 108.205 183.874 106.699C184.783 105.574 185.656 105.295 186.559 105.953C187.463 106.611 187.469 107.632 186.666 108.751C186.311 109.242 185.953 109.73 185.583 110.209C185.214 110.688 184.889 111.076 184.392 111.691C185.571 111.691 186.547 111.782 187.49 111.645C187.829 111.594 188.16 111.039 188.372 110.648C189.563 108.433 191.867 107.56 193.889 108.757C194.675 109.263 195.322 109.959 195.768 110.782C196.801 112.624 197.699 114.549 198.584 116.471C198.712 116.8 198.934 117.085 199.222 117.29C199.51 117.495 199.852 117.612 200.205 117.626C202.412 117.896 204.618 118.199 206.81 118.577C207.549 118.677 208.242 118.992 208.803 119.482C209.365 119.973 209.77 120.617 209.968 121.336C210.213 122.019 210.254 122.758 210.087 123.465C209.92 124.171 209.553 124.814 209.029 125.316C207.465 126.91 205.882 128.489 204.237 129.995C203.948 130.234 203.735 130.551 203.622 130.908C203.509 131.265 203.502 131.647 203.6 132.008C203.954 133.938 204.299 135.872 204.637 137.81C205.216 141.144 203.185 143.52 200.132 143.065C199.578 142.962 199.043 142.77 198.55 142.496C196.671 141.532 194.795 140.556 192.946 139.531C192.679 139.361 192.368 139.272 192.052 139.275C191.736 139.278 191.427 139.374 191.164 139.549C189.315 140.574 187.429 141.529 185.562 142.52C183.998 143.35 182.437 143.444 180.979 142.347C179.521 141.25 179.067 139.813 179.464 138.025C179.767 136.74 179.906 135.421 180.14 133.975H178.894H166.985C165.678 133.975 164.863 133.351 164.821 132.32C164.778 131.29 165.6 130.532 166.967 130.529C170.974 130.529 174.984 130.529 178.991 130.529H179.87C178.403 128.926 176.936 127.261 175.402 125.664C174.368 124.591 173.753 123.424 174.017 121.9C174.142 121.031 174.552 120.229 175.182 119.618C175.813 119.008 176.628 118.624 177.5 118.526C179.703 118.223 181.904 117.871 184.113 117.598C185.556 117.423 185.52 116.141 186.144 115.174H118.164C118.624 117.089 118.894 117.335 120.873 117.641C122.774 117.944 124.674 118.247 126.578 118.52C128.212 118.765 129.397 119.605 129.948 121.178C130.5 122.751 130.109 124.209 128.936 125.455C127.351 127.128 125.793 128.826 124.247 130.487C124.398 130.487 124.75 130.529 125.099 130.529H158.225C160.044 130.529 160.898 131.093 160.88 132.257C160.862 133.421 160.01 133.96 158.192 133.96H125.408H124.029C124.271 135.476 124.483 136.894 124.735 138.319C124.9 139.064 124.842 139.842 124.566 140.554C124.29 141.266 123.81 141.88 123.186 142.32C122.606 142.787 121.9 143.071 121.158 143.136C120.416 143.201 119.671 143.045 119.018 142.687C117.021 141.698 115.054 140.653 113.102 139.577C112.405 139.192 111.847 139.14 111.119 139.555C109.319 140.583 107.455 141.504 105.621 142.477C104.106 143.284 102.59 143.408 101.126 142.411C99.662 141.413 99.1861 139.949 99.4589 138.243C99.7903 136.192 100.151 134.146 100.541 132.105C100.711 131.217 100.58 130.538 99.856 129.895C98.5557 128.741 97.3039 127.522 96.1217 126.258C95.3367 125.416 94.7062 124.44 94 123.509L94.0061 121.481ZM134.074 111.691C133.164 111.009 132.476 110.515 131.812 109.984C124.859 104.468 120.792 97.2813 119.467 88.5215C119.252 87.106 119.77 86.2028 120.788 86.03C121.928 85.839 122.607 86.4756 122.871 87.979C124.732 99.0696 130.77 106.896 141.078 111.376C141.597 111.587 142.152 111.695 142.712 111.694C148.608 111.715 154.506 111.694 160.401 111.724C161.819 111.769 163.225 111.456 164.49 110.815C175.138 105.38 181.025 96.7296 181.513 84.7782C181.876 75.9275 178.482 68.3923 172.05 62.2847C169.903 60.2413 167.431 58.5696 164.736 57.338C164.716 57.4795 164.709 57.6226 164.715 57.7654C165.018 59.5598 164.59 61.0995 163.041 62.1513C161.493 63.2031 159.919 62.9576 158.349 62.0968C156.597 61.1329 154.8 60.2478 153.054 59.2748C152.773 59.0902 152.446 58.9902 152.11 58.987C151.774 58.9838 151.444 59.0774 151.16 59.2566C149.177 60.3448 147.18 61.4178 145.146 62.409C144.615 62.6827 144.028 62.8321 143.431 62.8456C142.833 62.8592 142.24 62.7366 141.697 62.4872C141.154 62.2378 140.674 61.8681 140.295 61.4061C139.916 60.9441 139.647 60.4018 139.508 59.8204C139.326 59.0778 139.481 58.2534 139.481 57.3531C139.02 57.5653 138.644 57.7169 138.293 57.9078C132.73 60.8488 128.26 65.5012 125.544 71.1778C124.155 74.0778 123.234 77.1797 122.816 80.368C122.665 81.4531 121.958 82.029 120.979 81.9593C120 81.8896 119.428 81.2045 119.425 80.1043C119.414 79.8001 119.432 79.4956 119.479 79.195C121.646 67.0707 128.269 58.4564 139.557 53.4764C139.859 53.368 140.116 53.1622 140.287 52.8914C140.936 51.3759 140.724 50.4939 139.502 49.3117C139.237 49.1012 138.993 48.8646 138.775 48.6055C138.081 47.5992 137.335 47.6962 136.295 48.1721C120.837 55.095 111.683 70.7504 113.259 87.8001C114.075 96.7993 117.712 104.513 123.892 111.045C124.138 111.306 124.477 111.652 124.777 111.652C127.781 111.709 130.788 111.691 134.074 111.691ZM102.854 139.061C102.89 139.816 103.354 139.78 103.981 139.449C105.915 138.428 107.873 137.449 109.786 136.385C110.483 135.964 111.282 135.741 112.097 135.741C112.912 135.741 113.711 135.964 114.408 136.385C116.227 137.379 118.073 138.331 119.919 139.274C120.288 139.422 120.672 139.533 121.064 139.604C121.116 139.177 121.27 138.734 121.207 138.325C120.904 136.346 120.558 134.384 120.191 132.408C119.858 130.608 120.191 129.074 121.607 127.78C123.201 126.331 124.708 124.785 126.229 123.257C126.444 123.039 126.687 122.651 126.632 122.418C126.578 122.184 126.135 121.987 125.856 121.957C123.698 121.621 121.534 121.302 119.367 121.024C117.7 120.808 116.49 120.023 115.754 118.477C114.799 116.465 113.805 114.473 112.793 112.491C112.585 112.203 112.336 111.948 112.053 111.733C111.809 111.951 111.594 112.198 111.413 112.47C110.407 114.455 109.413 116.447 108.452 118.456C108.144 119.151 107.658 119.752 107.043 120.199C106.428 120.646 105.707 120.923 104.951 121.002C102.787 121.305 100.623 121.609 98.4617 121.945C98.1199 122.048 97.7929 122.195 97.4887 122.381C97.6154 122.707 97.7868 123.013 97.998 123.291C99.5741 124.87 101.19 126.41 102.778 127.977C103.327 128.474 103.734 129.108 103.958 129.814C104.182 130.52 104.214 131.273 104.051 131.996C103.608 134.294 103.263 136.609 102.851 139.061H102.854ZM182.922 138.628C182.858 139.701 183.125 139.874 184.041 139.401C185.984 138.395 187.926 137.385 189.845 136.336C190.511 135.936 191.273 135.722 192.05 135.716C192.827 135.709 193.592 135.911 194.264 136.3C196.192 137.334 198.126 138.355 200.072 139.331C200.406 139.446 200.755 139.51 201.108 139.522C201.195 139.176 201.234 138.821 201.227 138.464C200.899 136.343 200.599 134.203 200.154 132.099C199.775 130.299 200.354 128.932 201.621 127.722C203.209 126.209 204.777 124.676 206.325 123.124C206.513 122.936 206.722 122.575 206.661 122.378C206.587 122.257 206.486 122.153 206.367 122.075C206.247 121.997 206.112 121.946 205.97 121.927C203.849 121.596 201.727 121.251 199.59 121.018C197.771 120.817 196.48 120.008 195.689 118.35C194.78 116.443 193.847 114.547 192.891 112.664C192.652 112.309 192.37 111.986 192.052 111.7C191.774 111.977 191.525 112.282 191.309 112.609C190.333 114.525 189.363 116.444 188.445 118.387C187.711 119.935 186.502 120.733 184.847 120.963C182.683 121.266 180.519 121.569 178.36 121.912C178.057 121.957 177.621 122.142 177.563 122.348C177.506 122.554 177.739 122.973 177.954 123.191C179.446 124.706 180.916 126.222 182.501 127.637C183.986 128.98 184.353 130.559 183.983 132.457C183.562 134.569 183.253 136.661 182.922 138.628ZM142.849 58.7141C142.797 59.3355 143.152 59.5688 143.9 59.1839C145.877 58.1655 147.841 57.1379 149.805 56.068C151.32 55.2314 152.79 55.2011 154.321 56.0437C156.273 57.1167 158.261 58.1321 160.235 59.1506C160.474 59.2748 160.929 59.39 161.029 59.2779C161.122 59.1533 161.19 59.0115 161.228 58.8607C161.267 58.7099 161.275 58.5529 161.253 58.3989C160.92 56.2347 160.592 54.0644 160.165 51.9185C159.822 50.2029 160.229 48.7995 161.49 47.5962C163.106 46.0564 164.7 44.4934 166.273 42.9071C166.492 42.6729 166.61 42.3611 166.6 42.0402C166.6 41.8947 166.148 41.7159 165.885 41.6735C163.836 41.3522 161.787 41.0097 159.728 40.7642C157.807 40.5429 156.394 39.7275 155.6 37.8907C154.806 36.0539 153.9 34.3595 152.997 32.6197C152.727 32.2013 152.414 31.8123 152.063 31.4588C151.74 31.7971 151.452 32.1667 151.202 32.5621C150.241 34.4474 149.326 36.354 148.392 38.2514C148.117 38.8779 147.686 39.4234 147.14 39.8357C146.594 40.248 145.951 40.5134 145.273 40.6065C143 40.9521 140.727 41.2885 138.457 41.6583C138.124 41.7614 137.807 41.9093 137.514 42.0978C137.644 42.4297 137.819 42.7427 138.032 43.0284C139.582 44.5823 141.148 46.12 142.73 47.6416C143.943 48.8177 144.355 50.1998 144.034 51.8851C143.606 54.0948 143.258 56.3317 142.849 58.7141Z" fill="#F8FFFF"/>
<path d="M152.114 121.072C156.915 121.072 161.713 121.057 166.511 121.093C167.143 121.077 167.766 121.241 168.308 121.566C169.3 122.257 169.054 123.9 167.936 124.373C167.512 124.531 167.063 124.605 166.611 124.591C156.936 124.603 147.263 124.603 137.592 124.591C136.14 124.591 135.418 124.106 135.285 123.1C135.118 121.866 135.912 121.063 137.38 121.057C141.571 121.057 145.766 121.057 149.961 121.057L152.114 121.072Z" fill="#F8FFFF"/>
<path d="M143.377 83.1263C142.55 86.0088 141.762 88.6458 141.041 91.3101C140.737 92.4195 140.149 93.15 138.979 93.247C137.976 93.3288 137.227 92.6226 136.827 91.298C136.094 88.8732 135.372 86.4483 134.645 84.0417C134.584 83.8446 134.493 83.6597 134.299 83.1778C133.763 86.0967 133.284 88.7095 132.784 91.3223C132.544 92.6286 131.835 93.2288 130.735 93.0682C129.735 92.9227 129.18 92.1285 129.398 90.8434C130.083 86.7848 130.832 82.7413 131.556 78.6918C131.684 77.9856 131.772 77.2703 131.932 76.5701C132.166 75.5517 132.775 74.8515 133.863 74.803C134.341 74.7489 134.823 74.8739 135.215 75.1537C135.606 75.4335 135.881 75.8485 135.985 76.3185C136.811 79.1031 137.638 81.8876 138.464 84.6721C138.567 85.0177 138.688 85.3571 138.91 86.0118C139.27 84.7994 139.555 83.8901 139.819 82.9626C140.425 80.8227 141.031 78.6767 141.638 76.5398C141.986 75.3274 142.78 74.6605 143.796 74.7636C144.899 74.8757 145.539 75.5153 145.754 76.6368C146.636 81.2682 147.548 85.8967 148.436 90.5312C148.606 91.4162 148.618 92.2831 147.706 92.8408C146.563 93.538 145.333 92.8802 145.051 91.4102C144.59 89.0005 144.141 86.5877 143.687 84.1781C143.641 83.8962 143.532 83.6264 143.377 83.1263Z" fill="#F8FFFF"/>
<path d="M166.388 86.6906C166.388 88.3274 166.388 89.8005 166.388 91.2705C166.388 92.4587 165.669 93.2529 164.669 93.2589C163.669 93.265 162.972 92.483 162.969 91.2705C162.951 86.3885 162.951 81.5075 162.969 76.6275C162.969 75.4363 163.575 74.7695 164.766 74.7483C166.425 74.6865 168.087 74.731 169.74 74.8816C172.914 75.2423 175.038 77.9915 174.826 81.2772C174.638 84.2173 172.032 86.6452 169.004 86.6876C168.164 86.6997 167.34 86.6906 166.388 86.6906ZM166.448 78.2673V83.2504C167.264 83.2504 168.009 83.2504 168.752 83.2504C169.015 83.2326 169.274 83.1827 169.525 83.1018C170.096 82.9588 170.598 82.6156 170.938 82.1346C171.279 81.6536 171.435 81.0666 171.38 80.48C171.307 79.8973 171.033 79.3584 170.604 78.957C170.176 78.5556 169.62 78.3169 169.034 78.2825C168.209 78.2309 167.379 78.2673 166.448 78.2673Z" fill="#F8FFFF"/>
<path d="M154.884 86.721L158.219 76.773C158.303 76.5215 158.37 76.2638 158.47 76.0213C158.888 75.0059 159.798 74.5725 160.753 74.918C161.179 75.0869 161.521 75.4177 161.704 75.8381C161.886 76.2584 161.895 76.7341 161.729 77.161C160.616 80.5709 159.476 83.9718 158.346 87.3726C157.882 88.77 157.4 90.1612 156.952 91.5616C156.627 92.5709 155.967 93.2196 154.912 93.2287C153.857 93.2377 153.196 92.5709 152.854 91.5798C151.22 86.8361 149.574 82.0956 147.949 77.3489C147.543 76.1638 147.907 75.2272 148.859 74.8907C149.877 74.5149 150.765 74.9968 151.199 76.2214C152.278 79.2797 153.32 82.3502 154.396 85.4146C154.515 85.7935 154.669 86.1663 154.884 86.721Z" fill="#F8FFFF"/>
<defs>
<filter id="filter0_d_330_806" x="0" y="38" width="309" height="325" filterUnits="userSpaceOnUse" color-interpolation-filters="sRGB">
<feFlood flood-opacity="0" result="BackgroundImageFix"/>
<feColorMatrix in="SourceAlpha" type="matrix" values="0 0 0 0 0 0 0 0 0 0 0 0 0 0 0 0 0 0 127 0" result="hardAlpha"/>
<feOffset dy="5"/>
<feGaussianBlur stdDeviation="5"/>
<feColorMatrix type="matrix" values="0 0 0 0 0.117647 0 0 0 0 0.584314 0 0 0 0 0.607843 0 0 0 0.5 0"/>
<feBlend mode="normal" in2="BackgroundImageFix" result="effect1_dropShadow_330_806"/>
<feBlend mode="normal" in="SourceGraphic" in2="effect1_dropShadow_330_806" result="shape"/>
</filter>
<filter id="filter1_d_330_806" x="41" y="261" width="226.582" height="82.0632" filterUnits="userSpaceOnUse" color-interpolation-filters="sRGB">
<feFlood flood-opacity="0" result="BackgroundImageFix"/>
<feColorMatrix in="SourceAlpha" type="matrix" values="0 0 0 0 0 0 0 0 0 0 0 0 0 0 0 0 0 0 127 0" result="hardAlpha"/>
<feOffset dy="5"/>
<feGaussianBlur stdDeviation="5"/>
<feColorMatrix type="matrix" values="0 0 0 0 0.117647 0 0 0 0 0.584314 0 0 0 0 0.607843 0 0 0 0.5 0"/>
<feBlend mode="normal" in2="BackgroundImageFix" result="effect1_dropShadow_330_806"/>
<feBlend mode="normal" in="SourceGraphic" in2="effect1_dropShadow_330_806" result="shape"/>
</filter>
<linearGradient id="paint0_linear_330_806" x1="154.5" y1="43" x2="154.5" y2="348" gradientUnits="userSpaceOnUse">
<stop stop-color="white"/>
<stop offset="1" stop-color="#F7F9FD"/>
</linearGradient>
</defs>
</svg>
