<svg width="309" height="363" viewBox="0 0 309 363" fill="none" xmlns="http://www.w3.org/2000/svg">
<g filter="url(#filter0_d_330_1189)">
<rect x="10" y="43" width="289" height="305" rx="30" fill="url(#paint0_linear_330_1189)"/>
</g>
<path d="M152 182C202.258 182 243 141.258 243 91C243 40.7421 202.258 0 152 0C101.742 0 61 40.7421 61 91C61 141.258 101.742 182 152 182Z" fill="#1E959B"/>
<path d="M111.249 233.336C108.737 233.336 106.649 232.496 104.985 230.816C103.337 229.152 102.513 227.08 102.513 224.6C102.513 222.104 103.337 220.032 104.985 218.384C106.649 216.704 108.737 215.864 111.249 215.864C112.769 215.864 114.169 216.224 115.449 216.944C116.745 217.648 117.753 218.608 118.473 219.824L115.617 221.48C115.201 220.728 114.609 220.144 113.841 219.728C113.073 219.296 112.209 219.08 111.249 219.08C109.617 219.08 108.297 219.592 107.289 220.616C106.297 221.656 105.801 222.984 105.801 224.6C105.801 226.2 106.297 227.52 107.289 228.56C108.297 229.584 109.617 230.096 111.249 230.096C112.209 230.096 113.073 229.888 113.841 229.472C114.625 229.04 115.217 228.456 115.617 227.72L118.473 229.376C117.753 230.592 116.745 231.56 115.449 232.28C114.169 232.984 112.769 233.336 111.249 233.336ZM133.299 233H129.723L126.339 227.168H123.819V233H120.507V216.2H127.227C128.779 216.2 130.099 216.744 131.187 217.832C132.275 218.92 132.819 220.232 132.819 221.768C132.819 222.808 132.523 223.776 131.931 224.672C131.339 225.552 130.555 226.216 129.579 226.664L133.299 233ZM127.227 219.296H123.819V224.264H127.227C127.851 224.264 128.387 224.024 128.835 223.544C129.283 223.048 129.507 222.456 129.507 221.768C129.507 221.08 129.283 220.496 128.835 220.016C128.387 219.536 127.851 219.296 127.227 219.296ZM148.281 216.2H151.689V233H148.401V222.104L143.673 229.904H143.289L138.561 222.128V233H135.249V216.2H138.657L143.481 224.144L148.281 216.2ZM165.02 213.8L155.42 235.4H154.052L163.652 213.8H165.02ZM170.694 226.064V229.832H177.774V233H167.382V216.2H177.654V219.368H170.694V222.944H177.054V226.064H170.694ZM192.901 233H189.325L185.941 227.168H183.421V233H180.109V216.2H186.829C188.381 216.2 189.701 216.744 190.789 217.832C191.877 218.92 192.421 220.232 192.421 221.768C192.421 222.808 192.125 223.776 191.533 224.672C190.941 225.552 190.157 226.216 189.181 226.664L192.901 233ZM186.829 219.296H183.421V224.264H186.829C187.453 224.264 187.989 224.024 188.437 223.544C188.885 223.048 189.109 222.456 189.109 221.768C189.109 221.08 188.885 220.496 188.437 220.016C187.989 219.536 187.453 219.296 186.829 219.296ZM194.851 216.2H201.115C202.715 216.2 204.075 216.744 205.195 217.832C206.299 218.92 206.851 220.256 206.851 221.84C206.851 223.424 206.299 224.76 205.195 225.848C204.075 226.936 202.715 227.48 201.115 227.48H198.163V233H194.851V216.2ZM198.163 224.384H201.115C201.819 224.384 202.403 224.144 202.867 223.664C203.331 223.168 203.563 222.56 203.563 221.84C203.563 221.104 203.331 220.496 202.867 220.016C202.403 219.536 201.819 219.296 201.115 219.296H198.163V224.384Z" fill="#1E959B"/>
<g filter="url(#filter1_d_330_1189)">
<path d="M51 286C51 274.954 59.9543 266 71 266H237.582C248.628 266 257.582 274.954 257.582 286V308.063C257.582 319.109 248.627 328.063 237.582 328.063H71C59.9543 328.063 51 319.109 51 308.063V286Z" fill="#F05670"/>
</g>
<path d="M126.929 296.782C127.862 297.267 128.329 298.042 128.329 299.106C128.329 299.974 127.997 300.683 127.335 301.234C126.681 301.775 125.827 302.046 124.773 302.046C122.953 302.046 121.735 301.276 121.119 299.736L122.785 298.798C123.074 299.75 123.737 300.226 124.773 300.226C125.295 300.226 125.697 300.119 125.977 299.904C126.266 299.68 126.411 299.372 126.411 298.98C126.411 298.588 126.271 298.285 125.991 298.07C125.711 297.846 125.319 297.734 124.815 297.734H123.597V296.012H124.521C125.006 296.012 125.384 295.909 125.655 295.704C125.925 295.489 126.061 295.2 126.061 294.836C126.061 294.463 125.939 294.173 125.697 293.968C125.463 293.763 125.123 293.66 124.675 293.66C123.835 293.66 123.247 294.071 122.911 294.892L121.273 293.94C121.935 292.549 123.069 291.854 124.675 291.854C125.636 291.854 126.429 292.115 127.055 292.638C127.671 293.151 127.979 293.842 127.979 294.71C127.979 295.587 127.629 296.278 126.929 296.782ZM137.982 301.85H135.882L135.294 300.086H131.388L130.8 301.85H128.714L132.144 292.05H134.538L137.982 301.85ZM133.348 294.276L132.004 298.28H134.692L133.348 294.276ZM142.826 296.81L146.592 301.85H144.366L140.866 297.258V301.85H138.934V292.05H140.866V296.376L144.226 292.05H146.452L142.826 296.81ZM156.193 301.85H154.093L153.505 300.086H149.599L149.011 301.85H146.925L150.355 292.05H152.749L156.193 301.85ZM151.559 294.276L150.215 298.28H152.903L151.559 294.276ZM162.339 296.782C163.272 297.267 163.739 298.042 163.739 299.106C163.739 299.974 163.407 300.683 162.745 301.234C162.091 301.775 161.237 302.046 160.183 302.046C158.363 302.046 157.145 301.276 156.529 299.736L158.195 298.798C158.484 299.75 159.147 300.226 160.183 300.226C160.705 300.226 161.107 300.119 161.387 299.904C161.676 299.68 161.821 299.372 161.821 298.98C161.821 298.588 161.681 298.285 161.401 298.07C161.121 297.846 160.729 297.734 160.225 297.734H159.007V296.012H159.931C160.416 296.012 160.794 295.909 161.065 295.704C161.335 295.489 161.471 295.2 161.471 294.836C161.471 294.463 161.349 294.173 161.107 293.968C160.873 293.763 160.533 293.66 160.085 293.66C159.245 293.66 158.657 294.071 158.321 294.892L156.683 293.94C157.345 292.549 158.479 291.854 160.085 291.854C161.046 291.854 161.839 292.115 162.465 292.638C163.081 293.151 163.389 293.842 163.389 294.71C163.389 295.587 163.039 296.278 162.339 296.782ZM173.392 301.85H171.292L170.704 300.086H166.798L166.21 301.85H164.124L167.554 292.05H169.948L173.392 301.85ZM168.758 294.276L167.414 298.28H170.102L168.758 294.276ZM172.905 292.05H180.115V293.898H177.469V301.85H175.537V293.898H172.905V292.05ZM183.126 295.27H184.848C185.781 295.27 186.574 295.587 187.228 296.222C187.872 296.857 188.194 297.636 188.194 298.56C188.194 299.484 187.872 300.263 187.228 300.898C186.574 301.533 185.781 301.85 184.848 301.85H181.194V292.05H183.126V295.27ZM183.126 300.044H184.848C185.258 300.044 185.599 299.904 185.87 299.624C186.14 299.344 186.276 298.989 186.276 298.56C186.276 298.14 186.14 297.79 185.87 297.51C185.599 297.221 185.258 297.076 184.848 297.076H183.126V300.044Z" fill="white"/>
<path d="M133.636 93.0757C134.463 93.2243 135.256 92.6753 135.405 91.8474L136.12 87.8871L137.314 91.9347C137.545 92.7167 138.209 93.137 138.991 93.175C139.679 93.1713 140.459 92.6009 140.653 91.9191L141.806 87.8761L142.567 91.8626C142.725 92.6887 143.523 93.2308 144.349 93.0726C145.175 92.9149 145.717 92.117 145.559 91.291L143.762 81.8877C143.416 80.1889 140.857 80.1046 140.384 81.7502L138.96 86.7479L137.481 81.7352C136.989 80.042 134.427 80.2368 134.101 81.9238L132.408 91.3064C132.258 92.1343 132.808 92.9264 133.636 93.0757Z" fill="#F8FFFF"/>
<path d="M114.877 93.1753C116.49 93.1753 118.038 92.5127 119.079 91.2705C119.619 90.6258 119.535 89.6654 118.89 89.1252C118.245 88.5851 117.285 88.6695 116.744 89.3145C114.861 91.3012 111.495 89.3975 111.582 86.8351C111.548 84.2365 114.586 82.6216 116.717 84.1023C117.415 84.5736 118.361 84.3898 118.832 83.6929C119.303 82.996 119.12 82.0494 118.423 81.5785C114.29 78.7322 108.493 81.8128 108.536 86.8351C108.537 90.331 111.381 93.1753 114.877 93.1753Z" fill="#F8FFFF"/>
<path d="M123.305 93.1752C124.146 93.1752 124.828 92.4934 124.828 91.6523V89.7691L127.371 92.6584C128.068 93.2983 128.785 93.344 129.52 92.7955C130.151 92.2399 130.213 91.2774 129.657 90.6461L127.52 88.2185C131.633 86.4385 130.388 80.5581 125.868 80.4945H123.308C122.466 80.4927 121.782 81.1752 121.782 82.0175V91.6523C121.782 92.4934 122.464 93.1752 123.305 93.1752ZM125.868 83.5402C127.353 83.6227 127.352 85.4202 125.868 85.5024C125.62 85.5024 125.236 85.5036 124.84 85.5054C124.838 84.8504 124.836 84.1953 124.836 83.5402H125.868Z" fill="#F8FFFF"/>
<path d="M167.398 79.5117V72.6208C167.329 70.6043 164.422 70.6059 164.353 72.6208V79.5117C164.422 81.5281 167.329 81.5267 167.398 79.5117Z" fill="#F8FFFF"/>
<path d="M185.102 79.5117V72.6208C185.032 70.6043 182.125 70.6059 182.056 72.6208V79.5117C182.125 81.5281 185.032 81.5267 185.102 79.5117Z" fill="#F8FFFF"/>
<path d="M178.242 77.6596V74.4727C178.048 69.8078 171.403 69.8113 171.211 74.4727V77.6596C171.405 82.3249 178.05 82.321 178.242 77.6596ZM175.196 77.6596C175.18 78.2791 174.273 78.2789 174.257 77.6596V74.4727C174.273 73.8532 175.18 73.8538 175.196 74.4727V77.6596Z" fill="#F8FFFF"/>
<path d="M176.25 67.8068V60.9159C176.18 58.8993 173.273 58.9009 173.204 60.9159V67.8068C173.273 69.8231 176.18 69.8217 176.25 67.8068Z" fill="#F8FFFF"/>
<path d="M169.391 62.7677C169.198 58.1026 162.552 58.106 162.36 62.7677V65.9545C162.554 70.6196 169.199 70.6158 169.391 65.9545V62.7677ZM166.345 65.9545C166.329 66.5739 165.422 66.5736 165.406 65.9545V62.7677C165.422 62.1479 166.329 62.1486 166.345 62.7677V65.9545Z" fill="#F8FFFF"/>
<path d="M187.095 62.7677C186.902 58.1026 180.256 58.106 180.064 62.7677V65.9545C180.258 70.6196 186.903 70.6158 187.095 65.9545V62.7677ZM184.049 65.9545C184.033 66.5739 183.126 66.5736 183.11 65.9545V62.7677C183.126 62.1479 184.033 62.1486 184.049 62.7677V65.9545Z" fill="#F8FFFF"/>
<path d="M173.204 84.3258V91.2167C173.273 93.2333 176.18 93.2316 176.25 91.2167V84.3258C176.18 82.3092 173.273 82.3108 173.204 84.3258Z" fill="#F8FFFF"/>
<path d="M162.36 86.178V89.3648C162.554 94.0299 169.199 94.0261 169.391 89.3648V86.178C169.197 81.5128 162.552 81.5163 162.36 86.178ZM165.406 86.178C165.422 85.5582 166.329 85.5588 166.345 86.178V89.3648C166.329 89.9841 165.422 89.9839 165.406 89.3648V86.178Z" fill="#F8FFFF"/>
<path d="M180.064 86.178V89.3648C180.258 94.0299 186.903 94.0261 187.095 89.3648V86.178C186.902 81.5128 180.256 81.5163 180.064 86.178ZM183.11 86.178C183.126 85.5582 184.033 85.5588 184.049 86.178V89.3648C184.033 89.9841 183.126 89.9839 183.11 89.3648V86.178Z" fill="#F8FFFF"/>
<path d="M202.249 119.589C202.248 119.587 202.247 119.586 202.246 119.584C198.748 112.441 189.886 108.975 182.476 111.737V99.3149H188.911C192.74 99.3149 195.855 96.2002 195.855 92.3715V80.454C195.855 78.485 192.809 78.485 192.809 80.454V92.3715C192.809 94.5206 191.06 96.269 188.911 96.269H175.857C175.529 96.269 175.21 96.3748 174.947 96.5703L168.489 101.378V97.792C168.489 96.9509 167.807 96.269 166.966 96.269H160.543C158.393 96.269 156.645 94.5206 156.645 92.3715V73.577C156.645 73.5664 156.645 73.5561 156.645 73.5455V59.1581C156.645 57.0089 158.393 55.2605 160.543 55.2605H188.911C191.06 55.2605 192.809 57.0089 192.809 59.1581V72.3377C192.809 74.3068 195.854 74.3068 195.854 72.3377V59.1581C195.854 55.3293 192.74 52.2146 188.911 52.2146H160.543C156.714 52.2146 153.599 55.3293 153.599 59.1581V72.0382H108.832C103.98 72.0382 100.033 75.9853 100.033 80.8372V120.511C100.033 124.71 103.449 128.126 107.648 128.126H111.202C113.171 128.126 113.171 125.08 111.202 125.08H107.648C105.129 125.08 103.079 123.03 103.079 120.511V115.326H176.716C174.096 117.859 172.331 121.27 171.901 125.08H119.779C117.81 125.08 117.81 128.126 119.779 128.126H132.381L129.583 139.953H124.197C123.356 139.953 122.674 140.635 122.674 141.476C122.674 142.317 123.356 142.999 124.197 142.999H158.312C159.153 142.999 159.835 142.317 159.835 141.476C159.835 140.635 159.153 139.953 158.312 139.953H152.926L150.128 128.126H171.844C172.002 130.254 172.574 132.295 173.55 134.207C176.317 139.63 181.816 142.999 187.899 142.999C199.744 143.146 207.758 130.06 202.249 119.589ZM182.205 129.797C182.204 129.796 182.203 129.794 182.203 129.793C180.018 125.636 183.202 120.449 187.9 120.508C190.313 120.508 192.495 121.846 193.594 124C195.783 128.157 192.599 133.347 187.9 133.289C185.486 133.289 183.304 131.951 182.205 129.797ZM198.765 119.656L195.508 121.314C194.045 119.314 191.866 117.978 189.423 117.583V113.931C193.236 114.372 196.638 116.457 198.765 119.656ZM103.079 80.8372C103.079 77.6648 105.66 75.0841 108.832 75.0841H153.599V92.3715C153.599 96.2002 156.714 99.3149 160.543 99.3149H165.443V104.41C165.443 105.636 166.881 106.372 167.876 105.631L176.361 99.3149H179.43V112.28H103.079V80.8372ZM186.377 113.932V117.584C180.869 118.37 177.089 124.392 178.908 129.768L175.664 131.42L175.65 131.427C172.64 123.655 178.203 114.747 186.377 113.932ZM149.796 139.953H132.713L135.511 128.126H146.998L149.796 139.953ZM187.9 139.953C183.48 139.953 179.441 137.76 177.034 134.141L180.291 132.482C186.746 140.958 199.934 134.267 196.891 124.028L199.46 122.72L200.149 122.369C203.358 130.696 196.84 140.079 187.9 139.953Z" fill="#F8FFFF"/>
<path d="M108.429 67.3444C109.27 67.3444 109.952 66.6625 109.952 65.8215V57.9238H115.922V65.8215C115.922 67.7905 118.968 67.7905 118.968 65.8215V56.4009C118.968 55.5598 118.286 54.8779 117.445 54.8779H108.429C107.588 54.8779 106.906 55.5598 106.906 56.4009V65.8215C106.906 66.6625 107.588 67.3444 108.429 67.3444Z" fill="#F8FFFF"/>
<path d="M135.996 67.3444C136.837 67.3444 137.519 66.6625 137.519 65.8214V52.1611H143.489V65.8212C143.489 67.7903 146.535 67.7903 146.535 65.8212V50.6382C146.535 49.7971 145.853 49.1152 145.012 49.1152H135.996C135.155 49.1152 134.473 49.7971 134.473 50.6382V65.8212C134.473 66.6625 135.155 67.3444 135.996 67.3444Z" fill="#F8FFFF"/>
<path d="M122.212 67.3445C123.053 67.3445 123.735 66.6626 123.735 65.8215V42.0776H129.704V65.8213C129.704 67.7904 132.75 67.7904 132.75 65.8213V40.5547C132.75 39.7136 132.069 39.0317 131.227 39.0317H122.212C121.371 39.0317 120.689 39.7136 120.689 40.5547V65.8213C120.689 66.6626 121.371 67.3445 122.212 67.3445Z" fill="#F8FFFF"/>
<path d="M145.747 96.9343H110.108C108.091 97.0042 108.093 99.9112 110.108 99.9802H145.747C147.764 99.9104 147.762 97.0036 145.747 96.9343Z" fill="#F8FFFF"/>
<path d="M129.45 103.536H110.108C108.091 103.606 108.093 106.513 110.108 106.582H129.45C131.467 106.512 131.465 103.605 129.45 103.536Z" fill="#F8FFFF"/>
<defs>
<filter id="filter0_d_330_1189" x="0" y="38" width="309" height="325" filterUnits="userSpaceOnUse" color-interpolation-filters="sRGB">
<feFlood flood-opacity="0" result="BackgroundImageFix"/>
<feColorMatrix in="SourceAlpha" type="matrix" values="0 0 0 0 0 0 0 0 0 0 0 0 0 0 0 0 0 0 127 0" result="hardAlpha"/>
<feOffset dy="5"/>
<feGaussianBlur stdDeviation="5"/>
<feColorMatrix type="matrix" values="0 0 0 0 0.117647 0 0 0 0 0.584314 0 0 0 0 0.607843 0 0 0 0.5 0"/>
<feBlend mode="normal" in2="BackgroundImageFix" result="effect1_dropShadow_330_1189"/>
<feBlend mode="normal" in="SourceGraphic" in2="effect1_dropShadow_330_1189" result="shape"/>
</filter>
<filter id="filter1_d_330_1189" x="41" y="261" width="226.582" height="82.0632" filterUnits="userSpaceOnUse" color-interpolation-filters="sRGB">
<feFlood flood-opacity="0" result="BackgroundImageFix"/>
<feColorMatrix in="SourceAlpha" type="matrix" values="0 0 0 0 0 0 0 0 0 0 0 0 0 0 0 0 0 0 127 0" result="hardAlpha"/>
<feOffset dy="5"/>
<feGaussianBlur stdDeviation="5"/>
<feColorMatrix type="matrix" values="0 0 0 0 0.117647 0 0 0 0 0.584314 0 0 0 0 0.607843 0 0 0 0.5 0"/>
<feBlend mode="normal" in2="BackgroundImageFix" result="effect1_dropShadow_330_1189"/>
<feBlend mode="normal" in="SourceGraphic" in2="effect1_dropShadow_330_1189" result="shape"/>
</filter>
<linearGradient id="paint0_linear_330_1189" x1="154.5" y1="43" x2="154.5" y2="348" gradientUnits="userSpaceOnUse">
<stop stop-color="white"/>
<stop offset="1" stop-color="#F7F9FD"/>
</linearGradient>
</defs>
</svg>
