<svg width="309" height="363" viewBox="0 0 309 363" fill="none" xmlns="http://www.w3.org/2000/svg">
<g filter="url(#filter0_d_330_775)">
<rect x="10" y="43" width="289" height="305" rx="30" fill="url(#paint0_linear_330_775)"/>
</g>
<path d="M152 182C202.258 182 243 141.258 243 91C243 40.7421 202.258 0 152 0C101.742 0 61 40.7421 61 91C61 141.258 101.742 182 152 182Z" fill="#1E959B"/>
<path d="M93.0653 224.288C94.5373 225.136 95.2733 226.416 95.2733 228.128C95.2733 229.552 94.7693 230.72 93.7613 231.632C92.7533 232.544 91.5133 233 90.0413 233H82.9133V216.2H89.5373C90.9613 216.2 92.1693 216.648 93.1613 217.544C94.1533 218.44 94.6493 219.568 94.6493 220.928C94.6493 222.32 94.1213 223.44 93.0653 224.288ZM89.5373 219.296H86.2253V222.992H89.5373C90.0493 222.992 90.4733 222.816 90.8093 222.464C91.1613 222.112 91.3373 221.672 91.3373 221.144C91.3373 220.616 91.1693 220.176 90.8333 219.824C90.4973 219.472 90.0653 219.296 89.5373 219.296ZM86.2253 229.904H90.0413C90.6013 229.904 91.0653 229.72 91.4333 229.352C91.8013 228.968 91.9853 228.488 91.9853 227.912C91.9853 227.352 91.8013 226.888 91.4333 226.52C91.0653 226.136 90.6013 225.944 90.0413 225.944H86.2253V229.904ZM100.757 216.2V229.832H107.165V233H97.4446V216.2H100.757ZM122.151 230.816C120.455 232.496 118.391 233.336 115.959 233.336C113.527 233.336 111.463 232.496 109.767 230.816C108.087 229.104 107.247 227.032 107.247 224.6C107.247 222.152 108.087 220.088 109.767 218.408C111.463 216.712 113.527 215.864 115.959 215.864C118.391 215.864 120.455 216.712 122.151 218.408C123.847 220.088 124.695 222.152 124.695 224.6C124.695 227.048 123.847 229.12 122.151 230.816ZM112.095 228.56C113.119 229.584 114.407 230.096 115.959 230.096C117.511 230.096 118.799 229.584 119.823 228.56C120.863 227.52 121.383 226.2 121.383 224.6C121.383 223 120.863 221.68 119.823 220.64C118.783 219.6 117.495 219.08 115.959 219.08C114.423 219.08 113.135 219.6 112.095 220.64C111.055 221.68 110.535 223 110.535 224.6C110.535 226.2 111.055 227.52 112.095 228.56ZM134.991 233.336C132.479 233.336 130.391 232.496 128.727 230.816C127.079 229.152 126.255 227.08 126.255 224.6C126.255 222.104 127.079 220.032 128.727 218.384C130.391 216.704 132.479 215.864 134.991 215.864C136.511 215.864 137.911 216.224 139.191 216.944C140.487 217.648 141.495 218.608 142.215 219.824L139.359 221.48C138.943 220.728 138.351 220.144 137.583 219.728C136.815 219.296 135.951 219.08 134.991 219.08C133.359 219.08 132.039 219.592 131.031 220.616C130.039 221.656 129.543 222.984 129.543 224.6C129.543 226.2 130.039 227.52 131.031 228.56C132.039 229.584 133.359 230.096 134.991 230.096C135.951 230.096 136.815 229.888 137.583 229.472C138.367 229.04 138.959 228.456 139.359 227.72L142.215 229.376C141.495 230.592 140.487 231.56 139.191 232.28C137.911 232.984 136.511 233.336 134.991 233.336ZM150.921 224.36L157.377 233H153.561L147.561 225.128V233H144.249V216.2H147.561V223.616L153.321 216.2H157.137L150.921 224.36ZM165.553 233.336C163.041 233.336 160.953 232.496 159.289 230.816C157.641 229.152 156.817 227.08 156.817 224.6C156.817 222.104 157.641 220.032 159.289 218.384C160.953 216.704 163.041 215.864 165.553 215.864C167.073 215.864 168.473 216.224 169.753 216.944C171.049 217.648 172.057 218.608 172.777 219.824L169.921 221.48C169.505 220.728 168.913 220.144 168.145 219.728C167.377 219.296 166.513 219.08 165.553 219.08C163.921 219.08 162.601 219.592 161.593 220.616C160.601 221.656 160.105 222.984 160.105 224.6C160.105 226.2 160.601 227.52 161.593 228.56C162.601 229.584 163.921 230.096 165.553 230.096C166.513 230.096 167.377 229.888 168.145 229.472C168.929 229.04 169.521 228.456 169.921 227.72L172.777 229.376C172.057 230.592 171.049 231.56 169.753 232.28C168.473 232.984 167.073 233.336 165.553 233.336ZM184.364 222.872V216.2H187.652V233H184.364V226.04H178.124V233H174.812V216.2H178.124V222.872H184.364ZM205.173 233H201.573L200.565 229.976H193.869L192.861 233H189.285L195.165 216.2H199.269L205.173 233ZM197.229 220.016L194.925 226.88H199.533L197.229 220.016ZM206.804 233V216.2H210.116V233H206.804ZM222.946 226.448V216.2H226.258V233H223.738L216.538 222.728V233H213.226V216.2H215.746L222.946 226.448Z" fill="#1E959B"/>
<g filter="url(#filter1_d_330_775)">
<path d="M51 286C51 274.954 59.9543 266 71 266H237.582C248.628 266 257.582 274.954 257.582 286V308.063C257.582 319.109 248.627 328.063 237.582 328.063H71C59.9543 328.063 51 319.109 51 308.063V286Z" fill="#F05670"/>
</g>
<path d="M126.929 296.782C127.862 297.267 128.329 298.042 128.329 299.106C128.329 299.974 127.997 300.683 127.335 301.234C126.681 301.775 125.827 302.046 124.773 302.046C122.953 302.046 121.735 301.276 121.119 299.736L122.785 298.798C123.074 299.75 123.737 300.226 124.773 300.226C125.295 300.226 125.697 300.119 125.977 299.904C126.266 299.68 126.411 299.372 126.411 298.98C126.411 298.588 126.271 298.285 125.991 298.07C125.711 297.846 125.319 297.734 124.815 297.734H123.597V296.012H124.521C125.006 296.012 125.384 295.909 125.655 295.704C125.925 295.489 126.061 295.2 126.061 294.836C126.061 294.463 125.939 294.173 125.697 293.968C125.463 293.763 125.123 293.66 124.675 293.66C123.835 293.66 123.247 294.071 122.911 294.892L121.273 293.94C121.935 292.549 123.069 291.854 124.675 291.854C125.636 291.854 126.429 292.115 127.055 292.638C127.671 293.151 127.979 293.842 127.979 294.71C127.979 295.587 127.629 296.278 126.929 296.782ZM137.982 301.85H135.882L135.294 300.086H131.388L130.8 301.85H128.714L132.144 292.05H134.538L137.982 301.85ZM133.348 294.276L132.004 298.28H134.692L133.348 294.276ZM142.826 296.81L146.592 301.85H144.366L140.866 297.258V301.85H138.934V292.05H140.866V296.376L144.226 292.05H146.452L142.826 296.81ZM156.193 301.85H154.093L153.505 300.086H149.599L149.011 301.85H146.925L150.355 292.05H152.749L156.193 301.85ZM151.559 294.276L150.215 298.28H152.903L151.559 294.276ZM162.339 296.782C163.272 297.267 163.739 298.042 163.739 299.106C163.739 299.974 163.407 300.683 162.745 301.234C162.091 301.775 161.237 302.046 160.183 302.046C158.363 302.046 157.145 301.276 156.529 299.736L158.195 298.798C158.484 299.75 159.147 300.226 160.183 300.226C160.705 300.226 161.107 300.119 161.387 299.904C161.676 299.68 161.821 299.372 161.821 298.98C161.821 298.588 161.681 298.285 161.401 298.07C161.121 297.846 160.729 297.734 160.225 297.734H159.007V296.012H159.931C160.416 296.012 160.794 295.909 161.065 295.704C161.335 295.489 161.471 295.2 161.471 294.836C161.471 294.463 161.349 294.173 161.107 293.968C160.873 293.763 160.533 293.66 160.085 293.66C159.245 293.66 158.657 294.071 158.321 294.892L156.683 293.94C157.345 292.549 158.479 291.854 160.085 291.854C161.046 291.854 161.839 292.115 162.465 292.638C163.081 293.151 163.389 293.842 163.389 294.71C163.389 295.587 163.039 296.278 162.339 296.782ZM173.392 301.85H171.292L170.704 300.086H166.798L166.21 301.85H164.124L167.554 292.05H169.948L173.392 301.85ZM168.758 294.276L167.414 298.28H170.102L168.758 294.276ZM172.905 292.05H180.115V293.898H177.469V301.85H175.537V293.898H172.905V292.05ZM183.126 295.27H184.848C185.781 295.27 186.574 295.587 187.228 296.222C187.872 296.857 188.194 297.636 188.194 298.56C188.194 299.484 187.872 300.263 187.228 300.898C186.574 301.533 185.781 301.85 184.848 301.85H181.194V292.05H183.126V295.27ZM183.126 300.044H184.848C185.258 300.044 185.599 299.904 185.87 299.624C186.14 299.344 186.276 298.989 186.276 298.56C186.276 298.14 186.14 297.79 185.87 297.51C185.599 297.221 185.258 297.076 184.848 297.076H183.126V300.044Z" fill="white"/>
<path d="M205.277 64.5929C205.277 59.4814 201.148 55.3234 196.072 55.3234C193.467 55.3234 191.112 56.4217 189.435 58.1804L153.516 37.2955C152.838 36.9015 152.004 36.9015 151.326 37.2955L115.406 58.1804C113.73 56.4217 111.376 55.3234 108.77 55.3234C103.694 55.3234 99.5654 59.4814 99.5654 64.5929C99.5654 68.9432 102.557 72.6012 106.578 73.5943V115.35C106.578 116.138 106.996 116.866 107.674 117.261L143.582 138.14C143.344 138.962 143.214 139.831 143.214 140.73C143.214 145.841 147.343 150 152.418 150C157.493 150 161.621 145.841 161.621 140.73C161.621 139.832 161.492 138.965 161.254 138.142L197.168 117.261C197.846 116.867 198.264 116.138 198.264 115.35V73.5943C202.285 72.6012 205.277 68.9432 205.277 64.5929ZM103.948 64.5929C103.948 61.9151 106.111 59.7374 108.77 59.7374C111.428 59.7374 113.59 61.9151 113.59 64.5929C113.59 67.2698 111.428 69.4484 108.77 69.4484C106.111 69.4484 103.948 67.2698 103.948 64.5929ZM152.418 145.586C149.759 145.586 147.597 143.408 147.597 140.73C147.597 138.054 149.759 135.875 152.418 135.875C155.076 135.875 157.239 138.054 157.239 140.73C157.239 143.408 155.076 145.586 152.418 145.586ZM159.059 134.322C157.382 132.561 155.026 131.461 152.418 131.461C149.811 131.461 147.456 132.56 145.779 134.32L110.961 114.075V73.5943C114.981 72.6012 117.973 68.9432 117.973 64.5929C117.973 63.6928 117.843 62.823 117.604 61.9988L152.421 41.7553L187.238 61.9988C186.999 62.823 186.869 63.692 186.869 64.5929C186.869 68.9432 189.861 72.6012 193.881 73.5943V114.075L159.059 134.322ZM196.072 69.4484C193.414 69.4484 191.251 67.2698 191.251 64.5929C191.251 61.9151 193.414 59.7374 196.072 59.7374C198.731 59.7374 200.894 61.9151 200.894 64.5929C200.894 67.2698 198.731 69.4484 196.072 69.4484Z" fill="#F8FFFF"/>
<path d="M182.444 71.2373L153.516 54.4182C152.838 54.0242 152.003 54.0242 151.325 54.4182L122.398 71.2373C121.72 71.6322 121.302 72.3607 121.302 73.1487V106.788C121.302 107.576 121.72 108.305 122.398 108.699L151.325 125.519C151.664 125.716 152.042 125.815 152.42 125.815C152.799 125.815 153.177 125.716 153.516 125.519L182.444 108.699C183.122 108.305 183.539 107.576 183.539 106.788V73.1487C183.539 72.3607 183.122 71.6322 182.444 71.2373ZM152.42 58.8779L176.965 73.1487L152.42 87.4203L127.876 73.1487L152.42 58.8779ZM154.612 119.785V109.832C154.612 108.613 153.631 107.625 152.42 107.625C151.211 107.625 150.229 108.613 150.229 109.832V119.785L125.685 105.514V76.9713L151.325 91.88C151.664 92.0766 152.042 92.1757 152.42 92.1757C152.799 92.1757 153.177 92.0766 153.516 91.88L179.156 76.9713V105.514L154.612 119.785Z" fill="#F8FFFF"/>
<path d="M152.419 97.6932C151.84 97.6932 151.277 97.9286 150.867 98.3398C150.459 98.7502 150.225 99.3192 150.225 99.9003C150.225 100.48 150.459 101.049 150.867 101.46C151.277 101.871 151.84 102.107 152.419 102.107C152.995 102.107 153.561 101.871 153.968 101.46C154.376 101.049 154.61 100.48 154.61 99.9003C154.61 99.3192 154.376 98.7502 153.968 98.3398C153.561 97.9286 152.995 97.6932 152.419 97.6932Z" fill="#F8FFFF"/>
<defs>
<filter id="filter0_d_330_775" x="0" y="38" width="309" height="325" filterUnits="userSpaceOnUse" color-interpolation-filters="sRGB">
<feFlood flood-opacity="0" result="BackgroundImageFix"/>
<feColorMatrix in="SourceAlpha" type="matrix" values="0 0 0 0 0 0 0 0 0 0 0 0 0 0 0 0 0 0 127 0" result="hardAlpha"/>
<feOffset dy="5"/>
<feGaussianBlur stdDeviation="5"/>
<feColorMatrix type="matrix" values="0 0 0 0 0.117647 0 0 0 0 0.584314 0 0 0 0 0.607843 0 0 0 0.5 0"/>
<feBlend mode="normal" in2="BackgroundImageFix" result="effect1_dropShadow_330_775"/>
<feBlend mode="normal" in="SourceGraphic" in2="effect1_dropShadow_330_775" result="shape"/>
</filter>
<filter id="filter1_d_330_775" x="41" y="261" width="226.582" height="82.0632" filterUnits="userSpaceOnUse" color-interpolation-filters="sRGB">
<feFlood flood-opacity="0" result="BackgroundImageFix"/>
<feColorMatrix in="SourceAlpha" type="matrix" values="0 0 0 0 0 0 0 0 0 0 0 0 0 0 0 0 0 0 127 0" result="hardAlpha"/>
<feOffset dy="5"/>
<feGaussianBlur stdDeviation="5"/>
<feColorMatrix type="matrix" values="0 0 0 0 0.117647 0 0 0 0 0.584314 0 0 0 0 0.607843 0 0 0 0.5 0"/>
<feBlend mode="normal" in2="BackgroundImageFix" result="effect1_dropShadow_330_775"/>
<feBlend mode="normal" in="SourceGraphic" in2="effect1_dropShadow_330_775" result="shape"/>
</filter>
<linearGradient id="paint0_linear_330_775" x1="154.5" y1="43" x2="154.5" y2="348" gradientUnits="userSpaceOnUse">
<stop stop-color="white"/>
<stop offset="1" stop-color="#F7F9FD"/>
</linearGradient>
</defs>
</svg>
