<svg width="203" height="172" viewBox="0 0 203 172" fill="none" xmlns="http://www.w3.org/2000/svg">
<g filter="url(#filter0_d_120_1324)">
<rect x="4" width="195" height="164" rx="25" fill="url(#paint0_linear_120_1324)"/>
</g>
<path d="M41.1365 140.168C39.6431 140.168 38.4158 139.678 37.4545 138.698C36.4838 137.709 35.9985 136.509 35.9985 135.1C35.9985 133.691 36.4838 132.491 37.4545 131.502C38.4158 130.522 39.6431 130.032 41.1365 130.032C42.0325 130.032 42.8585 130.251 43.6145 130.69C44.3705 131.119 44.9585 131.703 45.3785 132.44L44.5105 132.944C44.2025 132.347 43.7451 131.871 43.1385 131.516C42.5318 131.161 41.8645 130.984 41.1365 130.984C39.9045 130.984 38.9058 131.381 38.1405 132.174C37.3658 132.977 36.9785 133.952 36.9785 135.1C36.9785 136.248 37.3658 137.223 38.1405 138.026C38.9058 138.819 39.9045 139.216 41.1365 139.216C41.8645 139.216 42.5318 139.039 43.1385 138.684C43.7451 138.329 44.2025 137.853 44.5105 137.256L45.3785 137.746C44.9771 138.483 44.3938 139.071 43.6285 139.51C42.8631 139.949 42.0325 140.168 41.1365 140.168ZM55.0961 138.698C54.1161 139.678 52.9168 140.168 51.4981 140.168C50.0795 140.168 48.8801 139.678 47.9001 138.698C46.9201 137.699 46.4301 136.5 46.4301 135.1C46.4301 133.691 46.9201 132.496 47.9001 131.516C48.8801 130.527 50.0795 130.032 51.4981 130.032C52.9168 130.032 54.1161 130.527 55.0961 131.516C56.0761 132.496 56.5661 133.691 56.5661 135.1C56.5661 136.5 56.0761 137.699 55.0961 138.698ZM47.4101 135.1C47.4101 136.257 47.8021 137.233 48.5861 138.026C49.3701 138.819 50.3408 139.216 51.4981 139.216C52.6555 139.216 53.6261 138.819 54.4101 138.026C55.1941 137.233 55.5861 136.257 55.5861 135.1C55.5861 133.952 55.1941 132.981 54.4101 132.188C53.6261 131.385 52.6555 130.984 51.4981 130.984C50.3408 130.984 49.3701 131.385 48.5861 132.188C47.8021 132.981 47.4101 133.952 47.4101 135.1ZM59.2221 134.12H61.8821C62.6847 134.12 63.3754 134.409 63.9541 134.988C64.5327 135.567 64.8221 136.257 64.8221 137.06C64.8221 137.872 64.5327 138.567 63.9541 139.146C63.3847 139.715 62.6941 140 61.8821 140H58.2421V130.2H63.9821V131.124H59.2221V134.12ZM59.2221 139.076H61.8821C62.4234 139.076 62.8854 138.88 63.2681 138.488C63.6507 138.087 63.8421 137.611 63.8421 137.06C63.8421 136.519 63.6507 136.047 63.2681 135.646C62.8947 135.245 62.4327 135.044 61.8821 135.044H59.2221V139.076ZM67.4115 135.52V139.076H72.1715V140H66.4315V130.2H72.1015V131.124H67.4115V134.596H71.7515V135.52H67.4115ZM73.8554 130.2H77.3554C78.2327 130.2 78.9654 130.494 79.5534 131.082C80.1414 131.67 80.4354 132.403 80.4354 133.28C80.4354 134.157 80.1414 134.89 79.5534 135.478C78.9654 136.066 78.2327 136.36 77.3554 136.36H74.8354V140H73.8554V130.2ZM74.8354 135.436H77.3554C77.962 135.436 78.4614 135.235 78.8534 134.834C79.2547 134.433 79.4554 133.915 79.4554 133.28C79.4554 132.655 79.2547 132.141 78.8534 131.74C78.4614 131.329 77.962 131.124 77.3554 131.124H74.8354V135.436ZM84.2552 128.52C84.2552 128.697 84.1945 128.847 84.0732 128.968C83.9518 129.089 83.8025 129.15 83.6252 129.15C83.4478 129.15 83.2985 129.089 83.1772 128.968C83.0558 128.847 82.9952 128.697 82.9952 128.52C82.9952 128.343 83.0558 128.193 83.1772 128.072C83.2985 127.951 83.4478 127.89 83.6252 127.89C83.8025 127.89 83.9518 127.951 84.0732 128.072C84.1945 128.193 84.2552 128.343 84.2552 128.52ZM86.9152 128.52C86.9152 128.697 86.8545 128.847 86.7332 128.968C86.6118 129.089 86.4625 129.15 86.2852 129.15C86.1078 129.15 85.9585 129.089 85.8372 128.968C85.7158 128.847 85.6552 128.697 85.6552 128.52C85.6552 128.343 85.7158 128.193 85.8372 128.072C85.9585 127.951 86.1078 127.89 86.2852 127.89C86.4625 127.89 86.6118 127.951 86.7332 128.072C86.8545 128.193 86.9152 128.343 86.9152 128.52ZM83.0932 135.52V139.076H87.8532V140H82.1132V130.2H87.7832V131.124H83.0932V134.596H87.4332V135.52H83.0932ZM97.279 130.2H98.497V140H97.517V131.684L94.087 137.424H93.947L90.517 131.684V140H89.537V130.2H90.755L94.017 135.66L97.279 130.2ZM106.25 134.96L111.094 140H109.806L105.214 135.254V140H104.234V130.2H105.214V134.68L109.666 130.2H110.954L106.25 134.96ZM119.627 138.698C118.647 139.678 117.448 140.168 116.029 140.168C114.611 140.168 113.411 139.678 112.431 138.698C111.451 137.699 110.961 136.5 110.961 135.1C110.961 133.691 111.451 132.496 112.431 131.516C113.411 130.527 114.611 130.032 116.029 130.032C117.448 130.032 118.647 130.527 119.627 131.516C120.607 132.496 121.097 133.691 121.097 135.1C121.097 136.5 120.607 137.699 119.627 138.698ZM111.941 135.1C111.941 136.257 112.333 137.233 113.117 138.026C113.901 138.819 114.872 139.216 116.029 139.216C117.187 139.216 118.157 138.819 118.941 138.026C119.725 137.233 120.117 136.257 120.117 135.1C120.117 133.952 119.725 132.981 118.941 132.188C118.157 131.385 117.187 130.984 116.029 130.984C114.872 130.984 113.901 131.385 113.117 132.188C112.333 132.981 111.941 133.952 111.941 135.1ZM130.515 130.2H131.733V140H130.753V131.684L127.323 137.424H127.183L123.753 131.684V140H122.773V130.2H123.991L127.253 135.66L130.515 130.2ZM141.531 140H140.495L139.585 137.592H134.937L134.027 140H132.991L136.757 130.2H137.765L141.531 140ZM137.261 131.418L135.287 136.668H139.235L137.261 131.418ZM149.089 134.498V130.2H150.069V140H149.089V135.422H143.769V140H142.789V130.2H143.769V134.498H149.089ZM159.305 130.2V139.076H160.355V141.876H159.375V140H152.375V141.876H151.395V139.076H152.193C152.837 138.32 153.159 137.153 153.159 135.576V130.2H159.305ZM153.355 139.076H158.325V131.124H154.139V135.604C154.139 137.144 153.877 138.301 153.355 139.076ZM164.833 136.22L167.409 130.2H168.417L165.155 137.858C164.828 138.642 164.413 139.207 163.909 139.552C163.405 139.897 162.78 140.047 162.033 140V139.104C162.556 139.16 162.985 139.085 163.321 138.88C163.666 138.665 163.951 138.297 164.175 137.774L164.371 137.312L160.997 130.2H162.005L164.833 136.22Z" fill="black"/>
<path d="M41.1365 140.168C39.6431 140.168 38.4158 139.678 37.4545 138.698C36.4838 137.709 35.9985 136.509 35.9985 135.1C35.9985 133.691 36.4838 132.491 37.4545 131.502C38.4158 130.522 39.6431 130.032 41.1365 130.032C42.0325 130.032 42.8585 130.251 43.6145 130.69C44.3705 131.119 44.9585 131.703 45.3785 132.44L44.5105 132.944C44.2025 132.347 43.7451 131.871 43.1385 131.516C42.5318 131.161 41.8645 130.984 41.1365 130.984C39.9045 130.984 38.9058 131.381 38.1405 132.174C37.3658 132.977 36.9785 133.952 36.9785 135.1C36.9785 136.248 37.3658 137.223 38.1405 138.026C38.9058 138.819 39.9045 139.216 41.1365 139.216C41.8645 139.216 42.5318 139.039 43.1385 138.684C43.7451 138.329 44.2025 137.853 44.5105 137.256L45.3785 137.746C44.9771 138.483 44.3938 139.071 43.6285 139.51C42.8631 139.949 42.0325 140.168 41.1365 140.168ZM55.0961 138.698C54.1161 139.678 52.9168 140.168 51.4981 140.168C50.0795 140.168 48.8801 139.678 47.9001 138.698C46.9201 137.699 46.4301 136.5 46.4301 135.1C46.4301 133.691 46.9201 132.496 47.9001 131.516C48.8801 130.527 50.0795 130.032 51.4981 130.032C52.9168 130.032 54.1161 130.527 55.0961 131.516C56.0761 132.496 56.5661 133.691 56.5661 135.1C56.5661 136.5 56.0761 137.699 55.0961 138.698ZM47.4101 135.1C47.4101 136.257 47.8021 137.233 48.5861 138.026C49.3701 138.819 50.3408 139.216 51.4981 139.216C52.6555 139.216 53.6261 138.819 54.4101 138.026C55.1941 137.233 55.5861 136.257 55.5861 135.1C55.5861 133.952 55.1941 132.981 54.4101 132.188C53.6261 131.385 52.6555 130.984 51.4981 130.984C50.3408 130.984 49.3701 131.385 48.5861 132.188C47.8021 132.981 47.4101 133.952 47.4101 135.1ZM59.2221 134.12H61.8821C62.6847 134.12 63.3754 134.409 63.9541 134.988C64.5327 135.567 64.8221 136.257 64.8221 137.06C64.8221 137.872 64.5327 138.567 63.9541 139.146C63.3847 139.715 62.6941 140 61.8821 140H58.2421V130.2H63.9821V131.124H59.2221V134.12ZM59.2221 139.076H61.8821C62.4234 139.076 62.8854 138.88 63.2681 138.488C63.6507 138.087 63.8421 137.611 63.8421 137.06C63.8421 136.519 63.6507 136.047 63.2681 135.646C62.8947 135.245 62.4327 135.044 61.8821 135.044H59.2221V139.076ZM67.4115 135.52V139.076H72.1715V140H66.4315V130.2H72.1015V131.124H67.4115V134.596H71.7515V135.52H67.4115ZM73.8554 130.2H77.3554C78.2327 130.2 78.9654 130.494 79.5534 131.082C80.1414 131.67 80.4354 132.403 80.4354 133.28C80.4354 134.157 80.1414 134.89 79.5534 135.478C78.9654 136.066 78.2327 136.36 77.3554 136.36H74.8354V140H73.8554V130.2ZM74.8354 135.436H77.3554C77.962 135.436 78.4614 135.235 78.8534 134.834C79.2547 134.433 79.4554 133.915 79.4554 133.28C79.4554 132.655 79.2547 132.141 78.8534 131.74C78.4614 131.329 77.962 131.124 77.3554 131.124H74.8354V135.436ZM84.2552 128.52C84.2552 128.697 84.1945 128.847 84.0732 128.968C83.9518 129.089 83.8025 129.15 83.6252 129.15C83.4478 129.15 83.2985 129.089 83.1772 128.968C83.0558 128.847 82.9952 128.697 82.9952 128.52C82.9952 128.343 83.0558 128.193 83.1772 128.072C83.2985 127.951 83.4478 127.89 83.6252 127.89C83.8025 127.89 83.9518 127.951 84.0732 128.072C84.1945 128.193 84.2552 128.343 84.2552 128.52ZM86.9152 128.52C86.9152 128.697 86.8545 128.847 86.7332 128.968C86.6118 129.089 86.4625 129.15 86.2852 129.15C86.1078 129.15 85.9585 129.089 85.8372 128.968C85.7158 128.847 85.6552 128.697 85.6552 128.52C85.6552 128.343 85.7158 128.193 85.8372 128.072C85.9585 127.951 86.1078 127.89 86.2852 127.89C86.4625 127.89 86.6118 127.951 86.7332 128.072C86.8545 128.193 86.9152 128.343 86.9152 128.52ZM83.0932 135.52V139.076H87.8532V140H82.1132V130.2H87.7832V131.124H83.0932V134.596H87.4332V135.52H83.0932ZM97.279 130.2H98.497V140H97.517V131.684L94.087 137.424H93.947L90.517 131.684V140H89.537V130.2H90.755L94.017 135.66L97.279 130.2ZM106.25 134.96L111.094 140H109.806L105.214 135.254V140H104.234V130.2H105.214V134.68L109.666 130.2H110.954L106.25 134.96ZM119.627 138.698C118.647 139.678 117.448 140.168 116.029 140.168C114.611 140.168 113.411 139.678 112.431 138.698C111.451 137.699 110.961 136.5 110.961 135.1C110.961 133.691 111.451 132.496 112.431 131.516C113.411 130.527 114.611 130.032 116.029 130.032C117.448 130.032 118.647 130.527 119.627 131.516C120.607 132.496 121.097 133.691 121.097 135.1C121.097 136.5 120.607 137.699 119.627 138.698ZM111.941 135.1C111.941 136.257 112.333 137.233 113.117 138.026C113.901 138.819 114.872 139.216 116.029 139.216C117.187 139.216 118.157 138.819 118.941 138.026C119.725 137.233 120.117 136.257 120.117 135.1C120.117 133.952 119.725 132.981 118.941 132.188C118.157 131.385 117.187 130.984 116.029 130.984C114.872 130.984 113.901 131.385 113.117 132.188C112.333 132.981 111.941 133.952 111.941 135.1ZM130.515 130.2H131.733V140H130.753V131.684L127.323 137.424H127.183L123.753 131.684V140H122.773V130.2H123.991L127.253 135.66L130.515 130.2ZM141.531 140H140.495L139.585 137.592H134.937L134.027 140H132.991L136.757 130.2H137.765L141.531 140ZM137.261 131.418L135.287 136.668H139.235L137.261 131.418ZM149.089 134.498V130.2H150.069V140H149.089V135.422H143.769V140H142.789V130.2H143.769V134.498H149.089ZM159.305 130.2V139.076H160.355V141.876H159.375V140H152.375V141.876H151.395V139.076H152.193C152.837 138.32 153.159 137.153 153.159 135.576V130.2H159.305ZM153.355 139.076H158.325V131.124H154.139V135.604C154.139 137.144 153.877 138.301 153.355 139.076ZM164.833 136.22L167.409 130.2H168.417L165.155 137.858C164.828 138.642 164.413 139.207 163.909 139.552C163.405 139.897 162.78 140.047 162.033 140V139.104C162.556 139.16 162.985 139.085 163.321 138.88C163.666 138.665 163.951 138.297 164.175 137.774L164.371 137.312L160.997 130.2H162.005L164.833 136.22Z" fill="#3C3C3C"/>
<g clip-path="url(#clip0_120_1324)">
<path d="M90.6482 87.3172C90.0022 87.3172 89.4785 87.8407 89.4785 88.4869V94.6468C89.4785 95.293 90.0022 95.8165 90.6482 95.8165C91.2942 95.8165 91.8179 95.293 91.8179 94.6468V88.4869C91.8179 87.8407 91.2942 87.3172 90.6482 87.3172Z" fill="#1E959B"/>
<path d="M113.289 87.3172C112.643 87.3172 112.12 87.8407 112.12 88.4869V94.6468C112.12 95.293 112.643 95.8165 113.289 95.8165C113.935 95.8165 114.459 95.293 114.459 94.6468V88.4869C114.459 87.8407 113.935 87.3172 113.289 87.3172Z" fill="#1E959B"/>
<path d="M136.018 83.2337L132.101 81.6624V80.6621C132.87 80.2348 133.56 79.6788 134.141 79.0225C136.618 79.3149 138.989 78.326 140.523 76.3365C142.11 74.2791 142.44 71.6277 141.407 69.2439L139.648 65.1887C139.516 64.884 139.425 64.5626 139.377 64.2338C138.998 61.5997 137.682 59.1892 135.671 57.4466C133.659 55.7038 131.086 54.7442 128.425 54.7442C125.763 54.7442 123.19 55.7038 121.179 57.4466C119.168 59.1892 117.851 61.5995 117.472 64.2338C117.425 64.5627 117.334 64.8841 117.201 65.1887L115.443 69.2439C114.409 71.6275 114.739 74.279 116.326 76.3365C117.684 78.0965 119.695 79.0773 121.856 79.0771C122.134 79.0771 122.416 79.0606 122.699 79.0274C123.226 79.6251 123.844 80.14 124.533 80.5498V81.6622L120.616 83.2337C120.361 83.3361 120.112 83.452 119.869 83.5802C119.111 82.1864 118.029 80.9676 116.683 80.0417L111.582 76.5335C111.611 75.8892 111.354 75.2403 110.829 74.795L108.756 73.0361C108.559 72.8693 108.339 72.7433 108.105 72.6576V70.2896C110.296 68.7004 111.85 66.2859 112.305 63.5052H112.43C114.66 63.5052 116.475 61.6908 116.475 59.4608C116.475 58.5086 116.143 57.6328 115.591 56.9411L116.427 50.9975C117.029 46.7127 114.038 42.7092 109.758 42.0726L109.592 42.0479C108.223 39.8143 106.103 38.2028 103.56 37.4817L103.254 37.3948C99.8823 36.4388 96.2757 37.0094 93.359 38.9608C92.822 39.3199 92.6779 40.0464 93.0371 40.5832C93.3962 41.12 94.1225 41.2642 94.6596 40.9049C97.0054 39.3357 99.9052 38.8767 102.616 39.6454L102.922 39.7323C105.05 40.3357 106.797 41.7419 107.841 43.692C108.559 45.0337 108.876 46.5092 108.785 47.9852L107.992 47.3037C107.267 46.6808 106.201 46.6642 105.458 47.2647L104.418 48.1048H98.4809C94.6283 48.1048 91.4939 51.2392 91.4939 55.0918V55.4167C91.1837 55.4177 90.8821 55.4549 90.592 55.5224C89.2696 51.7997 89.6425 47.6054 91.63 44.1745C91.9538 43.6154 91.7632 42.8999 91.2043 42.576C90.6453 42.2524 89.9298 42.4428 89.6059 43.0018C87.2023 47.1511 86.8125 52.2526 88.5405 56.7173C87.8732 57.4388 87.4644 58.4028 87.4644 59.4608C87.4644 61.6908 89.2788 63.5052 91.509 63.5052H91.6338C92.0892 66.2859 93.6428 68.7004 95.8338 70.2896V72.6576C95.6005 72.7431 95.3797 72.8693 95.1833 73.036L93.1104 74.795C92.5856 75.2403 92.3279 75.8894 92.3574 76.5335L87.2562 80.0417C86.2196 80.7546 85.3394 81.641 84.6432 82.6474C84.192 82.3982 83.7218 82.1852 83.2349 82.0127L79.7714 80.7859V79.8641C81.5356 78.7741 82.8038 76.9572 83.1571 74.8343H83.6805C85.7327 74.8343 87.4022 73.1648 87.4022 71.1127C87.4022 70.1913 87.065 69.3479 86.5084 68.6973L86.7173 66.2252C87.0075 62.6654 85.4542 59.2886 82.562 57.193C79.6697 55.0971 75.9772 54.6724 72.6846 56.0567L70.3532 57.0369C66.7433 57.8338 64.3305 61.2929 64.8459 64.9673L65.3675 68.6853C64.8048 69.3375 64.4634 70.1857 64.4634 71.1127C64.4634 73.1648 66.1329 74.8343 68.1851 74.8343H68.7085C69.0388 76.8195 70.1697 78.5364 71.7576 79.6423V80.7859L68.2941 82.0125C67.8091 82.1844 67.3313 82.3996 66.874 82.6526C66.3087 82.9651 66.1037 83.6767 66.4163 84.2421C66.6296 84.6281 67.029 84.8459 67.4409 84.8459C67.6323 84.8459 67.8264 84.7988 68.0058 84.6996C68.3509 84.5088 68.7107 84.3466 69.0749 84.2176L72.0677 83.1575C72.6737 84.602 74.1023 85.6192 75.7643 85.6192C77.4263 85.6192 78.8549 84.602 79.4609 83.1575L82.4537 84.2177C82.8302 84.3509 83.1936 84.5167 83.5418 84.7113C83.0772 85.8891 82.8282 87.1583 82.8282 88.4607V95.3998C82.8282 96.0459 83.3519 96.5695 83.9978 96.5695C84.6438 96.5695 85.1675 96.0459 85.1675 95.3998V88.4607C85.1675 85.8662 86.4439 83.4395 88.5816 81.9693L93.453 78.6191L95.4497 81.2887C95.8789 81.8626 96.5519 82.1859 97.246 82.1859C97.4622 82.1859 97.6805 82.1546 97.894 82.0896L100.8 81.2053V95.8895C100.8 96.5356 101.323 97.0592 101.969 97.0592C102.615 97.0592 103.139 96.5356 103.139 95.8895V81.2053L106.045 82.0897C106.258 82.1546 106.476 82.1859 106.693 82.1859C107.387 82.1859 108.06 81.8625 108.489 81.2887L110.485 78.6191L115.357 81.9693C117.495 83.4395 118.771 85.8662 118.771 88.4607V95.3998C118.771 96.0459 119.295 96.5695 119.941 96.5695C120.587 96.5695 121.11 96.0459 121.11 95.3998V88.4607C121.11 87.5395 120.985 86.6348 120.748 85.767C120.985 85.6287 121.232 85.5073 121.487 85.405L124.883 84.0423C125.485 85.3374 126.797 86.238 128.317 86.238C129.836 86.238 131.149 85.3375 131.75 84.0424L135.147 85.405C137.294 86.2665 138.682 88.3185 138.682 90.6324V92.6123C138.682 93.2584 139.206 93.7819 139.852 93.7819C140.498 93.7819 141.021 93.2584 141.021 92.6123V90.6324C141.021 87.3573 139.057 84.4532 136.018 83.2337ZM89.8033 59.4606C89.8033 58.5255 90.5602 57.7644 91.4934 57.7562V61.1647C90.5603 61.1566 89.8033 60.3957 89.8033 59.4606ZM83.6802 72.4948H83.2578V69.73H83.6802C84.4425 69.73 85.0626 70.3503 85.0626 71.1124C85.0626 71.8746 84.4425 72.4948 83.6802 72.4948ZM66.8024 71.1126C66.8024 70.3503 67.4225 69.7302 68.1848 69.7302H68.6071V72.495H68.1848C67.4227 72.4948 66.8024 71.8747 66.8024 71.1126ZM70.0277 63.7853C69.2519 64.8567 68.7827 66.0905 68.6485 67.3907H68.1848C67.9702 67.3907 67.7603 67.41 67.5555 67.4449L67.1624 64.6419C66.8127 62.1498 68.4708 59.8051 70.9371 59.304C71.0126 59.2887 71.0865 59.266 71.1576 59.236L73.5912 58.2128C76.1242 57.1478 78.9645 57.4748 81.1892 59.0868C83.4139 60.6991 84.6089 63.2964 84.3859 66.0312L84.267 67.4371C84.0758 67.4067 83.8799 67.3905 83.6802 67.3905H83.2475C83.1468 66.3988 82.307 65.6221 81.289 65.6221H78.4007C76.3423 65.6221 74.3053 64.937 72.6653 63.6933L72.3343 63.4423C71.9869 63.1788 71.5399 63.0643 71.109 63.1285C70.6776 63.1928 70.2835 63.4322 70.0277 63.7853ZM71.9225 65.1574C71.9221 65.1578 71.922 65.1582 71.9218 65.1585C71.922 65.1582 71.9223 65.1578 71.9225 65.1574ZM70.9466 68.1692C70.9466 67.3233 71.1505 66.5058 71.5408 65.7697C73.5329 67.1856 75.9547 67.9618 78.4009 67.9618H80.9185V73.6283C80.9185 76.3777 78.6818 78.6144 75.9326 78.6144C73.1834 78.6144 70.9466 76.3777 70.9466 73.6283V68.1692ZM75.7641 83.2798C74.8446 83.2798 74.0966 82.5317 74.0966 81.6123V80.7206C74.6835 80.8726 75.2988 80.9537 75.9326 80.9537C76.4463 80.9537 76.9475 80.9001 77.4318 80.7989V81.6123C77.4318 82.5317 76.6837 83.2798 75.7641 83.2798ZM112.445 61.1647V57.7562C113.378 57.7643 114.135 58.5255 114.135 59.4606C114.135 60.3957 113.378 61.1566 112.445 61.1647ZM114.11 50.6712L113.425 55.5402C113.111 55.4605 112.783 55.4176 112.445 55.4163V55.3217C112.445 53.4359 111.861 51.6219 110.805 50.1062C111.266 48.3323 111.249 46.5061 110.773 44.7703C113.032 45.7346 114.467 48.1327 114.11 50.6712ZM93.8329 61.8067V55.0915C93.8329 52.5287 95.9179 50.4438 98.4806 50.4438H104.831C105.099 50.4438 105.358 50.3521 105.566 50.1842L106.694 49.2729L107.742 50.1736C109.244 51.4646 110.105 53.3412 110.105 55.3217V61.8065C110.105 66.2929 106.455 69.9427 101.969 69.9427C97.4826 69.9427 93.8329 66.2929 93.8329 61.8067ZM101.969 72.2822C103.308 72.2822 104.588 72.0271 105.766 71.5673V73.0661L101.969 74.9276L98.1727 73.0661V71.5673C99.3507 72.0269 100.63 72.2822 101.969 72.2822ZM97.2805 79.8307L94.7609 76.4619L96.6007 74.9006L100.799 76.9592V78.7597L97.2805 79.8307ZM106.658 79.8307L103.139 78.7599V76.9594L107.337 74.9008L109.177 76.462L106.658 79.8307ZM118.178 74.9078C117.119 73.5347 116.899 71.7656 117.589 70.1748L119.348 66.1196C119.562 65.6243 119.71 65.102 119.787 64.5671C120.401 60.3009 124.115 57.0837 128.425 57.0837C132.735 57.0837 136.448 60.3009 137.062 64.5671C137.139 65.1019 137.287 65.6242 137.502 66.1196L139.26 70.1748C139.95 71.7654 139.73 73.5347 138.671 74.9078C137.887 75.9243 136.776 76.5501 135.556 76.7003C135.808 76.0459 135.972 75.3483 136.032 74.6213C136.086 73.9775 135.607 73.4123 134.963 73.359C134.32 73.3067 133.754 73.7844 133.701 74.428C133.476 77.149 131.158 79.2805 128.425 79.2805C125.504 79.2805 123.128 76.9046 123.128 73.984V68.3729C123.128 67.1287 123.494 65.905 124.169 64.8664C125.682 66.0217 127.548 66.6825 129.454 66.7328L133.721 66.8454V69.5398C133.721 70.1859 134.245 70.7094 134.891 70.7094C135.537 70.7094 136.06 70.1859 136.06 69.5398V66.5287C136.06 65.4286 135.199 64.5442 134.099 64.5153L129.516 64.3946C128.031 64.3553 126.58 63.8177 125.428 62.8812L125.126 62.6353C124.77 62.3453 124.322 62.2125 123.865 62.2616C123.408 62.3104 122.998 62.535 122.712 62.8935C121.472 64.4428 120.788 66.3888 120.788 68.3734V73.9845C120.788 74.9401 120.966 75.8544 121.288 76.6981C120.071 76.5469 118.961 75.923 118.178 74.9078ZM128.317 83.8985C127.52 83.8985 126.871 83.2503 126.871 82.4534V81.4607C127.373 81.5648 127.893 81.62 128.425 81.62C128.88 81.62 129.326 81.5772 129.762 81.4986V82.4536C129.762 83.2503 129.113 83.8985 128.317 83.8985Z" fill="#1E959B"/>
<path d="M64.507 86.26C63.9256 85.9779 63.2261 86.2215 62.9445 86.8029C62.3178 88.0975 62 89.482 62 90.9182V94.6469C62 95.293 62.5237 95.8165 63.1697 95.8165C63.8156 95.8165 64.3393 95.293 64.3393 94.6469V90.9182C64.3393 89.8381 64.5784 88.7966 65.0502 87.8224C65.3317 87.241 65.0886 86.5413 64.507 86.26Z" fill="#1E959B"/>
</g>
<defs>
<filter id="filter0_d_120_1324" x="0" y="0" width="203" height="172" filterUnits="userSpaceOnUse" color-interpolation-filters="sRGB">
<feFlood flood-opacity="0" result="BackgroundImageFix"/>
<feColorMatrix in="SourceAlpha" type="matrix" values="0 0 0 0 0 0 0 0 0 0 0 0 0 0 0 0 0 0 127 0" result="hardAlpha"/>
<feOffset dy="4"/>
<feGaussianBlur stdDeviation="2"/>
<feColorMatrix type="matrix" values="0 0 0 0 0.117647 0 0 0 0 0.584314 0 0 0 0 0.607843 0 0 0 0.5 0"/>
<feBlend mode="normal" in2="BackgroundImageFix" result="effect1_dropShadow_120_1324"/>
<feBlend mode="normal" in="SourceGraphic" in2="effect1_dropShadow_120_1324" result="shape"/>
</filter>
<linearGradient id="paint0_linear_120_1324" x1="101.5" y1="0" x2="101.5" y2="164" gradientUnits="userSpaceOnUse">
<stop stop-color="white"/>
<stop offset="1" stop-color="#F7F9FD"/>
</linearGradient>
<clipPath id="clip0_120_1324">
<rect width="80" height="80" fill="white" transform="translate(62 27)"/>
</clipPath>
</defs>
</svg>
